<?xml version="1.0" encoding="UTF-8" standalone="no"?>
<!DOCTYPE svg PUBLIC "-//W3C//DTD SVG 1.1//EN"
 "http://www.w3.org/Graphics/SVG/1.1/DTD/svg11.dtd">
<!-- Generated by graphviz version 2.40.1 (20161225.0304)
 -->
<!-- Title: dependencies Pages: 1 -->
<svg width="1047pt" height="284pt"
 viewBox="0.00 0.00 1047.00 284.00" xmlns="http://www.w3.org/2000/svg" xmlns:xlink="http://www.w3.org/1999/xlink">
<g id="graph0" class="graph" transform="scale(1 1) rotate(0) translate(4 280)">
<title>dependencies</title>
<polygon fill="#ffffff" stroke="transparent" points="-4,4 -4,-280 1043,-280 1043,4 -4,4"/>
<text text-anchor="start" x="498.5091" y="-42.4" font-family="sans-serif" font-weight="bold" font-size="14.00" fill="#000000">Legend</text>
<polygon fill="#ffffb3" stroke="transparent" points="285.5,-10 285.5,-30 305.5,-30 305.5,-10 285.5,-10"/>
<text text-anchor="start" x="309.129" y="-15.4" font-family="sans-serif" font-size="14.00" fill="#000000"> &#160;Declarations</text>
<polygon fill="#8dd3c7" stroke="transparent" points="398.5,-10 398.5,-30 418.5,-30 418.5,-10 398.5,-10"/>
<text text-anchor="start" x="422.2251" y="-15.4" font-family="sans-serif" font-size="14.00" fill="#000000"> &#160;Module</text>
<polygon fill="#80b1d3" stroke="transparent" points="484.5,-10 484.5,-30 504.5,-30 504.5,-10 484.5,-10"/>
<text text-anchor="start" x="508.2812" y="-15.4" font-family="sans-serif" font-size="14.00" fill="#000000"> &#160;Bootstrap</text>
<polygon fill="#fdb462" stroke="transparent" points="581.5,-10 581.5,-30 601.5,-30 601.5,-10 581.5,-10"/>
<text text-anchor="start" x="605.1732" y="-15.4" font-family="sans-serif" font-size="14.00" fill="#000000"> &#160;Providers</text>
<polygon fill="#fb8072" stroke="transparent" points="677.5,-10 677.5,-30 697.5,-30 697.5,-10 677.5,-10"/>
<text text-anchor="start" x="701.2258" y="-15.4" font-family="sans-serif" font-size="14.00" fill="#000000"> &#160;Exports</text>
<g id="clust1" class="cluster">
<title>cluster_AppModule</title>
<polygon fill="none" stroke="#000000" stroke-dasharray="1,5" points="8,-70 8,-268 1031,-268 1031,-70 8,-70"/>
</g>
<g id="clust2" class="cluster">
<title>cluster_AppModule_declarations</title>
<polygon fill="none" stroke="#000000" points="293,-78 293,-130 1023,-130 1023,-78 293,-78"/>
</g>
<g id="clust8" class="cluster">
<title>cluster_AppModule_imports</title>
<polygon fill="none" stroke="#000000" points="16,-78 16,-130 285,-130 285,-78 16,-78"/>
</g>
<g id="clust10" class="cluster">
<title>cluster_AppModule_bootstrap</title>
<polygon fill="none" stroke="#000000" points="460,-208 460,-260 584,-260 584,-208 460,-208"/>
</g>
<!-- AppComponent -->
<g id="node1" class="node">
<title>AppComponent</title>
<polygon fill="#ffffb3" stroke="#000000" points="1014.9399,-122 909.0601,-122 909.0601,-86 1014.9399,-86 1014.9399,-122"/>
<text text-anchor="middle" x="962" y="-99.8" font-family="Times,serif" font-size="14.00" fill="#000000">AppComponent</text>
</g>
<!-- AppModule -->
<g id="node6" class="node">
<title>AppModule</title>
<polygon fill="#8dd3c7" stroke="#000000" points="563.6571,-187 560.6571,-191 539.6571,-191 536.6571,-187 480.3429,-187 480.3429,-151 563.6571,-151 563.6571,-187"/>
<text text-anchor="middle" x="522" y="-164.8" font-family="Times,serif" font-size="14.00" fill="#000000">AppModule</text>
</g>
<!-- AppComponent&#45;&gt;AppModule -->
<g id="edge1" class="edge">
<title>AppComponent&#45;&gt;AppModule</title>
<path fill="none" stroke="#000000" d="M962,-122.2921C962,-144.2057 962,-178 962,-178 962,-178 573.7908,-178 573.7908,-178"/>
<polygon fill="#000000" stroke="#000000" points="573.7908,-174.5001 563.7908,-178 573.7908,-181.5001 573.7908,-174.5001"/>
</g>
<!-- ContactUsComponent -->
<g id="node2" class="node">
<title>ContactUsComponent</title>
<polygon fill="#ffffb3" stroke="#000000" points="891.4313,-122 750.5687,-122 750.5687,-86 891.4313,-86 891.4313,-122"/>
<text text-anchor="middle" x="821" y="-99.8" font-family="Times,serif" font-size="14.00" fill="#000000">ContactUsComponent</text>
</g>
<!-- ContactUsComponent&#45;&gt;AppModule -->
<g id="edge2" class="edge">
<title>ContactUsComponent&#45;&gt;AppModule</title>
<path fill="none" stroke="#000000" d="M821,-122.1061C821,-141.3391 821,-169 821,-169 821,-169 573.8895,-169 573.8895,-169"/>
<polygon fill="#000000" stroke="#000000" points="573.8895,-165.5001 563.8895,-169 573.8895,-172.5001 573.8895,-165.5001"/>
</g>
<!-- HomeComponent -->
<g id="node3" class="node">
<title>HomeComponent</title>
<polygon fill="#ffffb3" stroke="#000000" points="732.5451,-122 617.4549,-122 617.4549,-86 732.5451,-86 732.5451,-122"/>
<text text-anchor="middle" x="675" y="-99.8" font-family="Times,serif" font-size="14.00" fill="#000000">HomeComponent</text>
</g>
<!-- HomeComponent&#45;&gt;AppModule -->
<g id="edge3" class="edge">
<title>HomeComponent&#45;&gt;AppModule</title>
<path fill="none" stroke="#000000" d="M675,-122.027C675,-138.3976 675,-160 675,-160 675,-160 573.8079,-160 573.8079,-160"/>
<polygon fill="#000000" stroke="#000000" points="573.808,-156.5001 563.8079,-160 573.8079,-163.5001 573.808,-156.5001"/>
</g>
<!-- ImageuploadComponent -->
<g id="node4" class="node">
<title>ImageuploadComponent</title>
<polygon fill="#ffffb3" stroke="#000000" points="599.4186,-122 444.5814,-122 444.5814,-86 599.4186,-86 599.4186,-122"/>
<text text-anchor="middle" x="522" y="-99.8" font-family="Times,serif" font-size="14.00" fill="#000000">ImageuploadComponent</text>
</g>
<!-- ImageuploadComponent&#45;&gt;AppModule -->
<g id="edge4" class="edge">
<title>ImageuploadComponent&#45;&gt;AppModule</title>
<path fill="none" stroke="#000000" d="M522,-122.1061C522,-122.1061 522,-140.991 522,-140.991"/>
<polygon fill="#000000" stroke="#000000" points="518.5001,-140.9909 522,-150.991 525.5001,-140.991 518.5001,-140.9909"/>
</g>
<!-- UtilitiesComponent -->
<g id="node5" class="node">
<title>UtilitiesComponent</title>
<polygon fill="#ffffb3" stroke="#000000" points="427.4426,-122 300.5574,-122 300.5574,-86 427.4426,-86 427.4426,-122"/>
<text text-anchor="middle" x="364" y="-99.8" font-family="Times,serif" font-size="14.00" fill="#000000">UtilitiesComponent</text>
</g>
<!-- UtilitiesComponent&#45;&gt;AppModule -->
<g id="edge5" class="edge">
<title>UtilitiesComponent&#45;&gt;AppModule</title>
<path fill="none" stroke="#000000" d="M364,-122.027C364,-138.3976 364,-160 364,-160 364,-160 470.0737,-160 470.0737,-160"/>
<polygon fill="#000000" stroke="#000000" points="470.0738,-163.5001 480.0737,-160 470.0737,-156.5001 470.0738,-163.5001"/>
</g>
<!-- AppComponent  -->
<g id="node9" class="node">
<title>AppComponent </title>
<polygon fill="#80b1d3" stroke="#000000" points="576.439,-252 467.561,-252 467.561,-216 576.439,-216 576.439,-252"/>
<text text-anchor="middle" x="522" y="-229.8" font-family="Times,serif" font-size="14.00" fill="#000000">AppComponent </text>
</g>
<!-- AppModule&#45;&gt;AppComponent  -->
<g id="edge8" class="edge">
<title>AppModule&#45;&gt;AppComponent </title>
<path fill="none" stroke="#000000" stroke-dasharray="1,5" d="M522,-187.1061C522,-187.1061 522,-205.991 522,-205.991"/>
<polygon fill="#000000" stroke="#000000" points="518.5001,-205.9909 522,-215.991 525.5001,-205.991 518.5001,-205.9909"/>
</g>
<!-- AppRoutingModule -->
<g id="node7" class="node">
<title>AppRoutingModule</title>
<polygon fill="#8dd3c7" stroke="#000000" points="277.2744,-122 274.2744,-126 253.2744,-126 250.2744,-122 148.7256,-122 148.7256,-86 277.2744,-86 277.2744,-122"/>
<text text-anchor="middle" x="213" y="-99.8" font-family="Times,serif" font-size="14.00" fill="#000000">AppRoutingModule</text>
</g>
<!-- AppRoutingModule&#45;&gt;AppModule -->
<g id="edge6" class="edge">
<title>AppRoutingModule&#45;&gt;AppModule</title>
<path fill="none" stroke="#000000" d="M213,-122.1061C213,-141.3391 213,-169 213,-169 213,-169 470.3269,-169 470.3269,-169"/>
<polygon fill="#000000" stroke="#000000" points="470.3269,-172.5001 480.3269,-169 470.3269,-165.5001 470.3269,-172.5001"/>
</g>
<!-- MaterialModule -->
<g id="node8" class="node">
<title>MaterialModule</title>
<polygon fill="#8dd3c7" stroke="#000000" points="130.4706,-122 127.4706,-126 106.4706,-126 103.4706,-122 23.5294,-122 23.5294,-86 130.4706,-86 130.4706,-122"/>
<text text-anchor="middle" x="77" y="-99.8" font-family="Times,serif" font-size="14.00" fill="#000000">MaterialModule</text>
</g>
<!-- MaterialModule&#45;&gt;AppModule -->
<g id="edge7" class="edge">
<title>MaterialModule&#45;&gt;AppModule</title>
<path fill="none" stroke="#000000" d="M77,-122.2921C77,-144.2057 77,-178 77,-178 77,-178 470.1355,-178 470.1355,-178"/>
<polygon fill="#000000" stroke="#000000" points="470.1355,-181.5001 480.1355,-178 470.1354,-174.5001 470.1355,-181.5001"/>
</g>
</g>
</svg>
