<?xml version="1.0" encoding="UTF-8" standalone="no"?>
<!DOCTYPE svg PUBLIC "-//W3C//DTD SVG 1.1//EN"
 "http://www.w3.org/Graphics/SVG/1.1/DTD/svg11.dtd">
<!-- Generated by graphviz version 2.40.1 (20161225.0304)
 -->
<!-- Title: dependencies Pages: 1 -->
<svg width="6071pt" height="290pt"
 viewBox="0.00 0.00 6071.00 290.00" xmlns="http://www.w3.org/2000/svg" xmlns:xlink="http://www.w3.org/1999/xlink">
<g id="graph0" class="graph" transform="scale(1 1) rotate(0) translate(4 286)">
<title>dependencies</title>
<polygon fill="#ffffff" stroke="transparent" points="-4,4 -4,-286 6067,-286 6067,4 -4,4"/>
<text text-anchor="start" x="3010.5091" y="-42.4" font-family="sans-serif" font-weight="bold" font-size="14.00" fill="#000000">Legend</text>
<polygon fill="#ffffb3" stroke="transparent" points="2797.5,-10 2797.5,-30 2817.5,-30 2817.5,-10 2797.5,-10"/>
<text text-anchor="start" x="2821.129" y="-15.4" font-family="sans-serif" font-size="14.00" fill="#000000"> &#160;Declarations</text>
<polygon fill="#8dd3c7" stroke="transparent" points="2910.5,-10 2910.5,-30 2930.5,-30 2930.5,-10 2910.5,-10"/>
<text text-anchor="start" x="2934.2251" y="-15.4" font-family="sans-serif" font-size="14.00" fill="#000000"> &#160;Module</text>
<polygon fill="#80b1d3" stroke="transparent" points="2996.5,-10 2996.5,-30 3016.5,-30 3016.5,-10 2996.5,-10"/>
<text text-anchor="start" x="3020.2812" y="-15.4" font-family="sans-serif" font-size="14.00" fill="#000000"> &#160;Bootstrap</text>
<polygon fill="#fdb462" stroke="transparent" points="3093.5,-10 3093.5,-30 3113.5,-30 3113.5,-10 3093.5,-10"/>
<text text-anchor="start" x="3117.1732" y="-15.4" font-family="sans-serif" font-size="14.00" fill="#000000"> &#160;Providers</text>
<polygon fill="#fb8072" stroke="transparent" points="3189.5,-10 3189.5,-30 3209.5,-30 3209.5,-10 3189.5,-10"/>
<text text-anchor="start" x="3213.2258" y="-15.4" font-family="sans-serif" font-size="14.00" fill="#000000"> &#160;Exports</text>
<g id="clust1" class="cluster">
<title>cluster_AppModule</title>
<polygon fill="none" stroke="#000000" stroke-dasharray="1,5" points="8,-70 8,-274 3210,-274 3210,-70 8,-70"/>
</g>
<g id="clust2" class="cluster">
<title>cluster_AppModule_declarations</title>
<polygon fill="none" stroke="#000000" points="552,-78 552,-130 1606,-130 1606,-78 552,-78"/>
</g>
<g id="clust10" class="cluster">
<title>cluster_AppModule_imports</title>
<polygon fill="none" stroke="#000000" points="1614,-78 1614,-130 3202,-130 3202,-78 1614,-78"/>
</g>
<g id="clust12" class="cluster">
<title>cluster_AppModule_bootstrap</title>
<polygon fill="none" stroke="#000000" points="1706,-214 1706,-266 1830,-266 1830,-214 1706,-214"/>
</g>
<g id="clust13" class="cluster">
<title>cluster_AppModule_providers</title>
<polygon fill="none" stroke="#000000" points="16,-78 16,-130 544,-130 544,-78 16,-78"/>
</g>
<g id="clust14" class="cluster">
<title>cluster_AppRoutingModule</title>
<polygon fill="none" stroke="#000000" stroke-dasharray="1,5" points="3218,-138 3218,-206 3554,-206 3554,-138 3218,-138"/>
</g>
<g id="clust16" class="cluster">
<title>cluster_AppRoutingModule_imports</title>
<polygon fill="none" stroke="#000000" points="3352,-146 3352,-198 3546,-198 3546,-146 3352,-146"/>
</g>
<g id="clust17" class="cluster">
<title>cluster_AppRoutingModule_exports</title>
<polygon fill="none" stroke="#000000" points="3226,-146 3226,-198 3344,-198 3344,-146 3226,-146"/>
</g>
<g id="clust20" class="cluster">
<title>cluster_MaterialModule</title>
<polygon fill="none" stroke="#000000" stroke-dasharray="1,5" points="3562,-138 3562,-206 6055,-206 6055,-138 3562,-138"/>
</g>
<g id="clust22" class="cluster">
<title>cluster_MaterialModule_imports</title>
<polygon fill="none" stroke="#000000" points="5643,-146 5643,-198 6047,-198 6047,-146 5643,-146"/>
</g>
<g id="clust23" class="cluster">
<title>cluster_MaterialModule_exports</title>
<polygon fill="none" stroke="#000000" points="3570,-146 3570,-198 5635,-198 5635,-146 3570,-146"/>
</g>
<!-- AppComponent -->
<g id="node1" class="node">
<title>AppComponent</title>
<polygon fill="#ffffb3" stroke="#000000" points="1425.9399,-122 1320.0601,-122 1320.0601,-86 1425.9399,-86 1425.9399,-122"/>
<text text-anchor="middle" x="1373" y="-99.8" font-family="Times,serif" font-size="14.00" fill="#000000">AppComponent</text>
</g>
<!-- AppModule -->
<g id="node8" class="node">
<title>AppModule</title>
<polygon fill="#8dd3c7" stroke="#000000" points="1809.6571,-190 1806.6571,-194 1785.6571,-194 1782.6571,-190 1726.3429,-190 1726.3429,-154 1809.6571,-154 1809.6571,-190"/>
<text text-anchor="middle" x="1768" y="-167.8" font-family="Times,serif" font-size="14.00" fill="#000000">AppModule</text>
</g>
<!-- AppComponent&#45;&gt;AppModule -->
<g id="edge1" class="edge">
<title>AppComponent&#45;&gt;AppModule</title>
<path fill="none" stroke="#000000" d="M1373,-122.0336C1373,-139.0597 1373,-162 1373,-162 1373,-162 1716.102,-162 1716.102,-162"/>
<polygon fill="#000000" stroke="#000000" points="1716.1021,-165.5001 1726.102,-162 1716.102,-158.5001 1716.1021,-165.5001"/>
</g>
<!-- HomeComponent -->
<g id="node2" class="node">
<title>HomeComponent</title>
<polygon fill="#ffffb3" stroke="#000000" points="1302.5451,-122 1187.4549,-122 1187.4549,-86 1302.5451,-86 1302.5451,-122"/>
<text text-anchor="middle" x="1245" y="-99.8" font-family="Times,serif" font-size="14.00" fill="#000000">HomeComponent</text>
</g>
<!-- HomeComponent&#45;&gt;AppModule -->
<g id="edge2" class="edge">
<title>HomeComponent&#45;&gt;AppModule</title>
<path fill="none" stroke="#000000" d="M1245,-122.2667C1245,-140.5552 1245,-166 1245,-166 1245,-166 1716.0848,-166 1716.0848,-166"/>
<polygon fill="#000000" stroke="#000000" points="1716.0848,-169.5001 1726.0848,-166 1716.0848,-162.5001 1716.0848,-169.5001"/>
</g>
<!-- ImageuploadComponent -->
<g id="node3" class="node">
<title>ImageuploadComponent</title>
<polygon fill="#ffffb3" stroke="#000000" points="1169.4186,-122 1014.5814,-122 1014.5814,-86 1169.4186,-86 1169.4186,-122"/>
<text text-anchor="middle" x="1092" y="-99.8" font-family="Times,serif" font-size="14.00" fill="#000000">ImageuploadComponent</text>
</g>
<!-- ImageuploadComponent&#45;&gt;AppModule -->
<g id="edge3" class="edge">
<title>ImageuploadComponent&#45;&gt;AppModule</title>
<path fill="none" stroke="#000000" d="M1092,-122.0348C1092,-141.5762 1092,-170 1092,-170 1092,-170 1716.2233,-170 1716.2233,-170"/>
<polygon fill="#000000" stroke="#000000" points="1716.2234,-173.5001 1726.2233,-170 1716.2233,-166.5001 1716.2234,-173.5001"/>
</g>
<!-- UtilitiesComponent -->
<g id="node4" class="node">
<title>UtilitiesComponent</title>
<polygon fill="#ffffb3" stroke="#000000" points="997.4426,-122 870.5574,-122 870.5574,-86 997.4426,-86 997.4426,-122"/>
<text text-anchor="middle" x="934" y="-99.8" font-family="Times,serif" font-size="14.00" fill="#000000">UtilitiesComponent</text>
</g>
<!-- UtilitiesComponent&#45;&gt;AppModule -->
<g id="edge4" class="edge">
<title>UtilitiesComponent&#45;&gt;AppModule</title>
<path fill="none" stroke="#000000" d="M934,-122.0267C934,-142.7672 934,-174 934,-174 934,-174 1716.0703,-174 1716.0703,-174"/>
<polygon fill="#000000" stroke="#000000" points="1716.0703,-177.5001 1726.0703,-174 1716.0702,-170.5001 1716.0703,-177.5001"/>
</g>
<!-- ContactUsComponent -->
<g id="node5" class="node">
<title>ContactUsComponent</title>
<polygon fill="#ffffb3" stroke="#000000" points="853.4313,-122 712.5687,-122 712.5687,-86 853.4313,-86 853.4313,-122"/>
<text text-anchor="middle" x="783" y="-99.8" font-family="Times,serif" font-size="14.00" fill="#000000">ContactUsComponent</text>
</g>
<!-- ContactUsComponent&#45;&gt;AppModule -->
<g id="edge5" class="edge">
<title>ContactUsComponent&#45;&gt;AppModule</title>
<path fill="none" stroke="#000000" d="M783,-122.2921C783,-144.2057 783,-178 783,-178 783,-178 1716.3049,-178 1716.3049,-178"/>
<polygon fill="#000000" stroke="#000000" points="1716.305,-181.5001 1726.3049,-178 1716.3049,-174.5001 1716.305,-181.5001"/>
</g>
<!-- FeedbackComponent -->
<g id="node6" class="node">
<title>FeedbackComponent</title>
<polygon fill="#ffffb3" stroke="#000000" points="694.4734,-122 559.5266,-122 559.5266,-86 694.4734,-86 694.4734,-122"/>
<text text-anchor="middle" x="627" y="-99.8" font-family="Times,serif" font-size="14.00" fill="#000000">FeedbackComponent</text>
</g>
<!-- FeedbackComponent&#45;&gt;AppModule -->
<g id="edge6" class="edge">
<title>FeedbackComponent&#45;&gt;AppModule</title>
<path fill="none" stroke="#000000" d="M627,-122.0908C627,-145.1328 627,-182 627,-182 627,-182 1716.038,-182 1716.038,-182"/>
<polygon fill="#000000" stroke="#000000" points="1716.0381,-185.5001 1726.038,-182 1716.038,-178.5001 1716.0381,-185.5001"/>
</g>
<!-- QuoteDialogComponent -->
<g id="node7" class="node">
<title>QuoteDialogComponent</title>
<polygon fill="#ffffb3" stroke="#000000" points="1597.647,-122 1444.353,-122 1444.353,-86 1597.647,-86 1597.647,-122"/>
<text text-anchor="middle" x="1521" y="-99.8" font-family="Times,serif" font-size="14.00" fill="#000000">QuoteDialogComponent</text>
</g>
<!-- QuoteDialogComponent&#45;&gt;AppModule -->
<g id="edge7" class="edge">
<title>QuoteDialogComponent&#45;&gt;AppModule</title>
<path fill="none" stroke="#000000" d="M1521,-122.2819C1521,-137.9478 1521,-158 1521,-158 1521,-158 1716.0998,-158 1716.0998,-158"/>
<polygon fill="#000000" stroke="#000000" points="1716.0999,-161.5001 1726.0998,-158 1716.0998,-154.5001 1716.0999,-161.5001"/>
</g>
<!-- AppComponent  -->
<g id="node19" class="node">
<title>AppComponent </title>
<polygon fill="#80b1d3" stroke="#000000" points="1822.439,-258 1713.561,-258 1713.561,-222 1822.439,-222 1822.439,-258"/>
<text text-anchor="middle" x="1768" y="-235.8" font-family="Times,serif" font-size="14.00" fill="#000000">AppComponent </text>
</g>
<!-- AppModule&#45;&gt;AppComponent  -->
<g id="edge18" class="edge">
<title>AppModule&#45;&gt;AppComponent </title>
<path fill="none" stroke="#000000" stroke-dasharray="1,5" d="M1768,-190.2228C1768,-190.2228 1768,-211.7269 1768,-211.7269"/>
<polygon fill="#000000" stroke="#000000" points="1764.5001,-211.7269 1768,-221.7269 1771.5001,-211.727 1764.5001,-211.7269"/>
</g>
<!-- BrowserModule -->
<g id="node9" class="node">
<title>BrowserModule</title>
<polygon fill="#8dd3c7" stroke="#000000" points="2922.4734,-122 2919.4734,-126 2898.4734,-126 2895.4734,-122 2815.5266,-122 2815.5266,-86 2922.4734,-86 2922.4734,-122"/>
<text text-anchor="middle" x="2869" y="-99.8" font-family="Times,serif" font-size="14.00" fill="#000000">BrowserModule</text>
</g>
<!-- BrowserModule&#45;&gt;AppModule -->
<g id="edge8" class="edge">
<title>BrowserModule&#45;&gt;AppModule</title>
<path fill="none" stroke="#000000" d="M2869,-122.0109C2869,-144.4852 2869,-180 2869,-180 2869,-180 1819.8161,-180 1819.8161,-180"/>
<polygon fill="#000000" stroke="#000000" points="1819.8161,-176.5001 1809.8161,-180 1819.816,-183.5001 1819.8161,-176.5001"/>
</g>
<!-- AppRoutingModule -->
<g id="node10" class="node">
<title>AppRoutingModule</title>
<polygon fill="#8dd3c7" stroke="#000000" points="3069.2744,-122 3066.2744,-126 3045.2744,-126 3042.2744,-122 2940.7256,-122 2940.7256,-86 3069.2744,-86 3069.2744,-122"/>
<text text-anchor="middle" x="3005" y="-99.8" font-family="Times,serif" font-size="14.00" fill="#000000">AppRoutingModule</text>
</g>
<!-- AppRoutingModule&#45;&gt;AppModule -->
<g id="edge9" class="edge">
<title>AppRoutingModule&#45;&gt;AppModule</title>
<path fill="none" stroke="#000000" d="M2972.8065,-122.3228C2972.8065,-145.6602 2972.8065,-183 2972.8065,-183 2972.8065,-183 1819.822,-183 1819.822,-183"/>
<polygon fill="#000000" stroke="#000000" points="1819.8221,-179.5001 1809.822,-183 1819.822,-186.5001 1819.8221,-179.5001"/>
</g>
<!-- RouterModule  -->
<g id="node22" class="node">
<title>RouterModule </title>
<polygon fill="#fb8072" stroke="#000000" points="3335.6523,-190 3234.3477,-190 3234.3477,-154 3335.6523,-154 3335.6523,-190"/>
<text text-anchor="middle" x="3285" y="-167.8" font-family="Times,serif" font-size="14.00" fill="#000000">RouterModule </text>
</g>
<!-- AppRoutingModule&#45;&gt;RouterModule  -->
<g id="edge21" class="edge">
<title>AppRoutingModule&#45;&gt;RouterModule </title>
<path fill="none" stroke="#000000" stroke-dasharray="5,2" d="M3037.1936,-122.2819C3037.1936,-137.9478 3037.1936,-158 3037.1936,-158 3037.1936,-158 3224.2547,-158 3224.2547,-158"/>
<polygon fill="#000000" stroke="#000000" points="3224.2547,-161.5001 3234.2547,-158 3224.2547,-154.5001 3224.2547,-161.5001"/>
</g>
<!-- MaterialModule -->
<g id="node11" class="node">
<title>MaterialModule</title>
<polygon fill="#8dd3c7" stroke="#000000" points="3194.4706,-122 3191.4706,-126 3170.4706,-126 3167.4706,-122 3087.5294,-122 3087.5294,-86 3194.4706,-86 3194.4706,-122"/>
<text text-anchor="middle" x="3141" y="-99.8" font-family="Times,serif" font-size="14.00" fill="#000000">MaterialModule</text>
</g>
<!-- MaterialModule&#45;&gt;AppModule -->
<g id="edge10" class="edge">
<title>MaterialModule&#45;&gt;AppModule</title>
<path fill="none" stroke="#000000" d="M3141,-122.0098C3141,-146.4207 3141,-187 3141,-187 3141,-187 1819.8408,-187 1819.8408,-187"/>
<polygon fill="#000000" stroke="#000000" points="1819.8409,-183.5001 1809.8408,-187 1819.8408,-190.5001 1819.8409,-183.5001"/>
</g>
<!-- MatButtonModule  -->
<g id="node26" class="node">
<title>MatButtonModule </title>
<polygon fill="#fb8072" stroke="#000000" points="3849.7177,-190 3726.2823,-190 3726.2823,-154 3849.7177,-154 3849.7177,-190"/>
<text text-anchor="middle" x="3788" y="-167.8" font-family="Times,serif" font-size="14.00" fill="#000000">MatButtonModule </text>
</g>
<!-- MaterialModule&#45;&gt;MatButtonModule  -->
<g id="edge25" class="edge">
<title>MaterialModule&#45;&gt;MatButtonModule </title>
<path fill="none" stroke="#000000" stroke-dasharray="5,2" d="M3194.4972,-118C3349.5102,-118 3788,-118 3788,-118 3788,-118 3788,-143.7181 3788,-143.7181"/>
<polygon fill="#000000" stroke="#000000" points="3784.5001,-143.718 3788,-153.7181 3791.5001,-143.7181 3784.5001,-143.718"/>
</g>
<!-- MatToolbarModule  -->
<g id="node27" class="node">
<title>MatToolbarModule </title>
<polygon fill="#fb8072" stroke="#000000" points="3707.918,-190 3578.082,-190 3578.082,-154 3707.918,-154 3707.918,-190"/>
<text text-anchor="middle" x="3643" y="-167.8" font-family="Times,serif" font-size="14.00" fill="#000000">MatToolbarModule </text>
</g>
<!-- MaterialModule&#45;&gt;MatToolbarModule  -->
<g id="edge26" class="edge">
<title>MaterialModule&#45;&gt;MatToolbarModule </title>
<path fill="none" stroke="#000000" stroke-dasharray="5,2" d="M3194.7228,-120C3324.2251,-120 3643,-120 3643,-120 3643,-120 3643,-143.8129 3643,-143.8129"/>
<polygon fill="#000000" stroke="#000000" points="3639.5001,-143.8129 3643,-153.8129 3646.5001,-143.813 3639.5001,-143.8129"/>
</g>
<!-- MatCardModule  -->
<g id="node28" class="node">
<title>MatCardModule </title>
<polygon fill="#fb8072" stroke="#000000" points="5627.3116,-190 5514.6884,-190 5514.6884,-154 5627.3116,-154 5627.3116,-190"/>
<text text-anchor="middle" x="5571" y="-167.8" font-family="Times,serif" font-size="14.00" fill="#000000">MatCardModule </text>
</g>
<!-- MaterialModule&#45;&gt;MatCardModule  -->
<g id="edge27" class="edge">
<title>MaterialModule&#45;&gt;MatCardModule </title>
<path fill="none" stroke="#000000" stroke-dasharray="5,2" d="M3194.586,-94C3551.5412,-94 5571,-94 5571,-94 5571,-94 5571,-143.9092 5571,-143.9092"/>
<polygon fill="#000000" stroke="#000000" points="5567.5001,-143.9091 5571,-153.9092 5574.5001,-143.9092 5567.5001,-143.9091"/>
</g>
<!-- MatProgressSpinnerModule  -->
<g id="node29" class="node">
<title>MatProgressSpinnerModule </title>
<polygon fill="#fb8072" stroke="#000000" points="5496.856,-190 5319.144,-190 5319.144,-154 5496.856,-154 5496.856,-190"/>
<text text-anchor="middle" x="5408" y="-167.8" font-family="Times,serif" font-size="14.00" fill="#000000">MatProgressSpinnerModule </text>
</g>
<!-- MaterialModule&#45;&gt;MatProgressSpinnerModule  -->
<g id="edge28" class="edge">
<title>MaterialModule&#45;&gt;MatProgressSpinnerModule </title>
<path fill="none" stroke="#000000" stroke-dasharray="5,2" d="M3194.526,-96C3537.0983,-96 5408,-96 5408,-96 5408,-96 5408,-143.9891 5408,-143.9891"/>
<polygon fill="#000000" stroke="#000000" points="5404.5001,-143.989 5408,-153.9891 5411.5001,-143.9891 5404.5001,-143.989"/>
</g>
<!-- MatInputModule  -->
<g id="node30" class="node">
<title>MatInputModule </title>
<polygon fill="#fb8072" stroke="#000000" points="5301.6509,-190 5186.3491,-190 5186.3491,-154 5301.6509,-154 5301.6509,-190"/>
<text text-anchor="middle" x="5244" y="-167.8" font-family="Times,serif" font-size="14.00" fill="#000000">MatInputModule </text>
</g>
<!-- MaterialModule&#45;&gt;MatInputModule  -->
<g id="edge29" class="edge">
<title>MaterialModule&#45;&gt;MatInputModule </title>
<path fill="none" stroke="#000000" stroke-dasharray="5,2" d="M3194.5659,-98C3522.4081,-98 5244,-98 5244,-98 5244,-98 5244,-143.7079 5244,-143.7079"/>
<polygon fill="#000000" stroke="#000000" points="5240.5001,-143.7078 5244,-153.7079 5247.5001,-143.7079 5240.5001,-143.7078"/>
</g>
<!-- MatListModule  -->
<g id="node31" class="node">
<title>MatListModule </title>
<polygon fill="#fb8072" stroke="#000000" points="5168.8787,-190 5061.1213,-190 5061.1213,-154 5168.8787,-154 5168.8787,-190"/>
<text text-anchor="middle" x="5115" y="-167.8" font-family="Times,serif" font-size="14.00" fill="#000000">MatListModule </text>
</g>
<!-- MaterialModule&#45;&gt;MatListModule  -->
<g id="edge30" class="edge">
<title>MaterialModule&#45;&gt;MatListModule </title>
<path fill="none" stroke="#000000" stroke-dasharray="5,2" d="M3194.5667,-100C3510.3295,-100 5115,-100 5115,-100 5115,-100 5115,-143.8314 5115,-143.8314"/>
<polygon fill="#000000" stroke="#000000" points="5111.5001,-143.8313 5115,-153.8314 5118.5001,-143.8314 5111.5001,-143.8313"/>
</g>
<!-- MatDividerModule  -->
<g id="node32" class="node">
<title>MatDividerModule </title>
<polygon fill="#fb8072" stroke="#000000" points="5043.3631,-190 4914.6369,-190 4914.6369,-154 5043.3631,-154 5043.3631,-190"/>
<text text-anchor="middle" x="4979" y="-167.8" font-family="Times,serif" font-size="14.00" fill="#000000">MatDividerModule </text>
</g>
<!-- MaterialModule&#45;&gt;MatDividerModule  -->
<g id="edge31" class="edge">
<title>MaterialModule&#45;&gt;MatDividerModule </title>
<path fill="none" stroke="#000000" stroke-dasharray="5,2" d="M3194.518,-102C3496.9971,-102 4979,-102 4979,-102 4979,-102 4979,-143.9733 4979,-143.9733"/>
<polygon fill="#000000" stroke="#000000" points="4975.5001,-143.9732 4979,-153.9733 4982.5001,-143.9733 4975.5001,-143.9732"/>
</g>
<!-- MatGridListModule  -->
<g id="node33" class="node">
<title>MatGridListModule </title>
<polygon fill="#fb8072" stroke="#000000" points="4896.5358,-190 4763.4642,-190 4763.4642,-154 4896.5358,-154 4896.5358,-190"/>
<text text-anchor="middle" x="4830" y="-167.8" font-family="Times,serif" font-size="14.00" fill="#000000">MatGridListModule </text>
</g>
<!-- MaterialModule&#45;&gt;MatGridListModule  -->
<g id="edge32" class="edge">
<title>MaterialModule&#45;&gt;MatGridListModule </title>
<path fill="none" stroke="#000000" stroke-dasharray="5,2" d="M3194.8096,-104C3482.9083,-104 4830,-104 4830,-104 4830,-104 4830,-143.7772 4830,-143.7772"/>
<polygon fill="#000000" stroke="#000000" points="4826.5001,-143.7772 4830,-153.7772 4833.5001,-143.7773 4826.5001,-143.7772"/>
</g>
<!-- MatTableModule  -->
<g id="node34" class="node">
<title>MatTableModule </title>
<polygon fill="#fb8072" stroke="#000000" points="4745.973,-190 4628.027,-190 4628.027,-154 4745.973,-154 4745.973,-190"/>
<text text-anchor="middle" x="4687" y="-167.8" font-family="Times,serif" font-size="14.00" fill="#000000">MatTableModule </text>
</g>
<!-- MaterialModule&#45;&gt;MatTableModule  -->
<g id="edge33" class="edge">
<title>MaterialModule&#45;&gt;MatTableModule </title>
<path fill="none" stroke="#000000" stroke-dasharray="5,2" d="M3194.6658,-106C3467.4068,-106 4687,-106 4687,-106 4687,-106 4687,-143.9652 4687,-143.9652"/>
<polygon fill="#000000" stroke="#000000" points="4683.5001,-143.9652 4687,-153.9652 4690.5001,-143.9652 4683.5001,-143.9652"/>
</g>
<!-- BrowserAnimationsModule  -->
<g id="node35" class="node">
<title>BrowserAnimationsModule </title>
<polygon fill="#fb8072" stroke="#000000" points="4609.8017,-190 4434.1983,-190 4434.1983,-154 4609.8017,-154 4609.8017,-190"/>
<text text-anchor="middle" x="4522" y="-167.8" font-family="Times,serif" font-size="14.00" fill="#000000">BrowserAnimationsModule </text>
</g>
<!-- MaterialModule&#45;&gt;BrowserAnimationsModule  -->
<g id="edge34" class="edge">
<title>MaterialModule&#45;&gt;BrowserAnimationsModule </title>
<path fill="none" stroke="#000000" stroke-dasharray="5,2" d="M3194.713,-108C3449.2755,-108 4522,-108 4522,-108 4522,-108 4522,-143.8314 4522,-143.8314"/>
<polygon fill="#000000" stroke="#000000" points="4518.5001,-143.8313 4522,-153.8314 4525.5001,-143.8314 4518.5001,-143.8313"/>
</g>
<!-- MatSelectModule  -->
<g id="node36" class="node">
<title>MatSelectModule </title>
<polygon fill="#fb8072" stroke="#000000" points="4415.8074,-190 4296.1926,-190 4296.1926,-154 4415.8074,-154 4415.8074,-190"/>
<text text-anchor="middle" x="4356" y="-167.8" font-family="Times,serif" font-size="14.00" fill="#000000">MatSelectModule </text>
</g>
<!-- MaterialModule&#45;&gt;MatSelectModule  -->
<g id="edge35" class="edge">
<title>MaterialModule&#45;&gt;MatSelectModule </title>
<path fill="none" stroke="#000000" stroke-dasharray="5,2" d="M3194.7748,-110C3429.9138,-110 4356,-110 4356,-110 4356,-110 4356,-143.7333 4356,-143.7333"/>
<polygon fill="#000000" stroke="#000000" points="4352.5001,-143.7333 4356,-153.7333 4359.5001,-143.7333 4352.5001,-143.7333"/>
</g>
<!-- MatIconModule  -->
<g id="node37" class="node">
<title>MatIconModule </title>
<polygon fill="#fb8072" stroke="#000000" points="4278.4758,-190 4167.5242,-190 4167.5242,-154 4278.4758,-154 4278.4758,-190"/>
<text text-anchor="middle" x="4223" y="-167.8" font-family="Times,serif" font-size="14.00" fill="#000000">MatIconModule </text>
</g>
<!-- MaterialModule&#45;&gt;MatIconModule  -->
<g id="edge36" class="edge">
<title>MaterialModule&#45;&gt;MatIconModule </title>
<path fill="none" stroke="#000000" stroke-dasharray="5,2" d="M3194.6565,-112C3412.9818,-112 4223,-112 4223,-112 4223,-112 4223,-143.998 4223,-143.998"/>
<polygon fill="#000000" stroke="#000000" points="4219.5001,-143.998 4223,-153.998 4226.5001,-143.9981 4219.5001,-143.998"/>
</g>
<!-- MatDialogModule  -->
<g id="node38" class="node">
<title>MatDialogModule </title>
<polygon fill="#fb8072" stroke="#000000" points="4149.7024,-190 4026.2976,-190 4026.2976,-154 4149.7024,-154 4149.7024,-190"/>
<text text-anchor="middle" x="4088" y="-167.8" font-family="Times,serif" font-size="14.00" fill="#000000">MatDialogModule </text>
</g>
<!-- MaterialModule&#45;&gt;MatDialogModule  -->
<g id="edge37" class="edge">
<title>MaterialModule&#45;&gt;MatDialogModule </title>
<path fill="none" stroke="#000000" stroke-dasharray="5,2" d="M3194.6282,-114C3394.96,-114 4088,-114 4088,-114 4088,-114 4088,-143.9664 4088,-143.9664"/>
<polygon fill="#000000" stroke="#000000" points="4084.5001,-143.9663 4088,-153.9664 4091.5001,-143.9664 4084.5001,-143.9663"/>
</g>
<!-- MatSnackBarModule  -->
<g id="node39" class="node">
<title>MatSnackBarModule </title>
<polygon fill="#fb8072" stroke="#000000" points="4008.0232,-190 3867.9768,-190 3867.9768,-154 4008.0232,-154 4008.0232,-190"/>
<text text-anchor="middle" x="3938" y="-167.8" font-family="Times,serif" font-size="14.00" fill="#000000">MatSnackBarModule </text>
</g>
<!-- MaterialModule&#45;&gt;MatSnackBarModule  -->
<g id="edge38" class="edge">
<title>MaterialModule&#45;&gt;MatSnackBarModule </title>
<path fill="none" stroke="#000000" stroke-dasharray="5,2" d="M3194.531,-116C3373.2283,-116 3938,-116 3938,-116 3938,-116 3938,-143.973 3938,-143.973"/>
<polygon fill="#000000" stroke="#000000" points="3934.5001,-143.973 3938,-153.973 3941.5001,-143.973 3934.5001,-143.973"/>
</g>
<!-- BrowserAnimationsModule -->
<g id="node12" class="node">
<title>BrowserAnimationsModule</title>
<polygon fill="#8dd3c7" stroke="#000000" points="2353.3019,-122 2350.3019,-126 2329.3019,-126 2326.3019,-122 2180.6981,-122 2180.6981,-86 2353.3019,-86 2353.3019,-122"/>
<text text-anchor="middle" x="2267" y="-99.8" font-family="Times,serif" font-size="14.00" fill="#000000">BrowserAnimationsModule</text>
</g>
<!-- BrowserAnimationsModule&#45;&gt;AppModule -->
<g id="edge11" class="edge">
<title>BrowserAnimationsModule&#45;&gt;AppModule</title>
<path fill="none" stroke="#000000" d="M2267,-122.1061C2267,-141.3391 2267,-169 2267,-169 2267,-169 1819.6862,-169 1819.6862,-169"/>
<polygon fill="#000000" stroke="#000000" points="1819.6862,-165.5001 1809.6862,-169 1819.6861,-172.5001 1819.6862,-165.5001"/>
</g>
<!-- MatGridListModule -->
<g id="node13" class="node">
<title>MatGridListModule</title>
<polygon fill="#8dd3c7" stroke="#000000" points="2162.5366,-122 2159.5366,-126 2138.5366,-126 2135.5366,-122 2033.4634,-122 2033.4634,-86 2162.5366,-86 2162.5366,-122"/>
<text text-anchor="middle" x="2098" y="-99.8" font-family="Times,serif" font-size="14.00" fill="#000000">MatGridListModule</text>
</g>
<!-- MatGridListModule&#45;&gt;AppModule -->
<g id="edge12" class="edge">
<title>MatGridListModule&#45;&gt;AppModule</title>
<path fill="none" stroke="#000000" d="M2098,-122.302C2098,-140.2699 2098,-165 2098,-165 2098,-165 1819.7947,-165 1819.7947,-165"/>
<polygon fill="#000000" stroke="#000000" points="1819.7948,-161.5001 1809.7947,-165 1819.7947,-168.5001 1819.7948,-161.5001"/>
</g>
<!-- FormsModule -->
<g id="node14" class="node">
<title>FormsModule</title>
<polygon fill="#8dd3c7" stroke="#000000" points="2015.8288,-122 2012.8288,-126 1991.8288,-126 1988.8288,-122 1920.1712,-122 1920.1712,-86 2015.8288,-86 2015.8288,-122"/>
<text text-anchor="middle" x="1968" y="-99.8" font-family="Times,serif" font-size="14.00" fill="#000000">FormsModule</text>
</g>
<!-- FormsModule&#45;&gt;AppModule -->
<g id="edge13" class="edge">
<title>FormsModule&#45;&gt;AppModule</title>
<path fill="none" stroke="#000000" d="M1968,-122.0336C1968,-139.0597 1968,-162 1968,-162 1968,-162 1819.9266,-162 1819.9266,-162"/>
<polygon fill="#000000" stroke="#000000" points="1819.9266,-158.5001 1809.9266,-162 1819.9265,-165.5001 1819.9266,-158.5001"/>
</g>
<!-- HttpClientModule -->
<g id="node15" class="node">
<title>HttpClientModule</title>
<polygon fill="#8dd3c7" stroke="#000000" points="1902.1611,-122 1899.1611,-126 1878.1611,-126 1875.1611,-122 1783.8389,-122 1783.8389,-86 1902.1611,-86 1902.1611,-122"/>
<text text-anchor="middle" x="1843" y="-99.8" font-family="Times,serif" font-size="14.00" fill="#000000">HttpClientModule</text>
</g>
<!-- HttpClientModule&#45;&gt;AppModule -->
<g id="edge14" class="edge">
<title>HttpClientModule&#45;&gt;AppModule</title>
<path fill="none" stroke="#000000" d="M1796.749,-122.2228C1796.749,-122.2228 1796.749,-143.7269 1796.749,-143.7269"/>
<polygon fill="#000000" stroke="#000000" points="1793.249,-143.7269 1796.749,-153.7269 1800.249,-143.727 1793.249,-143.7269"/>
</g>
<!-- ReactiveFormsModule -->
<g id="node16" class="node">
<title>ReactiveFormsModule</title>
<polygon fill="#8dd3c7" stroke="#000000" points="1766.3047,-122 1763.3047,-126 1742.3047,-126 1739.3047,-122 1621.6953,-122 1621.6953,-86 1766.3047,-86 1766.3047,-122"/>
<text text-anchor="middle" x="1694" y="-99.8" font-family="Times,serif" font-size="14.00" fill="#000000">ReactiveFormsModule</text>
</g>
<!-- ReactiveFormsModule&#45;&gt;AppModule -->
<g id="edge15" class="edge">
<title>ReactiveFormsModule&#45;&gt;AppModule</title>
<path fill="none" stroke="#000000" d="M1746.162,-122.2228C1746.162,-122.2228 1746.162,-143.7269 1746.162,-143.7269"/>
<polygon fill="#000000" stroke="#000000" points="1742.6621,-143.7269 1746.162,-153.7269 1749.6621,-143.727 1742.6621,-143.7269"/>
</g>
<!-- AngularFireModule.initializeApp(args) -->
<g id="node17" class="node">
<title>AngularFireModule.initializeApp(args)</title>
<polygon fill="#8dd3c7" stroke="#000000" points="2797.7057,-122 2794.7057,-126 2773.7057,-126 2770.7057,-122 2560.2943,-122 2560.2943,-86 2797.7057,-86 2797.7057,-122"/>
<text text-anchor="middle" x="2679" y="-99.8" font-family="Times,serif" font-size="14.00" fill="#000000">AngularFireModule.initializeApp(args)</text>
</g>
<!-- AngularFireModule.initializeApp(args)&#45;&gt;AppModule -->
<g id="edge16" class="edge">
<title>AngularFireModule.initializeApp(args)&#45;&gt;AppModule</title>
<path fill="none" stroke="#000000" d="M2679,-122.1686C2679,-143.498 2679,-176 2679,-176 2679,-176 1819.8112,-176 1819.8112,-176"/>
<polygon fill="#000000" stroke="#000000" points="1819.8112,-172.5001 1809.8112,-176 1819.8112,-179.5001 1819.8112,-172.5001"/>
</g>
<!-- AngularFireStorageModule -->
<g id="node18" class="node">
<title>AngularFireStorageModule</title>
<polygon fill="#8dd3c7" stroke="#000000" points="2542.2338,-122 2539.2338,-126 2518.2338,-126 2515.2338,-122 2371.7662,-122 2371.7662,-86 2542.2338,-86 2542.2338,-122"/>
<text text-anchor="middle" x="2457" y="-99.8" font-family="Times,serif" font-size="14.00" fill="#000000">AngularFireStorageModule</text>
</g>
<!-- AngularFireStorageModule&#45;&gt;AppModule -->
<g id="edge17" class="edge">
<title>AngularFireStorageModule&#45;&gt;AppModule</title>
<path fill="none" stroke="#000000" d="M2457,-122.2228C2457,-142.3652 2457,-172 2457,-172 2457,-172 1819.8053,-172 1819.8053,-172"/>
<polygon fill="#000000" stroke="#000000" points="1819.8053,-168.5001 1809.8053,-172 1819.8053,-175.5001 1819.8053,-168.5001"/>
</g>
<!-- { provide: LocationStrategy, useClass: HashLocationStrategy } -->
<g id="node20" class="node">
<title>{ provide: LocationStrategy, useClass: HashLocationStrategy }</title>
<ellipse fill="#fdb462" stroke="#000000" cx="280" cy="-104" rx="256.1093" ry="18"/>
<text text-anchor="middle" x="280" y="-99.8" font-family="Times,serif" font-size="14.00" fill="#000000">{ provide: LocationStrategy, useClass: HashLocationStrategy }</text>
</g>
<!-- { provide: LocationStrategy, useClass: HashLocationStrategy }&#45;&gt;AppModule -->
<g id="edge19" class="edge">
<title>{ provide: LocationStrategy, useClass: HashLocationStrategy }&#45;&gt;AppModule</title>
<path fill="none" stroke="#000000" d="M280,-122.1985C280,-146.3563 280,-186 280,-186 280,-186 1716.2575,-186 1716.2575,-186"/>
<polygon fill="#000000" stroke="#000000" points="1716.2575,-189.5001 1726.2575,-186 1716.2575,-182.5001 1716.2575,-189.5001"/>
</g>
<!-- RouterModule.forRoot(args) -->
<g id="node21" class="node">
<title>RouterModule.forRoot(args)</title>
<polygon fill="#8dd3c7" stroke="#000000" points="3537.8419,-190 3534.8419,-194 3513.8419,-194 3510.8419,-190 3360.1581,-190 3360.1581,-154 3537.8419,-154 3537.8419,-190"/>
<text text-anchor="middle" x="3449" y="-167.8" font-family="Times,serif" font-size="14.00" fill="#000000">RouterModule.forRoot(args)</text>
</g>
<!-- RouterModule.forRoot(args)&#45;&gt;AppRoutingModule -->
<g id="edge20" class="edge">
<title>RouterModule.forRoot(args)&#45;&gt;AppRoutingModule</title>
<path fill="none" stroke="#000000" d="M3449,-153.8056C3449,-145.7218 3449,-138 3449,-138 3449,-138 3005,-138 3005,-138 3005,-138 3005,-132.1944 3005,-132.1944"/>
<polygon fill="#000000" stroke="#000000" points="3008.5001,-132.1944 3005,-122.1944 3001.5001,-132.1945 3008.5001,-132.1944"/>
</g>
<!-- CommonModule -->
<g id="node23" class="node">
<title>CommonModule</title>
<polygon fill="#8dd3c7" stroke="#000000" points="5900.6681,-190 5897.6681,-194 5876.6681,-194 5873.6681,-190 5789.3319,-190 5789.3319,-154 5900.6681,-154 5900.6681,-190"/>
<text text-anchor="middle" x="5845" y="-167.8" font-family="Times,serif" font-size="14.00" fill="#000000">CommonModule</text>
</g>
<!-- CommonModule&#45;&gt;MaterialModule -->
<g id="edge22" class="edge">
<title>CommonModule&#45;&gt;MaterialModule</title>
<path fill="none" stroke="#000000" d="M5845,-153.8015C5845,-129.6437 5845,-90 5845,-90 5845,-90 3204.7091,-90 3204.7091,-90"/>
<polygon fill="#000000" stroke="#000000" points="3204.7091,-86.5001 3194.7091,-90 3204.7091,-93.5001 3204.7091,-86.5001"/>
</g>
<!-- MatButtonModule -->
<g id="node24" class="node">
<title>MatButtonModule</title>
<polygon fill="#8dd3c7" stroke="#000000" points="5771.2176,-190 5768.2176,-194 5747.2176,-194 5744.2176,-190 5650.7824,-190 5650.7824,-154 5771.2176,-154 5771.2176,-190"/>
<text text-anchor="middle" x="5711" y="-167.8" font-family="Times,serif" font-size="14.00" fill="#000000">MatButtonModule</text>
</g>
<!-- MatButtonModule&#45;&gt;MaterialModule -->
<g id="edge23" class="edge">
<title>MatButtonModule&#45;&gt;MaterialModule</title>
<path fill="none" stroke="#000000" d="M5711,-153.8468C5711,-130.2434 5711,-92 5711,-92 5711,-92 3204.6781,-92 3204.6781,-92"/>
<polygon fill="#000000" stroke="#000000" points="3204.6781,-88.5001 3194.6781,-92 3204.6781,-95.5001 3204.6781,-88.5001"/>
</g>
<!-- MatDialogModule -->
<g id="node25" class="node">
<title>MatDialogModule</title>
<polygon fill="#8dd3c7" stroke="#000000" points="6039.2022,-190 6036.2022,-194 6015.2022,-194 6012.2022,-190 5918.7978,-190 5918.7978,-154 6039.2022,-154 6039.2022,-190"/>
<text text-anchor="middle" x="5979" y="-167.8" font-family="Times,serif" font-size="14.00" fill="#000000">MatDialogModule</text>
</g>
<!-- MatDialogModule&#45;&gt;MaterialModule -->
<g id="edge24" class="edge">
<title>MatDialogModule&#45;&gt;MaterialModule</title>
<path fill="none" stroke="#000000" d="M5979,-153.7733C5979,-129.0682 5979,-88 5979,-88 5979,-88 3204.5342,-88 3204.5342,-88"/>
<polygon fill="#000000" stroke="#000000" points="3204.5343,-84.5001 3194.5342,-88 3204.5342,-91.5001 3204.5343,-84.5001"/>
</g>
</g>
</svg>
