<?xml version="1.0" encoding="UTF-8" standalone="no"?>
<!DOCTYPE svg PUBLIC "-//W3C//DTD SVG 1.1//EN"
 "http://www.w3.org/Graphics/SVG/1.1/DTD/svg11.dtd">
<!-- Generated by graphviz version 2.40.1 (20161225.0304)
 -->
<!-- Title: dependencies Pages: 1 -->
<svg width="5462pt" height="290pt"
 viewBox="0.00 0.00 5462.00 290.00" xmlns="http://www.w3.org/2000/svg" xmlns:xlink="http://www.w3.org/1999/xlink">
<g id="graph0" class="graph" transform="scale(1 1) rotate(0) translate(4 286)">
<title>dependencies</title>
<polygon fill="#ffffff" stroke="transparent" points="-4,4 -4,-286 5458,-286 5458,4 -4,4"/>
<text text-anchor="start" x="2706.0091" y="-42.4" font-family="sans-serif" font-weight="bold" font-size="14.00" fill="#000000">Legend</text>
<polygon fill="#ffffb3" stroke="transparent" points="2493,-10 2493,-30 2513,-30 2513,-10 2493,-10"/>
<text text-anchor="start" x="2516.629" y="-15.4" font-family="sans-serif" font-size="14.00" fill="#000000"> &#160;Declarations</text>
<polygon fill="#8dd3c7" stroke="transparent" points="2606,-10 2606,-30 2626,-30 2626,-10 2606,-10"/>
<text text-anchor="start" x="2629.7251" y="-15.4" font-family="sans-serif" font-size="14.00" fill="#000000"> &#160;Module</text>
<polygon fill="#80b1d3" stroke="transparent" points="2692,-10 2692,-30 2712,-30 2712,-10 2692,-10"/>
<text text-anchor="start" x="2715.7812" y="-15.4" font-family="sans-serif" font-size="14.00" fill="#000000"> &#160;Bootstrap</text>
<polygon fill="#fdb462" stroke="transparent" points="2789,-10 2789,-30 2809,-30 2809,-10 2789,-10"/>
<text text-anchor="start" x="2812.6732" y="-15.4" font-family="sans-serif" font-size="14.00" fill="#000000"> &#160;Providers</text>
<polygon fill="#fb8072" stroke="transparent" points="2885,-10 2885,-30 2905,-30 2905,-10 2885,-10"/>
<text text-anchor="start" x="2908.7258" y="-15.4" font-family="sans-serif" font-size="14.00" fill="#000000"> &#160;Exports</text>
<g id="clust1" class="cluster">
<title>cluster_AppModule</title>
<polygon fill="none" stroke="#000000" stroke-dasharray="1,5" points="8,-70 8,-274 3039,-274 3039,-70 8,-70"/>
</g>
<g id="clust2" class="cluster">
<title>cluster_AppModule_declarations</title>
<polygon fill="none" stroke="#000000" points="552,-78 552,-130 1434,-130 1434,-78 552,-78"/>
</g>
<g id="clust9" class="cluster">
<title>cluster_AppModule_imports</title>
<polygon fill="none" stroke="#000000" points="1442,-78 1442,-130 3031,-130 3031,-78 1442,-78"/>
</g>
<g id="clust11" class="cluster">
<title>cluster_AppModule_bootstrap</title>
<polygon fill="none" stroke="#000000" points="1697,-214 1697,-266 1821,-266 1821,-214 1697,-214"/>
</g>
<g id="clust12" class="cluster">
<title>cluster_AppModule_providers</title>
<polygon fill="none" stroke="#000000" points="16,-78 16,-130 544,-130 544,-78 16,-78"/>
</g>
<g id="clust13" class="cluster">
<title>cluster_AppRoutingModule</title>
<polygon fill="none" stroke="#000000" stroke-dasharray="1,5" points="3047,-138 3047,-206 3383,-206 3383,-138 3047,-138"/>
</g>
<g id="clust15" class="cluster">
<title>cluster_AppRoutingModule_imports</title>
<polygon fill="none" stroke="#000000" points="3181,-146 3181,-198 3375,-198 3375,-146 3181,-146"/>
</g>
<g id="clust16" class="cluster">
<title>cluster_AppRoutingModule_exports</title>
<polygon fill="none" stroke="#000000" points="3055,-146 3055,-198 3173,-198 3173,-146 3055,-146"/>
</g>
<g id="clust19" class="cluster">
<title>cluster_MaterialModule</title>
<polygon fill="none" stroke="#000000" stroke-dasharray="1,5" points="3391,-138 3391,-206 5446,-206 5446,-138 3391,-138"/>
</g>
<g id="clust21" class="cluster">
<title>cluster_MaterialModule_imports</title>
<polygon fill="none" stroke="#000000" points="5172,-146 5172,-198 5438,-198 5438,-146 5172,-146"/>
</g>
<g id="clust22" class="cluster">
<title>cluster_MaterialModule_exports</title>
<polygon fill="none" stroke="#000000" points="3399,-146 3399,-198 5164,-198 5164,-146 3399,-146"/>
</g>
<!-- AppComponent -->
<g id="node1" class="node">
<title>AppComponent</title>
<polygon fill="#ffffb3" stroke="#000000" points="798.9399,-122 693.0601,-122 693.0601,-86 798.9399,-86 798.9399,-122"/>
<text text-anchor="middle" x="746" y="-99.8" font-family="Times,serif" font-size="14.00" fill="#000000">AppComponent</text>
</g>
<!-- AppModule -->
<g id="node7" class="node">
<title>AppModule</title>
<polygon fill="#8dd3c7" stroke="#000000" points="1800.6571,-190 1797.6571,-194 1776.6571,-194 1773.6571,-190 1717.3429,-190 1717.3429,-154 1800.6571,-154 1800.6571,-190"/>
<text text-anchor="middle" x="1759" y="-167.8" font-family="Times,serif" font-size="14.00" fill="#000000">AppModule</text>
</g>
<!-- AppComponent&#45;&gt;AppModule -->
<g id="edge1" class="edge">
<title>AppComponent&#45;&gt;AppModule</title>
<path fill="none" stroke="#000000" d="M746,-122.2921C746,-144.2057 746,-178 746,-178 746,-178 1707.082,-178 1707.082,-178"/>
<polygon fill="#000000" stroke="#000000" points="1707.0821,-181.5001 1717.082,-178 1707.082,-174.5001 1707.0821,-181.5001"/>
</g>
<!-- HomeComponent -->
<g id="node2" class="node">
<title>HomeComponent</title>
<polygon fill="#ffffb3" stroke="#000000" points="675.5451,-122 560.4549,-122 560.4549,-86 675.5451,-86 675.5451,-122"/>
<text text-anchor="middle" x="618" y="-99.8" font-family="Times,serif" font-size="14.00" fill="#000000">HomeComponent</text>
</g>
<!-- HomeComponent&#45;&gt;AppModule -->
<g id="edge2" class="edge">
<title>HomeComponent&#45;&gt;AppModule</title>
<path fill="none" stroke="#000000" d="M618,-122.0908C618,-145.1328 618,-182 618,-182 618,-182 1707.038,-182 1707.038,-182"/>
<polygon fill="#000000" stroke="#000000" points="1707.0381,-185.5001 1717.038,-182 1707.038,-178.5001 1707.0381,-185.5001"/>
</g>
<!-- ImageuploadComponent -->
<g id="node3" class="node">
<title>ImageuploadComponent</title>
<polygon fill="#ffffb3" stroke="#000000" points="1426.4186,-122 1271.5814,-122 1271.5814,-86 1426.4186,-86 1426.4186,-122"/>
<text text-anchor="middle" x="1349" y="-99.8" font-family="Times,serif" font-size="14.00" fill="#000000">ImageuploadComponent</text>
</g>
<!-- ImageuploadComponent&#45;&gt;AppModule -->
<g id="edge3" class="edge">
<title>ImageuploadComponent&#45;&gt;AppModule</title>
<path fill="none" stroke="#000000" d="M1349,-122.0336C1349,-139.0597 1349,-162 1349,-162 1349,-162 1707.0496,-162 1707.0496,-162"/>
<polygon fill="#000000" stroke="#000000" points="1707.0496,-165.5001 1717.0496,-162 1707.0496,-158.5001 1707.0496,-165.5001"/>
</g>
<!-- UtilitiesComponent -->
<g id="node4" class="node">
<title>UtilitiesComponent</title>
<polygon fill="#ffffb3" stroke="#000000" points="1254.4426,-122 1127.5574,-122 1127.5574,-86 1254.4426,-86 1254.4426,-122"/>
<text text-anchor="middle" x="1191" y="-99.8" font-family="Times,serif" font-size="14.00" fill="#000000">UtilitiesComponent</text>
</g>
<!-- UtilitiesComponent&#45;&gt;AppModule -->
<g id="edge4" class="edge">
<title>UtilitiesComponent&#45;&gt;AppModule</title>
<path fill="none" stroke="#000000" d="M1191,-122.2667C1191,-140.5552 1191,-166 1191,-166 1191,-166 1707.2336,-166 1707.2336,-166"/>
<polygon fill="#000000" stroke="#000000" points="1707.2336,-169.5001 1717.2336,-166 1707.2336,-162.5001 1707.2336,-169.5001"/>
</g>
<!-- ContactUsComponent -->
<g id="node5" class="node">
<title>ContactUsComponent</title>
<polygon fill="#ffffb3" stroke="#000000" points="1110.4313,-122 969.5687,-122 969.5687,-86 1110.4313,-86 1110.4313,-122"/>
<text text-anchor="middle" x="1040" y="-99.8" font-family="Times,serif" font-size="14.00" fill="#000000">ContactUsComponent</text>
</g>
<!-- ContactUsComponent&#45;&gt;AppModule -->
<g id="edge5" class="edge">
<title>ContactUsComponent&#45;&gt;AppModule</title>
<path fill="none" stroke="#000000" d="M1040,-122.0348C1040,-141.5762 1040,-170 1040,-170 1040,-170 1707.2357,-170 1707.2357,-170"/>
<polygon fill="#000000" stroke="#000000" points="1707.2358,-173.5001 1717.2357,-170 1707.2357,-166.5001 1707.2358,-173.5001"/>
</g>
<!-- FeedbackComponent -->
<g id="node6" class="node">
<title>FeedbackComponent</title>
<polygon fill="#ffffb3" stroke="#000000" points="951.4734,-122 816.5266,-122 816.5266,-86 951.4734,-86 951.4734,-122"/>
<text text-anchor="middle" x="884" y="-99.8" font-family="Times,serif" font-size="14.00" fill="#000000">FeedbackComponent</text>
</g>
<!-- FeedbackComponent&#45;&gt;AppModule -->
<g id="edge6" class="edge">
<title>FeedbackComponent&#45;&gt;AppModule</title>
<path fill="none" stroke="#000000" d="M884,-122.0267C884,-142.7672 884,-174 884,-174 884,-174 1707.0917,-174 1707.0917,-174"/>
<polygon fill="#000000" stroke="#000000" points="1707.0918,-177.5001 1717.0917,-174 1707.0917,-170.5001 1707.0918,-177.5001"/>
</g>
<!-- AppComponent  -->
<g id="node18" class="node">
<title>AppComponent </title>
<polygon fill="#80b1d3" stroke="#000000" points="1813.439,-258 1704.561,-258 1704.561,-222 1813.439,-222 1813.439,-258"/>
<text text-anchor="middle" x="1759" y="-235.8" font-family="Times,serif" font-size="14.00" fill="#000000">AppComponent </text>
</g>
<!-- AppModule&#45;&gt;AppComponent  -->
<g id="edge17" class="edge">
<title>AppModule&#45;&gt;AppComponent </title>
<path fill="none" stroke="#000000" stroke-dasharray="1,5" d="M1759,-190.2228C1759,-190.2228 1759,-211.7269 1759,-211.7269"/>
<polygon fill="#000000" stroke="#000000" points="1755.5001,-211.7269 1759,-221.7269 1762.5001,-211.727 1755.5001,-211.7269"/>
</g>
<!-- BrowserModule -->
<g id="node8" class="node">
<title>BrowserModule</title>
<polygon fill="#8dd3c7" stroke="#000000" points="1812.4734,-122 1809.4734,-126 1788.4734,-126 1785.4734,-122 1705.5266,-122 1705.5266,-86 1812.4734,-86 1812.4734,-122"/>
<text text-anchor="middle" x="1759" y="-99.8" font-family="Times,serif" font-size="14.00" fill="#000000">BrowserModule</text>
</g>
<!-- BrowserModule&#45;&gt;AppModule -->
<g id="edge7" class="edge">
<title>BrowserModule&#45;&gt;AppModule</title>
<path fill="none" stroke="#000000" d="M1759,-122.2228C1759,-122.2228 1759,-143.7269 1759,-143.7269"/>
<polygon fill="#000000" stroke="#000000" points="1755.5001,-143.7269 1759,-153.7269 1762.5001,-143.727 1755.5001,-143.7269"/>
</g>
<!-- AppRoutingModule -->
<g id="node9" class="node">
<title>AppRoutingModule</title>
<polygon fill="#8dd3c7" stroke="#000000" points="2898.2744,-122 2895.2744,-126 2874.2744,-126 2871.2744,-122 2769.7256,-122 2769.7256,-86 2898.2744,-86 2898.2744,-122"/>
<text text-anchor="middle" x="2834" y="-99.8" font-family="Times,serif" font-size="14.00" fill="#000000">AppRoutingModule</text>
</g>
<!-- AppRoutingModule&#45;&gt;AppModule -->
<g id="edge8" class="edge">
<title>AppRoutingModule&#45;&gt;AppModule</title>
<path fill="none" stroke="#000000" d="M2801.8065,-122.3228C2801.8065,-145.6602 2801.8065,-183 2801.8065,-183 2801.8065,-183 1810.8462,-183 1810.8462,-183"/>
<polygon fill="#000000" stroke="#000000" points="1810.8463,-179.5001 1800.8462,-183 1810.8462,-186.5001 1810.8463,-179.5001"/>
</g>
<!-- RouterModule  -->
<g id="node21" class="node">
<title>RouterModule </title>
<polygon fill="#fb8072" stroke="#000000" points="3164.6523,-190 3063.3477,-190 3063.3477,-154 3164.6523,-154 3164.6523,-190"/>
<text text-anchor="middle" x="3114" y="-167.8" font-family="Times,serif" font-size="14.00" fill="#000000">RouterModule </text>
</g>
<!-- AppRoutingModule&#45;&gt;RouterModule  -->
<g id="edge20" class="edge">
<title>AppRoutingModule&#45;&gt;RouterModule </title>
<path fill="none" stroke="#000000" stroke-dasharray="5,2" d="M2866.1936,-122.2819C2866.1936,-137.9478 2866.1936,-158 2866.1936,-158 2866.1936,-158 3053.2547,-158 3053.2547,-158"/>
<polygon fill="#000000" stroke="#000000" points="3053.2547,-161.5001 3063.2547,-158 3053.2547,-154.5001 3053.2547,-161.5001"/>
</g>
<!-- MaterialModule -->
<g id="node10" class="node">
<title>MaterialModule</title>
<polygon fill="#8dd3c7" stroke="#000000" points="3023.4706,-122 3020.4706,-126 2999.4706,-126 2996.4706,-122 2916.5294,-122 2916.5294,-86 3023.4706,-86 3023.4706,-122"/>
<text text-anchor="middle" x="2970" y="-99.8" font-family="Times,serif" font-size="14.00" fill="#000000">MaterialModule</text>
</g>
<!-- MaterialModule&#45;&gt;AppModule -->
<g id="edge9" class="edge">
<title>MaterialModule&#45;&gt;AppModule</title>
<path fill="none" stroke="#000000" d="M2970,-122.0098C2970,-146.4207 2970,-187 2970,-187 2970,-187 1810.6854,-187 1810.6854,-187"/>
<polygon fill="#000000" stroke="#000000" points="1810.6854,-183.5001 1800.6854,-187 1810.6853,-190.5001 1810.6854,-183.5001"/>
</g>
<!-- MatButtonModule  -->
<g id="node24" class="node">
<title>MatButtonModule </title>
<polygon fill="#fb8072" stroke="#000000" points="3678.7177,-190 3555.2823,-190 3555.2823,-154 3678.7177,-154 3678.7177,-190"/>
<text text-anchor="middle" x="3617" y="-167.8" font-family="Times,serif" font-size="14.00" fill="#000000">MatButtonModule </text>
</g>
<!-- MaterialModule&#45;&gt;MatButtonModule  -->
<g id="edge23" class="edge">
<title>MaterialModule&#45;&gt;MatButtonModule </title>
<path fill="none" stroke="#000000" stroke-dasharray="5,2" d="M3023.4972,-118C3178.5102,-118 3617,-118 3617,-118 3617,-118 3617,-143.7181 3617,-143.7181"/>
<polygon fill="#000000" stroke="#000000" points="3613.5001,-143.718 3617,-153.7181 3620.5001,-143.7181 3613.5001,-143.718"/>
</g>
<!-- MatToolbarModule  -->
<g id="node25" class="node">
<title>MatToolbarModule </title>
<polygon fill="#fb8072" stroke="#000000" points="3536.918,-190 3407.082,-190 3407.082,-154 3536.918,-154 3536.918,-190"/>
<text text-anchor="middle" x="3472" y="-167.8" font-family="Times,serif" font-size="14.00" fill="#000000">MatToolbarModule </text>
</g>
<!-- MaterialModule&#45;&gt;MatToolbarModule  -->
<g id="edge24" class="edge">
<title>MaterialModule&#45;&gt;MatToolbarModule </title>
<path fill="none" stroke="#000000" stroke-dasharray="5,2" d="M3023.7228,-120C3153.2251,-120 3472,-120 3472,-120 3472,-120 3472,-143.8129 3472,-143.8129"/>
<polygon fill="#000000" stroke="#000000" points="3468.5001,-143.8129 3472,-153.8129 3475.5001,-143.813 3468.5001,-143.8129"/>
</g>
<!-- MatCardModule  -->
<g id="node26" class="node">
<title>MatCardModule </title>
<polygon fill="#fb8072" stroke="#000000" points="5156.3116,-190 5043.6884,-190 5043.6884,-154 5156.3116,-154 5156.3116,-190"/>
<text text-anchor="middle" x="5100" y="-167.8" font-family="Times,serif" font-size="14.00" fill="#000000">MatCardModule </text>
</g>
<!-- MaterialModule&#45;&gt;MatCardModule  -->
<g id="edge25" class="edge">
<title>MaterialModule&#45;&gt;MatCardModule </title>
<path fill="none" stroke="#000000" stroke-dasharray="5,2" d="M3023.7173,-94C3354.4224,-94 5100,-94 5100,-94 5100,-94 5100,-143.9092 5100,-143.9092"/>
<polygon fill="#000000" stroke="#000000" points="5096.5001,-143.9091 5100,-153.9092 5103.5001,-143.9092 5096.5001,-143.9091"/>
</g>
<!-- MatProgressSpinnerModule  -->
<g id="node27" class="node">
<title>MatProgressSpinnerModule </title>
<polygon fill="#fb8072" stroke="#000000" points="5025.856,-190 4848.144,-190 4848.144,-154 5025.856,-154 5025.856,-190"/>
<text text-anchor="middle" x="4937" y="-167.8" font-family="Times,serif" font-size="14.00" fill="#000000">MatProgressSpinnerModule </text>
</g>
<!-- MaterialModule&#45;&gt;MatProgressSpinnerModule  -->
<g id="edge26" class="edge">
<title>MaterialModule&#45;&gt;MatProgressSpinnerModule </title>
<path fill="none" stroke="#000000" stroke-dasharray="5,2" d="M3023.6326,-96C3338.8857,-96 4937,-96 4937,-96 4937,-96 4937,-143.9891 4937,-143.9891"/>
<polygon fill="#000000" stroke="#000000" points="4933.5001,-143.989 4937,-153.9891 4940.5001,-143.9891 4933.5001,-143.989"/>
</g>
<!-- MatInputModule  -->
<g id="node28" class="node">
<title>MatInputModule </title>
<polygon fill="#fb8072" stroke="#000000" points="4830.6509,-190 4715.3491,-190 4715.3491,-154 4830.6509,-154 4830.6509,-190"/>
<text text-anchor="middle" x="4773" y="-167.8" font-family="Times,serif" font-size="14.00" fill="#000000">MatInputModule </text>
</g>
<!-- MaterialModule&#45;&gt;MatInputModule  -->
<g id="edge27" class="edge">
<title>MaterialModule&#45;&gt;MatInputModule </title>
<path fill="none" stroke="#000000" stroke-dasharray="5,2" d="M3023.471,-98C3322.3784,-98 4773,-98 4773,-98 4773,-98 4773,-143.7079 4773,-143.7079"/>
<polygon fill="#000000" stroke="#000000" points="4769.5001,-143.7078 4773,-153.7079 4776.5001,-143.7079 4769.5001,-143.7078"/>
</g>
<!-- MatListModule  -->
<g id="node29" class="node">
<title>MatListModule </title>
<polygon fill="#fb8072" stroke="#000000" points="4697.8787,-190 4590.1213,-190 4590.1213,-154 4697.8787,-154 4697.8787,-190"/>
<text text-anchor="middle" x="4644" y="-167.8" font-family="Times,serif" font-size="14.00" fill="#000000">MatListModule </text>
</g>
<!-- MaterialModule&#45;&gt;MatListModule  -->
<g id="edge28" class="edge">
<title>MaterialModule&#45;&gt;MatListModule </title>
<path fill="none" stroke="#000000" stroke-dasharray="5,2" d="M3023.801,-101C3310.3314,-101 4644,-101 4644,-101 4644,-101 4644,-143.7157 4644,-143.7157"/>
<polygon fill="#000000" stroke="#000000" points="4640.5001,-143.7157 4644,-153.7157 4647.5001,-143.7158 4640.5001,-143.7157"/>
</g>
<!-- MatDividerModule  -->
<g id="node30" class="node">
<title>MatDividerModule </title>
<polygon fill="#fb8072" stroke="#000000" points="4572.3631,-190 4443.6369,-190 4443.6369,-154 4572.3631,-154 4572.3631,-190"/>
<text text-anchor="middle" x="4508" y="-167.8" font-family="Times,serif" font-size="14.00" fill="#000000">MatDividerModule </text>
</g>
<!-- MaterialModule&#45;&gt;MatDividerModule  -->
<g id="edge29" class="edge">
<title>MaterialModule&#45;&gt;MatDividerModule </title>
<path fill="none" stroke="#000000" stroke-dasharray="5,2" d="M3023.8364,-103C3296.0514,-103 4508,-103 4508,-103 4508,-103 4508,-143.8711 4508,-143.8711"/>
<polygon fill="#000000" stroke="#000000" points="4504.5001,-143.871 4508,-153.8711 4511.5001,-143.8711 4504.5001,-143.871"/>
</g>
<!-- MatGridListModule  -->
<g id="node31" class="node">
<title>MatGridListModule </title>
<polygon fill="#fb8072" stroke="#000000" points="4425.5358,-190 4292.4642,-190 4292.4642,-154 4425.5358,-154 4425.5358,-190"/>
<text text-anchor="middle" x="4359" y="-167.8" font-family="Times,serif" font-size="14.00" fill="#000000">MatGridListModule </text>
</g>
<!-- MaterialModule&#45;&gt;MatGridListModule  -->
<g id="edge30" class="edge">
<title>MaterialModule&#45;&gt;MatGridListModule </title>
<path fill="none" stroke="#000000" stroke-dasharray="5,2" d="M3023.5994,-106C3278.8655,-106 4359,-106 4359,-106 4359,-106 4359,-143.9652 4359,-143.9652"/>
<polygon fill="#000000" stroke="#000000" points="4355.5001,-143.9652 4359,-153.9652 4362.5001,-143.9652 4355.5001,-143.9652"/>
</g>
<!-- MatTableModule  -->
<g id="node32" class="node">
<title>MatTableModule </title>
<polygon fill="#fb8072" stroke="#000000" points="4274.973,-190 4157.027,-190 4157.027,-154 4274.973,-154 4274.973,-190"/>
<text text-anchor="middle" x="4216" y="-167.8" font-family="Times,serif" font-size="14.00" fill="#000000">MatTableModule </text>
</g>
<!-- MaterialModule&#45;&gt;MatTableModule  -->
<g id="edge31" class="edge">
<title>MaterialModule&#45;&gt;MatTableModule </title>
<path fill="none" stroke="#000000" stroke-dasharray="5,2" d="M3023.5391,-108C3262.0313,-108 4216,-108 4216,-108 4216,-108 4216,-143.8314 4216,-143.8314"/>
<polygon fill="#000000" stroke="#000000" points="4212.5001,-143.8313 4216,-153.8314 4219.5001,-143.8314 4212.5001,-143.8313"/>
</g>
<!-- BrowserAnimationsModule  -->
<g id="node33" class="node">
<title>BrowserAnimationsModule </title>
<polygon fill="#fb8072" stroke="#000000" points="4138.8017,-190 3963.1983,-190 3963.1983,-154 4138.8017,-154 4138.8017,-190"/>
<text text-anchor="middle" x="4051" y="-167.8" font-family="Times,serif" font-size="14.00" fill="#000000">BrowserAnimationsModule </text>
</g>
<!-- MaterialModule&#45;&gt;BrowserAnimationsModule  -->
<g id="edge32" class="edge">
<title>MaterialModule&#45;&gt;BrowserAnimationsModule </title>
<path fill="none" stroke="#000000" stroke-dasharray="5,2" d="M3023.607,-110C3241.7304,-110 4051,-110 4051,-110 4051,-110 4051,-143.7333 4051,-143.7333"/>
<polygon fill="#000000" stroke="#000000" points="4047.5001,-143.7333 4051,-153.7333 4054.5001,-143.7333 4047.5001,-143.7333"/>
</g>
<!-- MatSelectModule  -->
<g id="node34" class="node">
<title>MatSelectModule </title>
<polygon fill="#fb8072" stroke="#000000" points="3944.8074,-190 3825.1926,-190 3825.1926,-154 3944.8074,-154 3944.8074,-190"/>
<text text-anchor="middle" x="3885" y="-167.8" font-family="Times,serif" font-size="14.00" fill="#000000">MatSelectModule </text>
</g>
<!-- MaterialModule&#45;&gt;MatSelectModule  -->
<g id="edge33" class="edge">
<title>MaterialModule&#45;&gt;MatSelectModule </title>
<path fill="none" stroke="#000000" stroke-dasharray="5,2" d="M3023.4848,-113C3219.1951,-113 3885,-113 3885,-113 3885,-113 3885,-143.9775 3885,-143.9775"/>
<polygon fill="#000000" stroke="#000000" points="3881.5001,-143.9774 3885,-153.9775 3888.5001,-143.9775 3881.5001,-143.9774"/>
</g>
<!-- MatIconModule  -->
<g id="node35" class="node">
<title>MatIconModule </title>
<polygon fill="#fb8072" stroke="#000000" points="3807.4758,-190 3696.5242,-190 3696.5242,-154 3807.4758,-154 3807.4758,-190"/>
<text text-anchor="middle" x="3752" y="-167.8" font-family="Times,serif" font-size="14.00" fill="#000000">MatIconModule </text>
</g>
<!-- MaterialModule&#45;&gt;MatIconModule  -->
<g id="edge34" class="edge">
<title>MaterialModule&#45;&gt;MatIconModule </title>
<path fill="none" stroke="#000000" stroke-dasharray="5,2" d="M3023.75,-115C3200.4261,-115 3752,-115 3752,-115 3752,-115 3752,-143.9648 3752,-143.9648"/>
<polygon fill="#000000" stroke="#000000" points="3748.5001,-143.9648 3752,-153.9648 3755.5001,-143.9649 3748.5001,-143.9648"/>
</g>
<!-- BrowserAnimationsModule -->
<g id="node11" class="node">
<title>BrowserAnimationsModule</title>
<polygon fill="#8dd3c7" stroke="#000000" points="2562.3019,-122 2559.3019,-126 2538.3019,-126 2535.3019,-122 2389.6981,-122 2389.6981,-86 2562.3019,-86 2562.3019,-122"/>
<text text-anchor="middle" x="2476" y="-99.8" font-family="Times,serif" font-size="14.00" fill="#000000">BrowserAnimationsModule</text>
</g>
<!-- BrowserAnimationsModule&#45;&gt;AppModule -->
<g id="edge10" class="edge">
<title>BrowserAnimationsModule&#45;&gt;AppModule</title>
<path fill="none" stroke="#000000" d="M2476,-122.1686C2476,-143.498 2476,-176 2476,-176 2476,-176 1810.9111,-176 1810.9111,-176"/>
<polygon fill="#000000" stroke="#000000" points="1810.9111,-172.5001 1800.9111,-176 1810.911,-179.5001 1810.9111,-172.5001"/>
</g>
<!-- MatGridListModule -->
<g id="node12" class="node">
<title>MatGridListModule</title>
<polygon fill="#8dd3c7" stroke="#000000" points="2371.5366,-122 2368.5366,-126 2347.5366,-126 2344.5366,-122 2242.4634,-122 2242.4634,-86 2371.5366,-86 2371.5366,-122"/>
<text text-anchor="middle" x="2307" y="-99.8" font-family="Times,serif" font-size="14.00" fill="#000000">MatGridListModule</text>
</g>
<!-- MatGridListModule&#45;&gt;AppModule -->
<g id="edge11" class="edge">
<title>MatGridListModule&#45;&gt;AppModule</title>
<path fill="none" stroke="#000000" d="M2307,-122.2228C2307,-142.3652 2307,-172 2307,-172 2307,-172 1811.0907,-172 1811.0907,-172"/>
<polygon fill="#000000" stroke="#000000" points="1811.0907,-168.5001 1801.0907,-172 1811.0907,-175.5001 1811.0907,-168.5001"/>
</g>
<!-- FormsModule -->
<g id="node13" class="node">
<title>FormsModule</title>
<polygon fill="#8dd3c7" stroke="#000000" points="2224.8288,-122 2221.8288,-126 2200.8288,-126 2197.8288,-122 2129.1712,-122 2129.1712,-86 2224.8288,-86 2224.8288,-122"/>
<text text-anchor="middle" x="2177" y="-99.8" font-family="Times,serif" font-size="14.00" fill="#000000">FormsModule</text>
</g>
<!-- FormsModule&#45;&gt;AppModule -->
<g id="edge12" class="edge">
<title>FormsModule&#45;&gt;AppModule</title>
<path fill="none" stroke="#000000" d="M2177,-122.1061C2177,-141.3391 2177,-169 2177,-169 2177,-169 1810.9933,-169 1810.9933,-169"/>
<polygon fill="#000000" stroke="#000000" points="1810.9933,-165.5001 1800.9933,-169 1810.9932,-172.5001 1810.9933,-165.5001"/>
</g>
<!-- HttpClientModule -->
<g id="node14" class="node">
<title>HttpClientModule</title>
<polygon fill="#8dd3c7" stroke="#000000" points="2111.1611,-122 2108.1611,-126 2087.1611,-126 2084.1611,-122 1992.8389,-122 1992.8389,-86 2111.1611,-86 2111.1611,-122"/>
<text text-anchor="middle" x="2052" y="-99.8" font-family="Times,serif" font-size="14.00" fill="#000000">HttpClientModule</text>
</g>
<!-- HttpClientModule&#45;&gt;AppModule -->
<g id="edge13" class="edge">
<title>HttpClientModule&#45;&gt;AppModule</title>
<path fill="none" stroke="#000000" d="M2052,-122.302C2052,-140.2699 2052,-165 2052,-165 2052,-165 1810.6686,-165 1810.6686,-165"/>
<polygon fill="#000000" stroke="#000000" points="1810.6686,-161.5001 1800.6686,-165 1810.6686,-168.5001 1810.6686,-161.5001"/>
</g>
<!-- ReactiveFormsModule -->
<g id="node15" class="node">
<title>ReactiveFormsModule</title>
<polygon fill="#8dd3c7" stroke="#000000" points="1975.3047,-122 1972.3047,-126 1951.3047,-126 1948.3047,-122 1830.6953,-122 1830.6953,-86 1975.3047,-86 1975.3047,-122"/>
<text text-anchor="middle" x="1903" y="-99.8" font-family="Times,serif" font-size="14.00" fill="#000000">ReactiveFormsModule</text>
</g>
<!-- ReactiveFormsModule&#45;&gt;AppModule -->
<g id="edge14" class="edge">
<title>ReactiveFormsModule&#45;&gt;AppModule</title>
<path fill="none" stroke="#000000" d="M1903,-122.0336C1903,-139.0597 1903,-162 1903,-162 1903,-162 1811.0379,-162 1811.0379,-162"/>
<polygon fill="#000000" stroke="#000000" points="1811.0379,-158.5001 1801.0379,-162 1811.0378,-165.5001 1811.0379,-158.5001"/>
</g>
<!-- AngularFireModule.initializeApp(args) -->
<g id="node16" class="node">
<title>AngularFireModule.initializeApp(args)</title>
<polygon fill="#8dd3c7" stroke="#000000" points="1687.7057,-122 1684.7057,-126 1663.7057,-126 1660.7057,-122 1450.2943,-122 1450.2943,-86 1687.7057,-86 1687.7057,-122"/>
<text text-anchor="middle" x="1569" y="-99.8" font-family="Times,serif" font-size="14.00" fill="#000000">AngularFireModule.initializeApp(args)</text>
</g>
<!-- AngularFireModule.initializeApp(args)&#45;&gt;AppModule -->
<g id="edge15" class="edge">
<title>AngularFireModule.initializeApp(args)&#45;&gt;AppModule</title>
<path fill="none" stroke="#000000" d="M1569,-122.2819C1569,-137.9478 1569,-158 1569,-158 1569,-158 1707.3037,-158 1707.3037,-158"/>
<polygon fill="#000000" stroke="#000000" points="1707.3037,-161.5001 1717.3037,-158 1707.3037,-154.5001 1707.3037,-161.5001"/>
</g>
<!-- AngularFireStorageModule -->
<g id="node17" class="node">
<title>AngularFireStorageModule</title>
<polygon fill="#8dd3c7" stroke="#000000" points="2751.2338,-122 2748.2338,-126 2727.2338,-126 2724.2338,-122 2580.7662,-122 2580.7662,-86 2751.2338,-86 2751.2338,-122"/>
<text text-anchor="middle" x="2666" y="-99.8" font-family="Times,serif" font-size="14.00" fill="#000000">AngularFireStorageModule</text>
</g>
<!-- AngularFireStorageModule&#45;&gt;AppModule -->
<g id="edge16" class="edge">
<title>AngularFireStorageModule&#45;&gt;AppModule</title>
<path fill="none" stroke="#000000" d="M2666,-122.0109C2666,-144.4852 2666,-180 2666,-180 2666,-180 1810.9274,-180 1810.9274,-180"/>
<polygon fill="#000000" stroke="#000000" points="1810.9275,-176.5001 1800.9274,-180 1810.9274,-183.5001 1810.9275,-176.5001"/>
</g>
<!-- { provide: LocationStrategy, useClass: HashLocationStrategy } -->
<g id="node19" class="node">
<title>{ provide: LocationStrategy, useClass: HashLocationStrategy }</title>
<ellipse fill="#fdb462" stroke="#000000" cx="280" cy="-104" rx="256.1093" ry="18"/>
<text text-anchor="middle" x="280" y="-99.8" font-family="Times,serif" font-size="14.00" fill="#000000">{ provide: LocationStrategy, useClass: HashLocationStrategy }</text>
</g>
<!-- { provide: LocationStrategy, useClass: HashLocationStrategy }&#45;&gt;AppModule -->
<g id="edge18" class="edge">
<title>{ provide: LocationStrategy, useClass: HashLocationStrategy }&#45;&gt;AppModule</title>
<path fill="none" stroke="#000000" d="M280,-122.1985C280,-146.3563 280,-186 280,-186 280,-186 1707.1188,-186 1707.1188,-186"/>
<polygon fill="#000000" stroke="#000000" points="1707.1189,-189.5001 1717.1188,-186 1707.1188,-182.5001 1707.1189,-189.5001"/>
</g>
<!-- RouterModule.forRoot(args) -->
<g id="node20" class="node">
<title>RouterModule.forRoot(args)</title>
<polygon fill="#8dd3c7" stroke="#000000" points="3366.8419,-190 3363.8419,-194 3342.8419,-194 3339.8419,-190 3189.1581,-190 3189.1581,-154 3366.8419,-154 3366.8419,-190"/>
<text text-anchor="middle" x="3278" y="-167.8" font-family="Times,serif" font-size="14.00" fill="#000000">RouterModule.forRoot(args)</text>
</g>
<!-- RouterModule.forRoot(args)&#45;&gt;AppRoutingModule -->
<g id="edge19" class="edge">
<title>RouterModule.forRoot(args)&#45;&gt;AppRoutingModule</title>
<path fill="none" stroke="#000000" d="M3278,-153.8056C3278,-145.7218 3278,-138 3278,-138 3278,-138 2834,-138 2834,-138 2834,-138 2834,-132.1944 2834,-132.1944"/>
<polygon fill="#000000" stroke="#000000" points="2837.5001,-132.1944 2834,-122.1944 2830.5001,-132.1945 2837.5001,-132.1944"/>
</g>
<!-- CommonModule -->
<g id="node22" class="node">
<title>CommonModule</title>
<polygon fill="#8dd3c7" stroke="#000000" points="5429.6681,-190 5426.6681,-194 5405.6681,-194 5402.6681,-190 5318.3319,-190 5318.3319,-154 5429.6681,-154 5429.6681,-190"/>
<text text-anchor="middle" x="5374" y="-167.8" font-family="Times,serif" font-size="14.00" fill="#000000">CommonModule</text>
</g>
<!-- CommonModule&#45;&gt;MaterialModule -->
<g id="edge21" class="edge">
<title>CommonModule&#45;&gt;MaterialModule</title>
<path fill="none" stroke="#000000" d="M5374,-153.9902C5374,-129.5793 5374,-89 5374,-89 5374,-89 3033.5815,-89 3033.5815,-89"/>
<polygon fill="#000000" stroke="#000000" points="3033.5816,-85.5001 3023.5815,-89 3033.5815,-92.5001 3033.5816,-85.5001"/>
</g>
<!-- MatButtonModule -->
<g id="node23" class="node">
<title>MatButtonModule</title>
<polygon fill="#8dd3c7" stroke="#000000" points="5300.2176,-190 5297.2176,-194 5276.2176,-194 5273.2176,-190 5179.7824,-190 5179.7824,-154 5300.2176,-154 5300.2176,-190"/>
<text text-anchor="middle" x="5240" y="-167.8" font-family="Times,serif" font-size="14.00" fill="#000000">MatButtonModule</text>
</g>
<!-- MatButtonModule&#45;&gt;MaterialModule -->
<g id="edge22" class="edge">
<title>MatButtonModule&#45;&gt;MaterialModule</title>
<path fill="none" stroke="#000000" d="M5240,-153.6198C5240,-129.7215 5240,-91 5240,-91 5240,-91 3033.5968,-91 3033.5968,-91"/>
<polygon fill="#000000" stroke="#000000" points="3033.5969,-87.5001 3023.5968,-91 3033.5968,-94.5001 3033.5969,-87.5001"/>
</g>
</g>
</svg>
