<?xml version="1.0" encoding="UTF-8" standalone="no"?>
<!DOCTYPE svg PUBLIC "-//W3C//DTD SVG 1.1//EN"
 "http://www.w3.org/Graphics/SVG/1.1/DTD/svg11.dtd">
<!-- Generated by graphviz version 2.40.1 (20161225.0304)
 -->
<!-- Title: dependencies Pages: 1 -->
<svg width="1253pt" height="284pt"
 viewBox="0.00 0.00 1253.00 284.00" xmlns="http://www.w3.org/2000/svg" xmlns:xlink="http://www.w3.org/1999/xlink">
<g id="graph0" class="graph" transform="scale(1 1) rotate(0) translate(4 280)">
<title>dependencies</title>
<polygon fill="#ffffff" stroke="transparent" points="-4,4 -4,-280 1249,-280 1249,4 -4,4"/>
<text text-anchor="start" x="601.5091" y="-42.4" font-family="sans-serif" font-weight="bold" font-size="14.00" fill="#000000">Legend</text>
<polygon fill="#ffffb3" stroke="transparent" points="388.5,-10 388.5,-30 408.5,-30 408.5,-10 388.5,-10"/>
<text text-anchor="start" x="412.129" y="-15.4" font-family="sans-serif" font-size="14.00" fill="#000000"> &#160;Declarations</text>
<polygon fill="#8dd3c7" stroke="transparent" points="501.5,-10 501.5,-30 521.5,-30 521.5,-10 501.5,-10"/>
<text text-anchor="start" x="525.2251" y="-15.4" font-family="sans-serif" font-size="14.00" fill="#000000"> &#160;Module</text>
<polygon fill="#80b1d3" stroke="transparent" points="587.5,-10 587.5,-30 607.5,-30 607.5,-10 587.5,-10"/>
<text text-anchor="start" x="611.2812" y="-15.4" font-family="sans-serif" font-size="14.00" fill="#000000"> &#160;Bootstrap</text>
<polygon fill="#fdb462" stroke="transparent" points="684.5,-10 684.5,-30 704.5,-30 704.5,-10 684.5,-10"/>
<text text-anchor="start" x="708.1732" y="-15.4" font-family="sans-serif" font-size="14.00" fill="#000000"> &#160;Providers</text>
<polygon fill="#fb8072" stroke="transparent" points="780.5,-10 780.5,-30 800.5,-30 800.5,-10 780.5,-10"/>
<text text-anchor="start" x="804.2258" y="-15.4" font-family="sans-serif" font-size="14.00" fill="#000000"> &#160;Exports</text>
<g id="clust1" class="cluster">
<title>cluster_AppModule</title>
<polygon fill="none" stroke="#000000" stroke-dasharray="1,5" points="8,-70 8,-268 1237,-268 1237,-70 8,-70"/>
</g>
<g id="clust2" class="cluster">
<title>cluster_AppModule_declarations</title>
<polygon fill="none" stroke="#000000" points="365,-78 365,-130 1229,-130 1229,-78 365,-78"/>
</g>
<g id="clust9" class="cluster">
<title>cluster_AppModule_imports</title>
<polygon fill="none" stroke="#000000" points="16,-78 16,-130 357,-130 357,-78 16,-78"/>
</g>
<g id="clust11" class="cluster">
<title>cluster_AppModule_bootstrap</title>
<polygon fill="none" stroke="#000000" points="558,-208 558,-260 682,-260 682,-208 558,-208"/>
</g>
<!-- AppComponent -->
<g id="node1" class="node">
<title>AppComponent</title>
<polygon fill="#ffffb3" stroke="#000000" points="1220.9399,-122 1115.0601,-122 1115.0601,-86 1220.9399,-86 1220.9399,-122"/>
<text text-anchor="middle" x="1168" y="-99.8" font-family="Times,serif" font-size="14.00" fill="#000000">AppComponent</text>
</g>
<!-- AppModule -->
<g id="node7" class="node">
<title>AppModule</title>
<polygon fill="#8dd3c7" stroke="#000000" points="661.6571,-187 658.6571,-191 637.6571,-191 634.6571,-187 578.3429,-187 578.3429,-151 661.6571,-151 661.6571,-187"/>
<text text-anchor="middle" x="620" y="-164.8" font-family="Times,serif" font-size="14.00" fill="#000000">AppModule</text>
</g>
<!-- AppComponent&#45;&gt;AppModule -->
<g id="edge1" class="edge">
<title>AppComponent&#45;&gt;AppModule</title>
<path fill="none" stroke="#000000" d="M1168,-122.0109C1168,-144.4852 1168,-180 1168,-180 1168,-180 672.0907,-180 672.0907,-180"/>
<polygon fill="#000000" stroke="#000000" points="672.0907,-176.5001 662.0907,-180 672.0907,-183.5001 672.0907,-176.5001"/>
</g>
<!-- DashComponent -->
<g id="node2" class="node">
<title>DashComponent</title>
<polygon fill="#ffffb3" stroke="#000000" points="1097.0982,-122 986.9018,-122 986.9018,-86 1097.0982,-86 1097.0982,-122"/>
<text text-anchor="middle" x="1042" y="-99.8" font-family="Times,serif" font-size="14.00" fill="#000000">DashComponent</text>
</g>
<!-- DashComponent&#45;&gt;AppModule -->
<g id="edge2" class="edge">
<title>DashComponent&#45;&gt;AppModule</title>
<path fill="none" stroke="#000000" d="M1042,-122.1289C1042,-142.5724 1042,-173 1042,-173 1042,-173 672.0058,-173 672.0058,-173"/>
<polygon fill="#000000" stroke="#000000" points="672.0058,-169.5001 662.0058,-173 672.0057,-176.5001 672.0058,-169.5001"/>
</g>
<!-- HomeComponent -->
<g id="node3" class="node">
<title>HomeComponent</title>
<polygon fill="#ffffb3" stroke="#000000" points="968.5451,-122 853.4549,-122 853.4549,-86 968.5451,-86 968.5451,-122"/>
<text text-anchor="middle" x="911" y="-99.8" font-family="Times,serif" font-size="14.00" fill="#000000">HomeComponent</text>
</g>
<!-- HomeComponent&#45;&gt;AppModule -->
<g id="edge3" class="edge">
<title>HomeComponent&#45;&gt;AppModule</title>
<path fill="none" stroke="#000000" d="M911,-122.2667C911,-140.5552 911,-166 911,-166 911,-166 671.6932,-166 671.6932,-166"/>
<polygon fill="#000000" stroke="#000000" points="671.6932,-162.5001 661.6932,-166 671.6932,-169.5001 671.6932,-162.5001"/>
</g>
<!-- LoginComponent -->
<g id="node4" class="node">
<title>LoginComponent</title>
<polygon fill="#ffffb3" stroke="#000000" points="835.2758,-122 720.7242,-122 720.7242,-86 835.2758,-86 835.2758,-122"/>
<text text-anchor="middle" x="778" y="-99.8" font-family="Times,serif" font-size="14.00" fill="#000000">LoginComponent</text>
</g>
<!-- LoginComponent&#45;&gt;AppModule -->
<g id="edge4" class="edge">
<title>LoginComponent&#45;&gt;AppModule</title>
<path fill="none" stroke="#000000" d="M778,-122.0091C778,-138.0494 778,-159 778,-159 778,-159 671.9263,-159 671.9263,-159"/>
<polygon fill="#000000" stroke="#000000" points="671.9263,-155.5001 661.9263,-159 671.9262,-162.5001 671.9263,-155.5001"/>
</g>
<!-- PageNotFoundComponent -->
<g id="node5" class="node">
<title>PageNotFoundComponent</title>
<polygon fill="#ffffb3" stroke="#000000" points="702.8243,-122 537.1757,-122 537.1757,-86 702.8243,-86 702.8243,-122"/>
<text text-anchor="middle" x="620" y="-99.8" font-family="Times,serif" font-size="14.00" fill="#000000">PageNotFoundComponent</text>
</g>
<!-- PageNotFoundComponent&#45;&gt;AppModule -->
<g id="edge5" class="edge">
<title>PageNotFoundComponent&#45;&gt;AppModule</title>
<path fill="none" stroke="#000000" d="M620,-122.1061C620,-122.1061 620,-140.991 620,-140.991"/>
<polygon fill="#000000" stroke="#000000" points="616.5001,-140.9909 620,-150.991 623.5001,-140.991 616.5001,-140.9909"/>
</g>
<!-- UserProfileComponent -->
<g id="node6" class="node">
<title>UserProfileComponent</title>
<polygon fill="#ffffb3" stroke="#000000" points="518.8585,-122 373.1415,-122 373.1415,-86 518.8585,-86 518.8585,-122"/>
<text text-anchor="middle" x="446" y="-99.8" font-family="Times,serif" font-size="14.00" fill="#000000">UserProfileComponent</text>
</g>
<!-- UserProfileComponent&#45;&gt;AppModule -->
<g id="edge6" class="edge">
<title>UserProfileComponent&#45;&gt;AppModule</title>
<path fill="none" stroke="#000000" d="M446,-122.0091C446,-138.0494 446,-159 446,-159 446,-159 568.3227,-159 568.3227,-159"/>
<polygon fill="#000000" stroke="#000000" points="568.3227,-162.5001 578.3227,-159 568.3226,-155.5001 568.3227,-162.5001"/>
</g>
<!-- AppComponent  -->
<g id="node11" class="node">
<title>AppComponent </title>
<polygon fill="#80b1d3" stroke="#000000" points="674.439,-252 565.561,-252 565.561,-216 674.439,-216 674.439,-252"/>
<text text-anchor="middle" x="620" y="-229.8" font-family="Times,serif" font-size="14.00" fill="#000000">AppComponent </text>
</g>
<!-- AppModule&#45;&gt;AppComponent  -->
<g id="edge10" class="edge">
<title>AppModule&#45;&gt;AppComponent </title>
<path fill="none" stroke="#000000" stroke-dasharray="1,5" d="M620,-187.1061C620,-187.1061 620,-205.991 620,-205.991"/>
<polygon fill="#000000" stroke="#000000" points="616.5001,-205.9909 620,-215.991 623.5001,-205.991 616.5001,-205.9909"/>
</g>
<!-- AppRoutingModule -->
<g id="node8" class="node">
<title>AppRoutingModule</title>
<polygon fill="#8dd3c7" stroke="#000000" points="349.2744,-122 346.2744,-126 325.2744,-126 322.2744,-122 220.7256,-122 220.7256,-86 349.2744,-86 349.2744,-122"/>
<text text-anchor="middle" x="285" y="-99.8" font-family="Times,serif" font-size="14.00" fill="#000000">AppRoutingModule</text>
</g>
<!-- AppRoutingModule&#45;&gt;AppModule -->
<g id="edge7" class="edge">
<title>AppRoutingModule&#45;&gt;AppModule</title>
<path fill="none" stroke="#000000" d="M285,-122.2667C285,-140.5552 285,-166 285,-166 285,-166 568.2494,-166 568.2494,-166"/>
<polygon fill="#000000" stroke="#000000" points="568.2494,-169.5001 578.2494,-166 568.2493,-162.5001 568.2494,-169.5001"/>
</g>
<!-- CoreModule -->
<g id="node9" class="node">
<title>CoreModule</title>
<polygon fill="#8dd3c7" stroke="#000000" points="202.2619,-122 199.2619,-126 178.2619,-126 175.2619,-122 115.7381,-122 115.7381,-86 202.2619,-86 202.2619,-122"/>
<text text-anchor="middle" x="159" y="-99.8" font-family="Times,serif" font-size="14.00" fill="#000000">CoreModule</text>
</g>
<!-- CoreModule&#45;&gt;AppModule -->
<g id="edge8" class="edge">
<title>CoreModule&#45;&gt;AppModule</title>
<path fill="none" stroke="#000000" d="M159,-122.1289C159,-142.5724 159,-173 159,-173 159,-173 568.2763,-173 568.2763,-173"/>
<polygon fill="#000000" stroke="#000000" points="568.2763,-176.5001 578.2763,-173 568.2762,-169.5001 568.2763,-176.5001"/>
</g>
<!-- UiModule -->
<g id="node10" class="node">
<title>UiModule</title>
<polygon fill="#8dd3c7" stroke="#000000" points="97.5484,-122 94.5484,-126 73.5484,-126 70.5484,-122 24.4516,-122 24.4516,-86 97.5484,-86 97.5484,-122"/>
<text text-anchor="middle" x="61" y="-99.8" font-family="Times,serif" font-size="14.00" fill="#000000">UiModule</text>
</g>
<!-- UiModule&#45;&gt;AppModule -->
<g id="edge9" class="edge">
<title>UiModule&#45;&gt;AppModule</title>
<path fill="none" stroke="#000000" d="M61,-122.0109C61,-144.4852 61,-180 61,-180 61,-180 567.9841,-180 567.9841,-180"/>
<polygon fill="#000000" stroke="#000000" points="567.9842,-183.5001 577.9841,-180 567.9841,-176.5001 567.9842,-183.5001"/>
</g>
</g>
</svg>
