<svg height="512pt" viewBox="-68 0 512 512.00002" width="512pt" xmlns="http://www.w3.org/2000/svg"><path d="m349.867188 34.132812h-51.199219v-25.597656c0-4.714844-3.820313-8.535156-8.535157-8.535156-4.710937 0-8.53125 3.820312-8.53125 8.535156v25.597656h-85.335937v-25.597656c0-4.714844-3.820313-8.535156-8.53125-8.535156-4.714844 0-8.535156 3.820312-8.535156 8.535156v25.597656h-85.332031v-25.597656c0-4.714844-3.820313-8.535156-8.535157-8.535156-4.710937 0-8.53125 3.820312-8.53125 8.535156v25.597656h-51.199219c-14.140624 0-25.601562 11.460938-25.601562 25.601563v426.664063c0 14.140624 11.460938 25.601562 25.601562 25.601562h324.265626c14.136718 0 25.601562-11.460938 25.601562-25.601562v-426.664063c0-14.140625-11.464844-25.601563-25.601562-25.601563zm-324.265626 17.066407h51.199219v18.277343c-18.253906 4.714844-29.230469 23.332032-24.515625 41.585938 4.710938 18.25 23.328125 29.226562 41.582032 24.515625 18.253906-4.714844 29.226562-23.332031 24.515624-41.582031-3.105468-12.023438-12.492187-21.414063-24.515624-24.519532v-18.277343h85.332031v18.277343c-18.253907 4.714844-29.226563 23.332032-24.515625 41.585938 4.714844 18.25 23.332031 29.226562 41.582031 24.515625 18.253906-4.714844 29.230469-23.332031 24.515625-41.582031-3.101562-12.023438-12.492188-21.414063-24.515625-24.519532v-18.277343h85.335937v18.277343c-18.253906 4.714844-29.230468 23.332032-24.519531 41.585938 4.714844 18.25 23.332031 29.226562 41.585938 24.515625 18.25-4.714844 29.226562-23.332031 24.515625-41.582031-3.105469-12.023438-12.496094-21.414063-24.515625-24.519532v-18.277343h51.199219c4.710937 0 8.53125 3.820312 8.53125 8.535156v93.867187h-341.332032v-93.867187c0-4.714844 3.820313-8.535156 8.535156-8.535156zm59.730469 51.199219c4.714844 0 8.535157-3.820313 8.535157-8.53125v-6.160157c8.164062 4.710938 10.960937 15.148438 6.246093 23.3125-4.710937 8.164063-15.152343 10.960938-23.3125 6.246094-8.164062-4.710937-10.960937-15.148437-6.246093-23.3125 1.496093-2.59375 3.652343-4.75 6.246093-6.246094v6.160157c0 4.710937 3.820313 8.53125 8.53125 8.53125zm102.402344 0c4.710937 0 8.53125-3.820313 8.53125-8.53125v-6.160157c8.164063 4.710938 10.960937 15.148438 6.25 23.3125-4.714844 8.164063-15.152344 10.960938-23.316406 6.246094-8.160157-4.710937-10.957031-15.148437-6.246094-23.3125 1.5-2.59375 3.652344-4.75 6.246094-6.246094v6.160157c0 4.710937 3.820312 8.53125 8.535156 8.53125zm102.398437 0c4.714844 0 8.535157-3.820313 8.535157-8.53125v-6.160157c8.160156 4.710938 10.957031 15.148438 6.246093 23.3125-4.714843 8.164063-15.152343 10.960938-23.3125 6.246094-8.164062-4.710937-10.960937-15.148437-6.25-23.3125 1.5-2.59375 3.65625-4.75 6.25-6.246094v6.160157c0 4.710937 3.820313 8.53125 8.53125 8.53125zm59.734376 392.535156h-324.265626c-4.714843 0-8.535156-3.820313-8.535156-8.535156v-315.730469h341.332032v315.730469c0 4.714843-3.820313 8.535156-8.53125 8.535156zm0 0"/><path d="m307.199219 230.398438h-119.464844c-4.714844 0-8.535156 3.824218-8.535156 8.535156 0 4.714844 3.820312 8.535156 8.535156 8.535156h119.464844c4.714843 0 8.535156-3.820312 8.535156-8.535156 0-4.710938-3.820313-8.535156-8.535156-8.535156zm0 0"/><path d="m187.734375 298.667969h85.332031c4.714844 0 8.535156-3.820313 8.535156-8.535157 0-4.710937-3.820312-8.53125-8.535156-8.53125h-85.332031c-4.714844 0-8.535156 3.820313-8.535156 8.53125 0 4.714844 3.820312 8.535157 8.535156 8.535157zm0 0"/><path d="m307.199219 366.933594h-119.464844c-4.714844 0-8.535156 3.820312-8.535156 8.535156 0 4.710938 3.820312 8.53125 8.535156 8.53125h119.464844c4.714843 0 8.535156-3.820312 8.535156-8.53125 0-4.714844-3.820313-8.535156-8.535156-8.535156zm0 0"/><path d="m273.066406 418.132812h-85.332031c-4.714844 0-8.535156 3.820313-8.535156 8.535157 0 4.710937 3.820312 8.53125 8.535156 8.53125h85.332031c4.714844 0 8.535156-3.820313 8.535156-8.53125 0-4.714844-3.820312-8.535157-8.535156-8.535157zm0 0"/><path d="m147.566406 215.832031-11.628906 11.632813c-1.207031-3.347656-4.378906-5.582032-7.9375-5.597656h-68.265625c-4.714844 0-8.535156 3.820312-8.535156 8.53125v68.269531c0 4.710937 3.820312 8.53125 8.535156 8.53125h68.265625c4.710938 0 8.53125-3.820313 8.53125-8.53125v-47.667969l23.101562-23.101562c3.273438-3.386719 3.179688-8.789063-.210937-12.066407-3.304687-3.191406-8.546875-3.191406-11.855469 0zm-28.101562 74.300781h-51.199219v-51.199218h51.199219v5l-17.066406 17.066406-11.03125-11.03125c-3.390626-3.277344-8.792969-3.179688-12.066407.207031-3.195312 3.308594-3.195312 8.550781 0 11.859375l17.066407 17.066406c3.332031 3.328126 8.734374 3.328126 12.066406 0l11.03125-11.035156zm0 0"/><path d="m147.566406 352.367188-11.628906 11.632812c-1.207031-3.347656-4.378906-5.585938-7.9375-5.601562h-68.265625c-4.714844 0-8.535156 3.820312-8.535156 8.535156v68.265625c0 4.714843 3.820312 8.535156 8.535156 8.535156h68.265625c4.710938 0 8.53125-3.820313 8.53125-8.535156v-47.667969l23.101562-23.097656c3.273438-3.390625 3.179688-8.792969-.210937-12.066406-3.304687-3.195313-8.546875-3.195313-11.855469 0zm-28.101562 74.300781h-51.199219v-51.199219h51.199219v5l-17.066406 17.066406-11.03125-11.035156c-3.390626-3.273438-8.792969-3.179688-12.066407.210938-3.195312 3.304687-3.195312 8.546874 0 11.855468l17.066407 17.066406c3.332031 3.332032 8.734374 3.332032 12.066406 0l11.03125-11.03125zm0 0"/></svg>