<?xml version="1.0" encoding="iso-8859-1"?>
<!-- Generator: Adobe Illustrator 19.0.0, SVG Export Plug-In . SVG Version: 6.00 Build 0)  -->
<svg version="1.1" id="Capa_1" xmlns="http://www.w3.org/2000/svg" xmlns:xlink="http://www.w3.org/1999/xlink" x="0px" y="0px"
	 viewBox="0 0 480 480" style="enable-background:new 0 0 480 480;" xml:space="preserve">
<g>
	<g>
		<path d="M192,376c0,13.234-14.355,24-32,24c-17.645,0-32-10.766-32-24h-16c0,22.055,21.531,40,48,40c26.469,0,48-17.945,48-40H192
			z"/>
	</g>
</g>
<g>
	<g>
		<path d="M240,304c-119.102,0-216,75.363-216,168c0,4.418,3.582,8,8,8h416c4.418,0,8-3.582,8-8C456,379.364,359.102,304,240,304z
			 M40.274,464C45.77,383.895,133.254,320,240,320s194.23,63.895,199.727,144H40.274z"/>
	</g>
</g>
<g>
	<g>
		<path d="M352,376c0,13.234-14.355,24-32,24c-17.645,0-32-10.766-32-24h-16c0,22.055,21.531,40,48,40c26.469,0,48-17.945,48-40H352
			z"/>
	</g>
</g>
<g>
	<g>
		<path d="M390.212,146.029c-0.895-3.452-2.118-6.81-3.653-10.028c13.284-27.857,1.47-61.208-26.386-74.492
			c-3.218-1.535-6.576-2.758-10.028-3.653c-6.989-27.792-34.017-45.67-62.328-41.227C277.309,5.975,262.964-0.016,248,0h-8
			c-15.634-0.056-30.565,6.495-41.109,18.039c-29.727-8.26-60.521,9.143-68.781,38.87c-0.087,0.315-0.172,0.63-0.254,0.946
			c-29.9,7.779-47.832,38.324-40.053,68.224c1.701,6.538,4.572,12.714,8.475,18.229C96.77,149.403,96.003,154.688,96,160
			c0.021,22.058,12.984,42.051,33.113,51.07c5.759,29.279,33.573,48.816,63.07,44.301C202.692,266.026,217.036,272.016,232,272h8
			c15.634,0.056,30.565-6.495,41.109-18.039c29.727,8.26,60.522-9.143,68.781-38.87c0.087-0.315,0.172-0.63,0.254-0.946
			C380.019,206.4,397.958,175.903,390.212,146.029z M370.602,140.008c11.066,19.046,4.597,43.456-14.449,54.522
			c-4.317,2.508-9.066,4.183-14.001,4.939c-3.447,0.533-6.151,3.237-6.684,6.684c-3.323,21.764-23.66,36.714-45.424,33.391
			c-2.966-0.453-5.872-1.239-8.662-2.344c-3.357-1.319-7.182-0.23-9.34,2.66c-7.499,10.178-19.4,16.173-32.043,16.141h-8
			c-11.898,0.011-23.18-5.287-30.77-14.449c-1.942-2.336-5.04-3.371-7.996-2.672c-21.231,5.279-42.722-7.652-48.001-28.883
			c-0.454-1.825-0.777-3.68-0.967-5.551c-0.34-3.07-2.417-5.67-5.336-6.68c-20.813-7.126-31.908-29.774-24.782-50.587
			c0.171-0.501,0.353-0.998,0.544-1.491c1.044-2.714,0.531-5.781-1.339-8.007c-14.183-16.891-11.987-42.081,4.904-56.263
			c5.595-4.698,12.372-7.771,19.592-8.885c3.447-0.533,6.151-3.237,6.684-6.684c3.323-21.764,23.659-36.714,45.424-33.391
			c2.966,0.453,5.872,1.239,8.662,2.344c3.357,1.324,7.184,0.234,9.34-2.66C215.456,21.963,227.358,15.968,240,16h8
			c11.898-0.011,23.18,5.287,30.77,14.449c1.941,2.337,5.04,3.373,7.996,2.672c21.117-5.332,42.558,7.465,47.89,28.582
			c0.345,1.366,0.616,2.75,0.813,4.145c0.533,3.447,3.237,6.151,6.684,6.684c21.773,3.334,36.722,23.687,33.388,45.46
			c-0.756,4.935-2.431,9.684-4.939,14C369.168,134.472,369.168,137.529,370.602,140.008z"/>
	</g>
</g>
<g>
	<g>
		<path d="M392,220c-17.673,0-32,14.327-32,32s14.327,32,32,32c17.673,0,32-14.327,32-32C423.98,234.336,409.665,220.021,392,220z
			 M392,268c-8.837,0-16-7.163-16-16c0-8.837,7.163-16,16-16s16,7.163,16,16C407.991,260.833,400.833,267.992,392,268z"/>
	</g>
</g>
<g>
	<g>
		<path d="M424,304c-13.255,0-24,10.745-24,24s10.745,24,24,24s24-10.745,24-24C447.986,314.752,437.249,304.015,424,304z M424,336
			c-4.418,0-8-3.582-8-8s3.582-8,8-8s8,3.582,8,8C431.994,332.416,428.416,335.995,424,336z"/>
	</g>
</g>
<g>
	<g>
		<rect x="232" y="224" width="16" height="16"/>
	</g>
</g>
<g>
	<g>
		<path d="M295.426,96.001C291.448,68.449,267.837,48.001,240,48c-30.914,0.035-55.965,25.086-56,56h16c0-22.091,17.909-40,40-40
			c22.091,0,40,17.909,40,40s-17.909,40-40,40c-4.418,0-8,3.582-8,8v56h16v-48.57C278.612,155.011,299.845,126.612,295.426,96.001z"
			/>
	</g>
</g>
<g>
</g>
<g>
</g>
<g>
</g>
<g>
</g>
<g>
</g>
<g>
</g>
<g>
</g>
<g>
</g>
<g>
</g>
<g>
</g>
<g>
</g>
<g>
</g>
<g>
</g>
<g>
</g>
<g>
</g>
</svg>
