<?xml version="1.0" encoding="iso-8859-1"?>
<!-- Generator: Adobe Illustrator 19.0.0, SVG Export Plug-In . SVG Version: 6.00 Build 0)  -->
<svg version="1.1" id="Layer_1" xmlns="http://www.w3.org/2000/svg" xmlns:xlink="http://www.w3.org/1999/xlink" x="0px" y="0px"
	 viewBox="0 0 512.001 512.001" style="enable-background:new 0 0 512.001 512.001;" xml:space="preserve">
<g>
	<path style="fill:#E84848;" d="M138.587,341.13h234.827h46.866h44.068h22.523c8.319,0,15.129-6.807,15.129-15.128V185.997
		c0-8.321-6.81-15.128-15.129-15.128h-22.523H373.41H138.587H91.72H47.652H25.128c-8.32,0-15.128,6.807-15.128,15.128v140.005
		c0,8.321,6.808,15.128,15.128,15.128H47.65H138.587z"/>
	<g>
		<path style="fill:#BD2326;" d="M256.001,110.973c48.284,0,91.052,23.604,117.41,59.896h90.938
			c-33.571-82.066-114.2-139.895-208.348-139.895c-94.149,0-174.779,57.829-208.349,139.895H91.72h46.867
			C164.948,134.577,207.714,110.973,256.001,110.973z"/>
		<path style="fill:#BD2326;" d="M256.001,401.028c-48.287,0-91.055-23.604-117.414-59.898H47.65
			c33.57,82.068,114.2,139.897,208.351,139.897c94.15,0,174.777-57.829,208.348-139.897H420.28h-46.866
			C347.055,377.424,304.287,401.028,256.001,401.028z"/>
	</g>
</g>
<g>
	<path style="fill:#000001;" d="M67.273,219.939H46.961c-3.435,0-5.692,2.159-5.692,4.612v62.408c0,3.142,3.828,4.71,7.653,4.71
		c3.827,0,7.654-1.568,7.654-4.71v-21.195h9.714c13.545,0,24.143-6.281,24.143-22.766v-0.49
		C90.433,226.022,80.226,219.939,67.273,219.939z M75.122,244.176c0,6.673-3.336,9.813-8.832,9.813h-9.714v-20.705h9.714
		c5.496,0,8.832,3.141,8.832,9.813V244.176z"/>
	<path style="fill:#000001;" d="M403.057,219.939h-42.392c-3.238,0-4.611,3.532-4.611,6.771c0,3.727,1.668,6.966,4.611,6.966h13.542
		v53.284c0,3.142,3.827,4.71,7.654,4.71s7.653-1.568,7.653-4.71v-53.284h13.542c2.944,0,4.612-3.239,4.612-6.966
		C407.669,223.471,406.296,219.939,403.057,219.939z"/>
	<path style="fill:#000001;" d="M462.094,219.939c-2.451,0-3.435,0.98-4.415,2.844l-13.639,25.22l-13.739-25.22
		c-1.078-1.864-1.962-2.844-4.415-2.844c-4.222,0-10.402,2.649-10.402,6.278c0,0.297,0,0.688,0.195,1.081l20.313,33.657
		c0.197,0.297,0.395,0.785,0.395,1.375v24.629c0,3.142,3.827,4.71,7.654,4.71c3.824,0,7.653-1.568,7.653-4.71V262.33
		c0-0.59,0.195-1.079,0.392-1.375l20.215-33.657c0.195-0.393,0.195-0.783,0.195-1.081
		C472.496,222.588,466.313,219.939,462.094,219.939z"/>
	<path style="fill:#000001;" d="M141.032,260.857c6.867-2.649,11.873-8.927,11.873-19.918c0-15.995-10.697-21-24.141-21h-20.312
		c-2.847,0-4.711,2.159-4.711,4.612v62.408c0,3.142,3.828,4.71,7.654,4.71c3.827,0,7.654-1.568,7.654-4.71V263.31h6.478
		l13.442,26.102c1.08,2.061,2.943,2.844,4.906,2.844c4.516,0,9.617-4.12,9.617-7.947c0-0.492-0.098-1.178-0.49-1.766
		L141.032,260.857z M128.765,251.535h-9.715v-18.252h9.715c5.495,0,8.832,2.256,8.832,9.127
		C137.597,249.28,134.26,251.535,128.765,251.535z"/>
	<path style="fill:#000001;" d="M175.343,219.939c-3.827,0-7.656,1.373-7.656,4.612v62.408c0,3.142,3.829,4.71,7.656,4.71
		c3.824,0,7.651-1.568,7.651-4.71v-62.408C182.994,221.312,179.167,219.939,175.343,219.939z"/>
	<path style="fill:#000001;" d="M301.368,260.857c6.868-2.649,11.873-8.927,11.873-19.918c0-15.995-10.695-21-24.142-21h-20.313
		c-2.845,0-4.71,2.159-4.71,4.612v62.408c0,3.142,3.829,4.71,7.656,4.71c3.826,0,7.651-1.568,7.651-4.71V263.31h6.477l13.444,26.102
		c1.079,2.061,2.942,2.844,4.905,2.844c4.515,0,9.617-4.12,9.617-7.947c0-0.492-0.098-1.178-0.49-1.766L301.368,260.857z
		 M289.1,251.535h-9.715v-18.252h9.715c5.497,0,8.834,2.256,8.834,9.127C297.934,249.28,294.597,251.535,289.1,251.535z"/>
	<path style="fill:#000001;" d="M335.678,219.939c-3.827,0-7.655,1.373-7.655,4.612v62.408c0,3.142,3.828,4.71,7.655,4.71
		s7.653-1.568,7.653-4.71v-62.408C343.331,221.312,339.505,219.939,335.678,219.939z"/>
	<path style="fill:#000001;" d="M223.487,219.939c-13.54,0-24.04,6.278-24.04,23.157v26.005c0,16.878,10.5,23.157,24.04,23.157
		c13.541,0,24.141-6.278,24.141-23.157v-26.005C247.628,226.217,237.028,219.939,223.487,219.939z M232.319,269.101
		c0,6.771-3.338,9.813-8.832,9.813c-5.496,0-8.732-3.042-8.732-9.813v-26.005c0-6.771,3.236-9.813,8.732-9.813
		c5.494,0,8.832,3.042,8.832,9.813V269.101z"/>
	<path style="fill:#000001;" d="M486.872,160.869h-15.925c-17.712-40.001-46.087-74.123-82.409-98.975
		c-39.124-26.77-84.955-40.92-132.537-40.92c-47.583,0-93.414,14.15-132.539,40.92c-36.321,24.852-64.697,58.975-82.408,98.975
		H25.128C11.272,160.869,0,172.141,0,185.997v140.005c0,13.856,11.272,25.128,25.128,25.128h15.923
		c17.712,40.001,46.088,74.125,82.409,98.977c39.125,26.77,84.957,40.92,132.541,40.92c47.583,0,93.414-14.15,132.539-40.92
		c36.32-24.852,64.695-58.976,82.408-98.977h15.924c13.855,0,25.129-11.273,25.129-25.128V185.997
		C512.001,172.141,500.727,160.869,486.872,160.869z M256.001,40.974c82.654,0,156.799,46.586,192.881,119.895h-70.49
		c-29.279-37.596-74.644-59.896-122.391-59.896s-93.111,22.3-122.395,59.896H109.09c32.069-49.666,86.935-79.896,146.91-79.896
		c21.405,0,42.398,3.87,62.396,11.501c5.16,1.97,10.94-0.617,12.908-5.777c1.97-5.16-0.617-10.939-5.777-12.908
		C303.244,65.285,279.851,60.974,256,60.974c-35.752,0-70.795,9.819-101.34,28.396c-28.789,17.509-52.502,42.148-68.902,71.501
		h-22.64C99.2,87.56,173.347,40.974,256.001,40.974z M351.775,160.869h-191.55c25.171-25.266,59.692-39.896,95.776-39.896
		S326.606,135.603,351.775,160.869z M256.001,471.027c-82.656,0-156.803-46.587-192.884-119.897h70.489
		c29.279,37.598,74.645,59.898,122.395,59.898c47.748,0,93.113-22.3,122.394-59.898h24.516
		c-32.07,49.665-86.935,79.896-146.91,79.896c-21.404,0-42.399-3.869-62.4-11.5c-5.161-1.968-10.939,0.619-12.908,5.779
		c-1.969,5.16,0.619,10.939,5.779,12.908c22.286,8.502,45.68,12.813,69.529,12.813c35.75,0,70.792-9.819,101.338-28.395
		c28.789-17.509,52.503-42.148,68.904-71.501h22.639C412.801,424.44,338.655,471.027,256.001,471.027z M160.223,351.13h191.556
		c-25.17,25.267-59.691,39.898-95.777,39.898C219.913,391.028,185.392,376.397,160.223,351.13z M492.001,326.002
		c0,2.78-2.349,5.128-5.129,5.128h-22.597c-0.022,0-0.044-0.001-0.065,0h-43.549c-0.267-0.01-0.533-0.012-0.799,0H47.788
		c-0.021-0.001-0.042,0-0.063,0H25.128c-2.779,0-5.128-2.349-5.128-5.128V185.997c0-2.78,2.349-5.128,5.128-5.128h22.564
		c0.041-0.001,0.081,0.001,0.121,0h43.549c0.113,0.004,0.227,0.02,0.342,0.02c0.099,0,0.195-0.017,0.295-0.02h46.566
		c0.005,0,0.009,0.001,0.014,0.001c0.002,0,0.006-0.001,0.008-0.001h325.732c0.011,0,0.022,0.002,0.033,0.002
		c0.017,0,0.034-0.002,0.051-0.002h22.47c2.78,0,5.129,2.349,5.129,5.128L492.001,326.002L492.001,326.002z"/>
	<path style="fill:#000001;" d="M343.211,104.247l0.428,0.244c1.544,0.862,3.217,1.272,4.868,1.272c3.505,0,6.908-1.847,8.738-5.125
		c2.694-4.821,0.969-10.913-3.853-13.607l-0.085-0.049c-4.768-2.788-10.893-1.183-13.681,3.584
		C336.839,95.333,338.444,101.458,343.211,104.247z"/>
	<path style="fill:#000001;" d="M168.703,407.702l-0.257-0.146c-4.795-2.739-10.903-1.073-13.644,3.721
		c-2.739,4.795-1.073,10.904,3.722,13.644l0.256,0.146c1.565,0.894,3.27,1.319,4.952,1.319c3.472,0,6.847-1.811,8.692-5.041
		C175.164,416.551,173.498,410.442,168.703,407.702z"/>
</g>
<g>
</g>
<g>
</g>
<g>
</g>
<g>
</g>
<g>
</g>
<g>
</g>
<g>
</g>
<g>
</g>
<g>
</g>
<g>
</g>
<g>
</g>
<g>
</g>
<g>
</g>
<g>
</g>
<g>
</g>
</svg>
