<?xml version="1.0" encoding="iso-8859-1"?>
<!-- Generator: Adobe Illustrator 18.0.0, SVG Export Plug-In . SVG Version: 6.00 Build 0)  -->
<!DOCTYPE svg PUBLIC "-//W3C//DTD SVG 1.1//EN" "http://www.w3.org/Graphics/SVG/1.1/DTD/svg11.dtd">
<svg version="1.1" id="Capa_1" xmlns="http://www.w3.org/2000/svg" xmlns:xlink="http://www.w3.org/1999/xlink" x="0px" y="0px"
	 viewBox="0 0 447.165 447.165" style="enable-background:new 0 0 447.165 447.165;" xml:space="preserve">
<g>
	<path d="M231.903,244.717c3.353,0,6.645,0.266,9.858,0.769v-16.061c0-8.586,3.462-16.37,9.051-22.059
		c-0.911-0.232-1.86-0.369-2.844-0.369H220.39c-4.036,5.31-9.645,9.295-16.053,11.335c-0.001,0.059-0.009,0.115-0.009,0.174v23.165
		l-14.9-14.9l0.041,34.246C200.909,250.727,215.932,244.717,231.903,244.717z"/>
	<path d="M231.903,351.768c20.107,0,37.285-13.77,42.155-32.669l-9.446-9.446c-4.626-4.626-7.496-10.347-8.638-16.336
		c-0.784-4.109-0.762-8.344,0.095-12.441c-5.295-3.464-9.483-8.481-11.927-14.396c-3.992-1.172-8.077-1.764-12.239-1.764
		c-20.67,0-37.929,14.47-42.389,33.684c0.018,14.982,0.006,4.817,0.024,19.786C194.076,337.524,211.449,351.768,231.903,351.768z"/>
	<path d="M298.706,336.048c-2.93-0.553-5.747-1.519-8.385-2.865c-9.814,22.9-32.547,38.585-58.418,38.585
		c-15.618,0-30.665-5.767-42.321-16.202l0.041,33.954l14.706-14.706v23.165c0,6.357,5.153,11.509,11.509,11.509h32.131
		c6.357,0,11.509-5.153,11.509-11.509v-23.165l16.38,16.38c4.495,4.495,11.782,4.495,16.276,0l22.72-22.72
		c4.495-4.495,4.495-11.782,0-16.276L298.706,336.048z"/>
	<path d="M426.793,217.914h-8.776c-0.851-2.406-1.816-4.757-2.907-7.038l6.2-6.2c4.495-4.494,4.495-11.781,0-16.276l-17.722-17.722
		c-2.247-2.248-5.193-3.371-8.138-3.371c-2.945,0-5.891,1.123-8.138,3.371l-6.2,6.199c-2.281-1.091-4.632-2.056-7.038-2.907v-8.775
		c0-6.356-5.153-11.51-11.509-11.51H337.5c-6.356,0-11.509,5.153-11.509,11.51v8.775c-2.406,0.851-4.757,1.816-7.038,2.907
		l-6.2-6.199c-2.247-2.248-5.193-3.371-8.138-3.371c-2.946,0-5.891,1.123-8.138,3.371l-17.722,17.722
		c-4.495,4.495-4.495,11.782,0,16.276l6.2,6.2c-1.091,2.281-2.056,4.632-2.907,7.038h-8.776c-6.357,0-11.509,5.153-11.509,11.51
		v25.063c0,6.356,5.153,11.51,11.509,11.51h8.776c0.851,2.406,1.816,4.757,2.907,7.038l-6.2,6.2c-4.495,4.494-4.495,11.781,0,16.276
		l17.722,17.723c2.247,2.247,5.193,3.37,8.138,3.37c2.946,0,5.891-1.123,8.138-3.37l6.2-6.2c2.281,1.091,4.632,2.057,7.038,2.907
		v8.776c0,6.355,5.153,11.509,11.509,11.509h25.063c6.356,0,11.509-5.153,11.509-11.509v-8.776c2.406-0.851,4.757-1.816,7.038-2.907
		l6.2,6.2c2.247,2.247,5.193,3.37,8.138,3.37c2.946,0,5.891-1.123,8.138-3.37l17.722-17.723c4.495-4.495,4.495-11.782,0-16.276
		l-6.2-6.2c1.091-2.281,2.056-4.632,2.907-7.038h8.776c6.356,0,11.509-5.153,11.509-11.51v-25.063
		C438.302,223.067,433.149,217.914,426.793,217.914z M350.032,298.621c-31.246,0-56.666-25.42-56.666-56.666
		c0-31.245,25.42-56.665,56.666-56.665s56.666,25.42,56.666,56.665C406.698,273.201,381.278,298.621,350.032,298.621z"/>
	<path d="M350.032,205.29c-20.218,0-36.666,16.448-36.666,36.665c0,20.218,16.448,36.666,36.666,36.666s36.666-16.448,36.666-36.666
		C386.698,221.738,370.25,205.29,350.032,205.29z"/>
	<path d="M169.417,217.363l-0.137-0.015l-43.11-4.604c-6.823-0.729-12.922-3.524-17.752-7.691
		c-7.438,1.698-14.687-2.829-16.626-9.974l-16.575-61.065c0,0,0.008,284.14,0.008,291.841c0,11.77,9.541,21.31,21.31,21.31
		c11.722,0,21.31-9.543,21.31-21.31V260.123c0-2.541,2.059-4.6,4.6-4.6c2.541,0,4.6,2.059,4.6,4.6v165.733
		c0,11.77,9.541,21.31,21.31,21.31c11.769,0,21.31-9.54,21.31-21.31C169.666,39.162,169.713,465.072,169.417,217.363z"/>
	<path d="M81.97,105.446c15.485-4.202,31.064-8.431,46.902-12.729c6.953-1.888,14.959,1.665,17.325,10.382l12.974,47.8
		c0.093,0.01,10.072,1.076,10.168,1.086l-0.03-24.643c-0.002-1.963,1.582-3.558,3.545-3.569c1.963-0.011,3.565,1.567,3.584,3.53
		c0,0.01,0,0.02,0,0.03c0.187,37.156,0.087,17.344,0.202,40.258l-45.133-4.82c-9.751-1.038-18.502,6.019-19.544,15.772
		c-1.042,9.752,6.02,18.502,15.772,19.544l64.877,6.929c5.103,0.538,10.089-1.137,13.79-4.481c3.75-3.388,5.878-8.213,5.853-13.266
		c-0.031-6.085-0.272-54.079-0.302-60.113c-0.116-23.116-19.062-41.813-42.024-41.813c-84.175,0-78.292-0.146-80.764,0.34
		c-7.397-2.804-6.236-2.364-33.581-12.729l30.104-38.098c-0.034,0.646-0.052,1.296-0.052,1.95c0,20.326,16.478,36.804,36.804,36.804
		c20.326,0,36.804-16.478,36.804-36.804C159.246,16.478,142.768,0,122.442,0c-12.349,0-23.268,6.088-29.945,15.42
		c-0.882-3.777-2.99-7.296-6.27-9.888c-7.695-6.082-18.863-4.773-24.943,2.924l-48.597,61.5c-3.509,4.441-4.691,10.289-3.182,15.744
		c1.509,5.456,5.528,9.865,10.821,11.871c10.567,4.005,41.812,15.848,51.443,19.499C72.552,111.326,76.722,106.871,81.97,105.446z"
		/>
	<path d="M133.072,148.111l11.158,1.191l-11.691-43.075l-46.902,12.73l13.57,49.995C104.3,155.429,118.035,146.507,133.072,148.111z
		"/>
</g>
<g>
</g>
<g>
</g>
<g>
</g>
<g>
</g>
<g>
</g>
<g>
</g>
<g>
</g>
<g>
</g>
<g>
</g>
<g>
</g>
<g>
</g>
<g>
</g>
<g>
</g>
<g>
</g>
<g>
</g>
</svg>
