<?xml version="1.0" encoding="iso-8859-1"?>
<!-- Generator: Adobe Illustrator 18.1.1, SVG Export Plug-In . SVG Version: 6.00 Build 0)  -->
<svg version="1.1" id="Capa_1" xmlns="http://www.w3.org/2000/svg" xmlns:xlink="http://www.w3.org/1999/xlink" x="0px" y="0px"
	 viewBox="0 0 494.844 494.844" style="enable-background:new 0 0 494.844 494.844;" xml:space="preserve">
<g>
	<g>
		<path style="fill:#010002;" d="M317.632,39.788c-12.918,0-23.385,11.696-23.385,26.073c0,9.866,4.922,18.751,12.682,23.191v12.551
			c0,6.574,4.801,11.916,10.696,11.916c5.867,0,10.682-5.35,10.682-11.916V89.052c7.769-4.44,12.665-13.327,12.665-23.191
			C341.011,51.485,330.505,39.788,317.632,39.788z"/>
		<path style="fill:#010002;" d="M276.197,70.57h12.457c1.482,0,2.685-1.338,2.685-2.977c0-1.652-1.199-2.982-2.685-2.982h-12.457
			c-1.491,0-2.69,1.33-2.69,2.982C273.507,69.234,274.706,70.57,276.197,70.57z"/>
		<path style="fill:#010002;" d="M361.481,64.605h-12.489c-1.484,0-2.678,1.329-2.678,2.982c0,1.638,1.19,2.977,2.678,2.977h12.486
			c1.479,0,2.668-1.339,2.668-2.977C364.149,65.933,362.942,64.605,361.481,64.605z"/>
		<path style="fill:#010002;" d="M353.021,32.379c-1.063-1.157-2.735-1.157-3.781,0l-8.828,9.835c-1.046,1.15-1.046,3.049,0,4.214
			c0.521,0.573,1.207,0.857,1.884,0.857c0.686,0,1.361-0.292,1.884-0.857l8.82-9.835C354.059,35.427,354.059,33.551,353.021,32.379z
			"/>
		<path style="fill:#010002;" d="M291.811,46.438c0.515,0.571,1.197,0.856,1.892,0.856s1.369-0.292,1.893-0.856
			c1.03-1.165,1.03-3.064,0-4.215l-8.813-9.835c-1.063-1.156-2.754-1.156-3.8,0c-1.03,1.165-1.03,3.05,0,4.215L291.811,46.438z"/>
		<path style="fill:#010002;" d="M317.61,34.357c1.481,0,2.677-1.33,2.677-2.977V17.482c0-1.653-1.192-2.991-2.677-2.991
			c-1.485,0-2.679,1.338-2.679,2.991v13.906C314.932,33.032,316.123,34.357,317.61,34.357z"/>
		<path style="fill:#010002;" d="M179.829,94.839l3.691-1.999c3.199-8.316,10.847-14.311,19.901-15.311
			c14.232-1.617,22.947,8.715,25.458,16.94l5.59,3.084c0.654,0.365,1.219,0.728,1.827,1.089
			c16.232-8.955,27.238-26.216,27.238-46.074C263.534,23.527,239.998,0,210.965,0s-52.564,23.527-52.564,52.568
			C158.408,69.924,166.86,85.275,179.829,94.839z"/>
		<path style="fill:#010002;" d="M164.292,205.666c25.019,0,45.547-33.443,61.092-99.583c0.789-3.614,0.685-6.827,0.446-8.371
			c-1.45-7.551-7.636-13.945-15.615-15.81c-0.431-0.104-2.368-0.52-4.229-0.52c-0.812,0-1.604,0.077-2.384,0.165
			c-8.228,0.904-15.387,6.817-17.379,15.338c-5.725,24.334-19.317,56.547-21.962,62.587c-2.646,6.033-8.613,3.261-6.637-0.08
			c1.977-3.339,14.615-33.159,21.213-59.569c-9.409,5.094-18.348,12.907-24.412,21.051c-11.646,15.652-30.017,45.954-21.582,67.994
			C139.75,202.901,157.641,205.724,164.292,205.666z"/>
		<path style="fill:#010002;" d="M239.113,104.824c-0.949-0.592-5.525-3.026-6.855-3.757c0.248,1.667-0.111,4.321-0.623,6.479
			c-16.522,70.352-38.564,104.976-67.352,104.552c-6.642-0.098-12.038-1.464-14.08-1.859v46.488c0,6.73,1.576,12.904,4.31,18.441
			c0,0.045-0.016,0.074-0.016,0.123l0.016,195.43c0,13.326,10.804,24.123,24.119,24.123c13.323,0,24.119-10.789,24.119-24.123
			l-0.015-167.654l3.441-0.018l-0.007,167.672c0,13.326,10.792,24.123,24.119,24.123c13.323,0,24.115-10.789,24.115-24.123
			l-0.17-196.104c2.274-5.1,3.584-11.799,3.584-17.891v-29.254c-4.274,0.992-7.959,1.262-14.191,1.445
			c-14.643,0-25.107-10.732-26.161-23.278c-1.142-13.413,8.602-24.726,22.036-25.866c7.396-0.519,9.726-1.163,14.85-3.295
			l1.319,4.787c0,0-4.5,2.25-13.982,3.01c-11.227,0.954-19.559,10.078-18.605,21.315c0.903,10.654,10.15,18.606,22.07,18.606
			c37.29-3.157,47.408-22.505,50.124-33.755C302.582,160.081,272.338,125.556,239.113,104.824z"/>
	</g>
</g>
<g>
</g>
<g>
</g>
<g>
</g>
<g>
</g>
<g>
</g>
<g>
</g>
<g>
</g>
<g>
</g>
<g>
</g>
<g>
</g>
<g>
</g>
<g>
</g>
<g>
</g>
<g>
</g>
<g>
</g>
</svg>
