<?xml version="1.0" encoding="UTF-8" standalone="no"?>
<!DOCTYPE svg PUBLIC "-//W3C//DTD SVG 1.1//EN"
 "http://www.w3.org/Graphics/SVG/1.1/DTD/svg11.dtd">
<!-- Generated by graphviz version 2.40.1 (20161225.0304)
 -->
<!-- Title: dependencies Pages: 1 -->
<svg width="3226pt" height="284pt"
 viewBox="0.00 0.00 3226.00 284.00" xmlns="http://www.w3.org/2000/svg" xmlns:xlink="http://www.w3.org/1999/xlink">
<g id="graph0" class="graph" transform="scale(1 1) rotate(0) translate(4 280)">
<title>dependencies</title>
<polygon fill="#ffffff" stroke="transparent" points="-4,4 -4,-280 3222,-280 3222,4 -4,4"/>
<text text-anchor="start" x="1588.0091" y="-42.4" font-family="sans-serif" font-weight="bold" font-size="14.00" fill="#000000">Legend</text>
<polygon fill="#ffffb3" stroke="transparent" points="1375,-10 1375,-30 1395,-30 1395,-10 1375,-10"/>
<text text-anchor="start" x="1398.629" y="-15.4" font-family="sans-serif" font-size="14.00" fill="#000000"> &#160;Declarations</text>
<polygon fill="#8dd3c7" stroke="transparent" points="1488,-10 1488,-30 1508,-30 1508,-10 1488,-10"/>
<text text-anchor="start" x="1511.7251" y="-15.4" font-family="sans-serif" font-size="14.00" fill="#000000"> &#160;Module</text>
<polygon fill="#80b1d3" stroke="transparent" points="1574,-10 1574,-30 1594,-30 1594,-10 1574,-10"/>
<text text-anchor="start" x="1597.7812" y="-15.4" font-family="sans-serif" font-size="14.00" fill="#000000"> &#160;Bootstrap</text>
<polygon fill="#fdb462" stroke="transparent" points="1671,-10 1671,-30 1691,-30 1691,-10 1671,-10"/>
<text text-anchor="start" x="1694.6732" y="-15.4" font-family="sans-serif" font-size="14.00" fill="#000000"> &#160;Providers</text>
<polygon fill="#fb8072" stroke="transparent" points="1767,-10 1767,-30 1787,-30 1787,-10 1767,-10"/>
<text text-anchor="start" x="1790.7258" y="-15.4" font-family="sans-serif" font-size="14.00" fill="#000000"> &#160;Exports</text>
<g id="clust1" class="cluster">
<title>cluster_AppModule</title>
<polygon fill="none" stroke="#000000" stroke-dasharray="1,5" points="8,-70 8,-268 3210,-268 3210,-70 8,-70"/>
</g>
<g id="clust2" class="cluster">
<title>cluster_AppModule_declarations</title>
<polygon fill="none" stroke="#000000" points="2148,-78 2148,-130 3202,-130 3202,-78 2148,-78"/>
</g>
<g id="clust10" class="cluster">
<title>cluster_AppModule_imports</title>
<polygon fill="none" stroke="#000000" points="552,-78 552,-130 2140,-130 2140,-78 552,-78"/>
</g>
<g id="clust12" class="cluster">
<title>cluster_AppModule_bootstrap</title>
<polygon fill="none" stroke="#000000" points="1813,-208 1813,-260 1937,-260 1937,-208 1813,-208"/>
</g>
<g id="clust13" class="cluster">
<title>cluster_AppModule_providers</title>
<polygon fill="none" stroke="#000000" points="16,-78 16,-130 544,-130 544,-78 16,-78"/>
</g>
<!-- AppComponent -->
<g id="node1" class="node">
<title>AppComponent</title>
<polygon fill="#ffffb3" stroke="#000000" points="3193.9399,-122 3088.0601,-122 3088.0601,-86 3193.9399,-86 3193.9399,-122"/>
<text text-anchor="middle" x="3141" y="-99.8" font-family="Times,serif" font-size="14.00" fill="#000000">AppComponent</text>
</g>
<!-- AppModule -->
<g id="node8" class="node">
<title>AppModule</title>
<polygon fill="#8dd3c7" stroke="#000000" points="1916.6571,-187 1913.6571,-191 1892.6571,-191 1889.6571,-187 1833.3429,-187 1833.3429,-151 1916.6571,-151 1916.6571,-187"/>
<text text-anchor="middle" x="1875" y="-164.8" font-family="Times,serif" font-size="14.00" fill="#000000">AppModule</text>
</g>
<!-- AppComponent&#45;&gt;AppModule -->
<g id="edge1" class="edge">
<title>AppComponent&#45;&gt;AppModule</title>
<path fill="none" stroke="#000000" d="M3141,-122.3228C3141,-145.6602 3141,-183 3141,-183 3141,-183 1926.7615,-183 1926.7615,-183"/>
<polygon fill="#000000" stroke="#000000" points="1926.7615,-179.5001 1916.7615,-183 1926.7615,-186.5001 1926.7615,-179.5001"/>
</g>
<!-- HomeComponent -->
<g id="node2" class="node">
<title>HomeComponent</title>
<polygon fill="#ffffb3" stroke="#000000" points="3070.5451,-122 2955.4549,-122 2955.4549,-86 3070.5451,-86 3070.5451,-122"/>
<text text-anchor="middle" x="3013" y="-99.8" font-family="Times,serif" font-size="14.00" fill="#000000">HomeComponent</text>
</g>
<!-- HomeComponent&#45;&gt;AppModule -->
<g id="edge2" class="edge">
<title>HomeComponent&#45;&gt;AppModule</title>
<path fill="none" stroke="#000000" d="M3013,-122.1554C3013,-144.3519 3013,-179 3013,-179 3013,-179 1926.8517,-179 1926.8517,-179"/>
<polygon fill="#000000" stroke="#000000" points="1926.8517,-175.5001 1916.8517,-179 1926.8516,-182.5001 1926.8517,-175.5001"/>
</g>
<!-- ImageuploadComponent -->
<g id="node3" class="node">
<title>ImageuploadComponent</title>
<polygon fill="#ffffb3" stroke="#000000" points="2937.4186,-122 2782.5814,-122 2782.5814,-86 2937.4186,-86 2937.4186,-122"/>
<text text-anchor="middle" x="2860" y="-99.8" font-family="Times,serif" font-size="14.00" fill="#000000">ImageuploadComponent</text>
</g>
<!-- ImageuploadComponent&#45;&gt;AppModule -->
<g id="edge3" class="edge">
<title>ImageuploadComponent&#45;&gt;AppModule</title>
<path fill="none" stroke="#000000" d="M2860,-122.2843C2860,-143.3211 2860,-175 2860,-175 2860,-175 1926.6951,-175 1926.6951,-175"/>
<polygon fill="#000000" stroke="#000000" points="1926.6951,-171.5001 1916.6951,-175 1926.695,-178.5001 1926.6951,-171.5001"/>
</g>
<!-- UtilitiesComponent -->
<g id="node4" class="node">
<title>UtilitiesComponent</title>
<polygon fill="#ffffb3" stroke="#000000" points="2765.4426,-122 2638.5574,-122 2638.5574,-86 2765.4426,-86 2765.4426,-122"/>
<text text-anchor="middle" x="2702" y="-99.8" font-family="Times,serif" font-size="14.00" fill="#000000">UtilitiesComponent</text>
</g>
<!-- UtilitiesComponent&#45;&gt;AppModule -->
<g id="edge4" class="edge">
<title>UtilitiesComponent&#45;&gt;AppModule</title>
<path fill="none" stroke="#000000" d="M2702,-122.308C2702,-142.1455 2702,-171 2702,-171 2702,-171 1926.8625,-171 1926.8625,-171"/>
<polygon fill="#000000" stroke="#000000" points="1926.8625,-167.5001 1916.8625,-171 1926.8624,-174.5001 1926.8625,-167.5001"/>
</g>
<!-- ContactUsComponent -->
<g id="node5" class="node">
<title>ContactUsComponent</title>
<polygon fill="#ffffb3" stroke="#000000" points="2621.4313,-122 2480.5687,-122 2480.5687,-86 2621.4313,-86 2621.4313,-122"/>
<text text-anchor="middle" x="2551" y="-99.8" font-family="Times,serif" font-size="14.00" fill="#000000">ContactUsComponent</text>
</g>
<!-- ContactUsComponent&#45;&gt;AppModule -->
<g id="edge5" class="edge">
<title>ContactUsComponent&#45;&gt;AppModule</title>
<path fill="none" stroke="#000000" d="M2551,-122.2222C2551,-140.8285 2551,-167 2551,-167 2551,-167 1926.7767,-167 1926.7767,-167"/>
<polygon fill="#000000" stroke="#000000" points="1926.7767,-163.5001 1916.7767,-167 1926.7766,-170.5001 1926.7767,-163.5001"/>
</g>
<!-- FeedbackComponent -->
<g id="node6" class="node">
<title>FeedbackComponent</title>
<polygon fill="#ffffb3" stroke="#000000" points="2462.4734,-122 2327.5266,-122 2327.5266,-86 2462.4734,-86 2462.4734,-122"/>
<text text-anchor="middle" x="2395" y="-99.8" font-family="Times,serif" font-size="14.00" fill="#000000">FeedbackComponent</text>
</g>
<!-- FeedbackComponent&#45;&gt;AppModule -->
<g id="edge6" class="edge">
<title>FeedbackComponent&#45;&gt;AppModule</title>
<path fill="none" stroke="#000000" d="M2395,-122.0225C2395,-139.3734 2395,-163 2395,-163 2395,-163 1926.6748,-163 1926.6748,-163"/>
<polygon fill="#000000" stroke="#000000" points="1926.6748,-159.5001 1916.6748,-163 1926.6747,-166.5001 1926.6748,-159.5001"/>
</g>
<!-- QuoteDialogComponent -->
<g id="node7" class="node">
<title>QuoteDialogComponent</title>
<polygon fill="#ffffb3" stroke="#000000" points="2309.647,-122 2156.353,-122 2156.353,-86 2309.647,-86 2309.647,-122"/>
<text text-anchor="middle" x="2233" y="-99.8" font-family="Times,serif" font-size="14.00" fill="#000000">QuoteDialogComponent</text>
</g>
<!-- QuoteDialogComponent&#45;&gt;AppModule -->
<g id="edge7" class="edge">
<title>QuoteDialogComponent&#45;&gt;AppModule</title>
<path fill="none" stroke="#000000" d="M2233,-122.0091C2233,-138.0494 2233,-159 2233,-159 2233,-159 1926.7678,-159 1926.7678,-159"/>
<polygon fill="#000000" stroke="#000000" points="1926.7678,-155.5001 1916.7678,-159 1926.7678,-162.5001 1926.7678,-155.5001"/>
</g>
<!-- AppComponent  -->
<g id="node19" class="node">
<title>AppComponent </title>
<polygon fill="#80b1d3" stroke="#000000" points="1929.439,-252 1820.561,-252 1820.561,-216 1929.439,-216 1929.439,-252"/>
<text text-anchor="middle" x="1875" y="-229.8" font-family="Times,serif" font-size="14.00" fill="#000000">AppComponent </text>
</g>
<!-- AppModule&#45;&gt;AppComponent  -->
<g id="edge18" class="edge">
<title>AppModule&#45;&gt;AppComponent </title>
<path fill="none" stroke="#000000" stroke-dasharray="1,5" d="M1875,-187.1061C1875,-187.1061 1875,-205.991 1875,-205.991"/>
<polygon fill="#000000" stroke="#000000" points="1871.5001,-205.9909 1875,-215.991 1878.5001,-205.991 1871.5001,-205.9909"/>
</g>
<!-- BrowserModule -->
<g id="node9" class="node">
<title>BrowserModule</title>
<polygon fill="#8dd3c7" stroke="#000000" points="2132.4734,-122 2129.4734,-126 2108.4734,-126 2105.4734,-122 2025.5266,-122 2025.5266,-86 2132.4734,-86 2132.4734,-122"/>
<text text-anchor="middle" x="2079" y="-99.8" font-family="Times,serif" font-size="14.00" fill="#000000">BrowserModule</text>
</g>
<!-- BrowserModule&#45;&gt;AppModule -->
<g id="edge8" class="edge">
<title>BrowserModule&#45;&gt;AppModule</title>
<path fill="none" stroke="#000000" d="M2079,-122.1243C2079,-136.7832 2079,-155 2079,-155 2079,-155 1926.7747,-155 1926.7747,-155"/>
<polygon fill="#000000" stroke="#000000" points="1926.7747,-151.5001 1916.7747,-155 1926.7747,-158.5001 1926.7747,-151.5001"/>
</g>
<!-- AppRoutingModule -->
<g id="node10" class="node">
<title>AppRoutingModule</title>
<polygon fill="#8dd3c7" stroke="#000000" points="2007.2744,-122 2004.2744,-126 1983.2744,-126 1980.2744,-122 1878.7256,-122 1878.7256,-86 2007.2744,-86 2007.2744,-122"/>
<text text-anchor="middle" x="1943" y="-99.8" font-family="Times,serif" font-size="14.00" fill="#000000">AppRoutingModule</text>
</g>
<!-- AppRoutingModule&#45;&gt;AppModule -->
<g id="edge9" class="edge">
<title>AppRoutingModule&#45;&gt;AppModule</title>
<path fill="none" stroke="#000000" d="M1897.7206,-122.1061C1897.7206,-122.1061 1897.7206,-140.991 1897.7206,-140.991"/>
<polygon fill="#000000" stroke="#000000" points="1894.2206,-140.9909 1897.7206,-150.991 1901.2206,-140.991 1894.2206,-140.9909"/>
</g>
<!-- MaterialModule -->
<g id="node11" class="node">
<title>MaterialModule</title>
<polygon fill="#8dd3c7" stroke="#000000" points="1860.4706,-122 1857.4706,-126 1836.4706,-126 1833.4706,-122 1753.5294,-122 1753.5294,-86 1860.4706,-86 1860.4706,-122"/>
<text text-anchor="middle" x="1807" y="-99.8" font-family="Times,serif" font-size="14.00" fill="#000000">MaterialModule</text>
</g>
<!-- MaterialModule&#45;&gt;AppModule -->
<g id="edge10" class="edge">
<title>MaterialModule&#45;&gt;AppModule</title>
<path fill="none" stroke="#000000" d="M1846.8286,-122.1061C1846.8286,-122.1061 1846.8286,-140.991 1846.8286,-140.991"/>
<polygon fill="#000000" stroke="#000000" points="1843.3286,-140.9909 1846.8286,-150.991 1850.3286,-140.991 1843.3286,-140.9909"/>
</g>
<!-- BrowserAnimationsModule -->
<g id="node12" class="node">
<title>BrowserAnimationsModule</title>
<polygon fill="#8dd3c7" stroke="#000000" points="1735.3019,-122 1732.3019,-126 1711.3019,-126 1708.3019,-122 1562.6981,-122 1562.6981,-86 1735.3019,-86 1735.3019,-122"/>
<text text-anchor="middle" x="1649" y="-99.8" font-family="Times,serif" font-size="14.00" fill="#000000">BrowserAnimationsModule</text>
</g>
<!-- BrowserAnimationsModule&#45;&gt;AppModule -->
<g id="edge11" class="edge">
<title>BrowserAnimationsModule&#45;&gt;AppModule</title>
<path fill="none" stroke="#000000" d="M1649,-122.1243C1649,-136.7832 1649,-155 1649,-155 1649,-155 1823.2847,-155 1823.2847,-155"/>
<polygon fill="#000000" stroke="#000000" points="1823.2848,-158.5001 1833.2847,-155 1823.2847,-151.5001 1823.2848,-158.5001"/>
</g>
<!-- MatGridListModule -->
<g id="node13" class="node">
<title>MatGridListModule</title>
<polygon fill="#8dd3c7" stroke="#000000" points="1544.5366,-122 1541.5366,-126 1520.5366,-126 1517.5366,-122 1415.4634,-122 1415.4634,-86 1544.5366,-86 1544.5366,-122"/>
<text text-anchor="middle" x="1480" y="-99.8" font-family="Times,serif" font-size="14.00" fill="#000000">MatGridListModule</text>
</g>
<!-- MatGridListModule&#45;&gt;AppModule -->
<g id="edge12" class="edge">
<title>MatGridListModule&#45;&gt;AppModule</title>
<path fill="none" stroke="#000000" d="M1480,-122.0091C1480,-138.0494 1480,-159 1480,-159 1480,-159 1823.102,-159 1823.102,-159"/>
<polygon fill="#000000" stroke="#000000" points="1823.1021,-162.5001 1833.102,-159 1823.102,-155.5001 1823.1021,-162.5001"/>
</g>
<!-- FormsModule -->
<g id="node14" class="node">
<title>FormsModule</title>
<polygon fill="#8dd3c7" stroke="#000000" points="1397.8288,-122 1394.8288,-126 1373.8288,-126 1370.8288,-122 1302.1712,-122 1302.1712,-86 1397.8288,-86 1397.8288,-122"/>
<text text-anchor="middle" x="1350" y="-99.8" font-family="Times,serif" font-size="14.00" fill="#000000">FormsModule</text>
</g>
<!-- FormsModule&#45;&gt;AppModule -->
<g id="edge13" class="edge">
<title>FormsModule&#45;&gt;AppModule</title>
<path fill="none" stroke="#000000" d="M1350,-122.0225C1350,-139.3734 1350,-163 1350,-163 1350,-163 1822.9245,-163 1822.9245,-163"/>
<polygon fill="#000000" stroke="#000000" points="1822.9245,-166.5001 1832.9245,-163 1822.9245,-159.5001 1822.9245,-166.5001"/>
</g>
<!-- HttpClientModule -->
<g id="node15" class="node">
<title>HttpClientModule</title>
<polygon fill="#8dd3c7" stroke="#000000" points="1284.1611,-122 1281.1611,-126 1260.1611,-126 1257.1611,-122 1165.8389,-122 1165.8389,-86 1284.1611,-86 1284.1611,-122"/>
<text text-anchor="middle" x="1225" y="-99.8" font-family="Times,serif" font-size="14.00" fill="#000000">HttpClientModule</text>
</g>
<!-- HttpClientModule&#45;&gt;AppModule -->
<g id="edge14" class="edge">
<title>HttpClientModule&#45;&gt;AppModule</title>
<path fill="none" stroke="#000000" d="M1225,-122.2222C1225,-140.8285 1225,-167 1225,-167 1225,-167 1822.8525,-167 1822.8525,-167"/>
<polygon fill="#000000" stroke="#000000" points="1822.8525,-170.5001 1832.8525,-167 1822.8525,-163.5001 1822.8525,-170.5001"/>
</g>
<!-- ReactiveFormsModule -->
<g id="node16" class="node">
<title>ReactiveFormsModule</title>
<polygon fill="#8dd3c7" stroke="#000000" points="1148.3047,-122 1145.3047,-126 1124.3047,-126 1121.3047,-122 1003.6953,-122 1003.6953,-86 1148.3047,-86 1148.3047,-122"/>
<text text-anchor="middle" x="1076" y="-99.8" font-family="Times,serif" font-size="14.00" fill="#000000">ReactiveFormsModule</text>
</g>
<!-- ReactiveFormsModule&#45;&gt;AppModule -->
<g id="edge15" class="edge">
<title>ReactiveFormsModule&#45;&gt;AppModule</title>
<path fill="none" stroke="#000000" d="M1076,-122.308C1076,-142.1455 1076,-171 1076,-171 1076,-171 1823.1673,-171 1823.1673,-171"/>
<polygon fill="#000000" stroke="#000000" points="1823.1673,-174.5001 1833.1673,-171 1823.1672,-167.5001 1823.1673,-174.5001"/>
</g>
<!-- AngularFireModule.initializeApp(args) -->
<g id="node17" class="node">
<title>AngularFireModule.initializeApp(args)</title>
<polygon fill="#8dd3c7" stroke="#000000" points="985.7057,-122 982.7057,-126 961.7057,-126 958.7057,-122 748.2943,-122 748.2943,-86 985.7057,-86 985.7057,-122"/>
<text text-anchor="middle" x="867" y="-99.8" font-family="Times,serif" font-size="14.00" fill="#000000">AngularFireModule.initializeApp(args)</text>
</g>
<!-- AngularFireModule.initializeApp(args)&#45;&gt;AppModule -->
<g id="edge16" class="edge">
<title>AngularFireModule.initializeApp(args)&#45;&gt;AppModule</title>
<path fill="none" stroke="#000000" d="M867,-122.2843C867,-143.3211 867,-175 867,-175 867,-175 1823.2889,-175 1823.2889,-175"/>
<polygon fill="#000000" stroke="#000000" points="1823.289,-178.5001 1833.2889,-175 1823.2889,-171.5001 1823.289,-178.5001"/>
</g>
<!-- AngularFireStorageModule -->
<g id="node18" class="node">
<title>AngularFireStorageModule</title>
<polygon fill="#8dd3c7" stroke="#000000" points="730.2338,-122 727.2338,-126 706.2338,-126 703.2338,-122 559.7662,-122 559.7662,-86 730.2338,-86 730.2338,-122"/>
<text text-anchor="middle" x="645" y="-99.8" font-family="Times,serif" font-size="14.00" fill="#000000">AngularFireStorageModule</text>
</g>
<!-- AngularFireStorageModule&#45;&gt;AppModule -->
<g id="edge17" class="edge">
<title>AngularFireStorageModule&#45;&gt;AppModule</title>
<path fill="none" stroke="#000000" d="M645,-122.1554C645,-144.3519 645,-179 645,-179 645,-179 1823.0164,-179 1823.0164,-179"/>
<polygon fill="#000000" stroke="#000000" points="1823.0165,-182.5001 1833.0164,-179 1823.0164,-175.5001 1823.0165,-182.5001"/>
</g>
<!-- { provide: LocationStrategy, useClass: HashLocationStrategy } -->
<g id="node20" class="node">
<title>{ provide: LocationStrategy, useClass: HashLocationStrategy }</title>
<ellipse fill="#fdb462" stroke="#000000" cx="280" cy="-104" rx="256.1093" ry="18"/>
<text text-anchor="middle" x="280" y="-99.8" font-family="Times,serif" font-size="14.00" fill="#000000">{ provide: LocationStrategy, useClass: HashLocationStrategy }</text>
</g>
<!-- { provide: LocationStrategy, useClass: HashLocationStrategy }&#45;&gt;AppModule -->
<g id="edge19" class="edge">
<title>{ provide: LocationStrategy, useClass: HashLocationStrategy }&#45;&gt;AppModule</title>
<path fill="none" stroke="#000000" d="M280,-122.3228C280,-145.6602 280,-183 280,-183 280,-183 1823.1575,-183 1823.1575,-183"/>
<polygon fill="#000000" stroke="#000000" points="1823.1575,-186.5001 1833.1575,-183 1823.1574,-179.5001 1823.1575,-186.5001"/>
</g>
</g>
</svg>
