<?xml version="1.0" encoding="UTF-8" standalone="no"?>
<!DOCTYPE svg PUBLIC "-//W3C//DTD SVG 1.1//EN"
 "http://www.w3.org/Graphics/SVG/1.1/DTD/svg11.dtd">
<!-- Generated by graphviz version 2.40.1 (20161225.0304)
 -->
<!-- Title: dependencies Pages: 1 -->
<svg width="1153pt" height="284pt"
 viewBox="0.00 0.00 1153.00 284.00" xmlns="http://www.w3.org/2000/svg" xmlns:xlink="http://www.w3.org/1999/xlink">
<g id="graph0" class="graph" transform="scale(1 1) rotate(0) translate(4 280)">
<title>dependencies</title>
<polygon fill="#ffffff" stroke="transparent" points="-4,4 -4,-280 1149,-280 1149,4 -4,4"/>
<text text-anchor="start" x="551.5091" y="-42.4" font-family="sans-serif" font-weight="bold" font-size="14.00" fill="#000000">Legend</text>
<polygon fill="#ffffb3" stroke="transparent" points="338.5,-10 338.5,-30 358.5,-30 358.5,-10 338.5,-10"/>
<text text-anchor="start" x="362.129" y="-15.4" font-family="sans-serif" font-size="14.00" fill="#000000"> &#160;Declarations</text>
<polygon fill="#8dd3c7" stroke="transparent" points="451.5,-10 451.5,-30 471.5,-30 471.5,-10 451.5,-10"/>
<text text-anchor="start" x="475.2251" y="-15.4" font-family="sans-serif" font-size="14.00" fill="#000000"> &#160;Module</text>
<polygon fill="#80b1d3" stroke="transparent" points="537.5,-10 537.5,-30 557.5,-30 557.5,-10 537.5,-10"/>
<text text-anchor="start" x="561.2812" y="-15.4" font-family="sans-serif" font-size="14.00" fill="#000000"> &#160;Bootstrap</text>
<polygon fill="#fdb462" stroke="transparent" points="634.5,-10 634.5,-30 654.5,-30 654.5,-10 634.5,-10"/>
<text text-anchor="start" x="658.1732" y="-15.4" font-family="sans-serif" font-size="14.00" fill="#000000"> &#160;Providers</text>
<polygon fill="#fb8072" stroke="transparent" points="730.5,-10 730.5,-30 750.5,-30 750.5,-10 730.5,-10"/>
<text text-anchor="start" x="754.2258" y="-15.4" font-family="sans-serif" font-size="14.00" fill="#000000"> &#160;Exports</text>
<g id="clust1" class="cluster">
<title>cluster_AppModule</title>
<polygon fill="none" stroke="#000000" stroke-dasharray="1,5" points="8,-70 8,-268 1137,-268 1137,-70 8,-70"/>
</g>
<g id="clust2" class="cluster">
<title>cluster_AppModule_declarations</title>
<polygon fill="none" stroke="#000000" points="234,-78 234,-130 1129,-130 1129,-78 234,-78"/>
</g>
<g id="clust14" class="cluster">
<title>cluster_AppModule_bootstrap</title>
<polygon fill="none" stroke="#000000" points="571,-208 571,-260 659,-260 659,-208 571,-208"/>
</g>
<g id="clust15" class="cluster">
<title>cluster_AppModule_providers</title>
<polygon fill="none" stroke="#000000" points="16,-78 16,-130 226,-130 226,-78 16,-78"/>
</g>
<!-- AboutPage -->
<g id="node1" class="node">
<title>AboutPage</title>
<polygon fill="#ffffb3" stroke="#000000" points="1121.2093,-122 1042.7907,-122 1042.7907,-86 1121.2093,-86 1121.2093,-122"/>
<text text-anchor="middle" x="1082" y="-99.8" font-family="Times,serif" font-size="14.00" fill="#000000">AboutPage</text>
</g>
<!-- AppModule -->
<g id="node10" class="node">
<title>AppModule</title>
<polygon fill="#8dd3c7" stroke="#000000" points="656.6571,-187 653.6571,-191 632.6571,-191 629.6571,-187 573.3429,-187 573.3429,-151 656.6571,-151 656.6571,-187"/>
<text text-anchor="middle" x="615" y="-164.8" font-family="Times,serif" font-size="14.00" fill="#000000">AppModule</text>
</g>
<!-- AboutPage&#45;&gt;AppModule -->
<g id="edge1" class="edge">
<title>AboutPage&#45;&gt;AppModule</title>
<path fill="none" stroke="#000000" d="M1082,-122.0109C1082,-144.4852 1082,-180 1082,-180 1082,-180 666.8541,-180 666.8541,-180"/>
<polygon fill="#000000" stroke="#000000" points="666.8542,-176.5001 656.8541,-180 666.8541,-183.5001 666.8542,-176.5001"/>
</g>
<!-- ContactPage -->
<g id="node2" class="node">
<title>ContactPage</title>
<polygon fill="#ffffb3" stroke="#000000" points="1025.2591,-122 938.7409,-122 938.7409,-86 1025.2591,-86 1025.2591,-122"/>
<text text-anchor="middle" x="982" y="-99.8" font-family="Times,serif" font-size="14.00" fill="#000000">ContactPage</text>
</g>
<!-- ContactPage&#45;&gt;AppModule -->
<g id="edge2" class="edge">
<title>ContactPage&#45;&gt;AppModule</title>
<path fill="none" stroke="#000000" d="M982,-122.1289C982,-142.5724 982,-173 982,-173 982,-173 666.7423,-173 666.7423,-173"/>
<polygon fill="#000000" stroke="#000000" points="666.7423,-169.5001 656.7423,-173 666.7422,-176.5001 666.7423,-169.5001"/>
</g>
<!-- FeedbackPage -->
<g id="node3" class="node">
<title>FeedbackPage</title>
<polygon fill="#ffffb3" stroke="#000000" points="920.3529,-122 823.6471,-122 823.6471,-86 920.3529,-86 920.3529,-122"/>
<text text-anchor="middle" x="872" y="-99.8" font-family="Times,serif" font-size="14.00" fill="#000000">FeedbackPage</text>
</g>
<!-- FeedbackPage&#45;&gt;AppModule -->
<g id="edge3" class="edge">
<title>FeedbackPage&#45;&gt;AppModule</title>
<path fill="none" stroke="#000000" d="M872,-122.2667C872,-140.5552 872,-166 872,-166 872,-166 666.8635,-166 666.8635,-166"/>
<polygon fill="#000000" stroke="#000000" points="666.8635,-162.5001 656.8635,-166 666.8634,-169.5001 666.8635,-162.5001"/>
</g>
<!-- HomePage -->
<g id="node4" class="node">
<title>HomePage</title>
<polygon fill="#ffffb3" stroke="#000000" points="805.9248,-122 728.0752,-122 728.0752,-86 805.9248,-86 805.9248,-122"/>
<text text-anchor="middle" x="767" y="-99.8" font-family="Times,serif" font-size="14.00" fill="#000000">HomePage</text>
</g>
<!-- HomePage&#45;&gt;AppModule -->
<g id="edge4" class="edge">
<title>HomePage&#45;&gt;AppModule</title>
<path fill="none" stroke="#000000" d="M767,-122.0091C767,-138.0494 767,-159 767,-159 767,-159 666.937,-159 666.937,-159"/>
<polygon fill="#000000" stroke="#000000" points="666.9371,-155.5001 656.937,-159 666.937,-162.5001 666.9371,-155.5001"/>
</g>
<!-- ImagerecPage -->
<g id="node5" class="node">
<title>ImagerecPage</title>
<polygon fill="#ffffb3" stroke="#000000" points="710.7824,-122 615.2176,-122 615.2176,-86 710.7824,-86 710.7824,-122"/>
<text text-anchor="middle" x="663" y="-99.8" font-family="Times,serif" font-size="14.00" fill="#000000">ImagerecPage</text>
</g>
<!-- ImagerecPage&#45;&gt;AppModule -->
<g id="edge5" class="edge">
<title>ImagerecPage&#45;&gt;AppModule</title>
<path fill="none" stroke="#000000" d="M636.0936,-122.1061C636.0936,-122.1061 636.0936,-140.991 636.0936,-140.991"/>
<polygon fill="#000000" stroke="#000000" points="632.5937,-140.9909 636.0936,-150.991 639.5937,-140.991 632.5937,-140.9909"/>
</g>
<!-- MyApp -->
<g id="node6" class="node">
<title>MyApp</title>
<polygon fill="#ffffb3" stroke="#000000" points="597.5529,-122 538.4471,-122 538.4471,-86 597.5529,-86 597.5529,-122"/>
<text text-anchor="middle" x="568" y="-99.8" font-family="Times,serif" font-size="14.00" fill="#000000">MyApp</text>
</g>
<!-- MyApp&#45;&gt;AppModule -->
<g id="edge6" class="edge">
<title>MyApp&#45;&gt;AppModule</title>
<path fill="none" stroke="#000000" d="M585.4737,-122.1061C585.4737,-122.1061 585.4737,-140.991 585.4737,-140.991"/>
<polygon fill="#000000" stroke="#000000" points="581.9738,-140.9909 585.4737,-150.991 588.9738,-140.991 581.9738,-140.9909"/>
</g>
<!-- ResultsPage -->
<g id="node7" class="node">
<title>ResultsPage</title>
<polygon fill="#ffffb3" stroke="#000000" points="520.4345,-122 435.5655,-122 435.5655,-86 520.4345,-86 520.4345,-122"/>
<text text-anchor="middle" x="478" y="-99.8" font-family="Times,serif" font-size="14.00" fill="#000000">ResultsPage</text>
</g>
<!-- ResultsPage&#45;&gt;AppModule -->
<g id="edge7" class="edge">
<title>ResultsPage&#45;&gt;AppModule</title>
<path fill="none" stroke="#000000" d="M478,-122.0091C478,-138.0494 478,-159 478,-159 478,-159 563.1511,-159 563.1511,-159"/>
<polygon fill="#000000" stroke="#000000" points="563.1511,-162.5001 573.1511,-159 563.151,-155.5001 563.1511,-162.5001"/>
</g>
<!-- TabsPage -->
<g id="node8" class="node">
<title>TabsPage</title>
<polygon fill="#ffffb3" stroke="#000000" points="418.4249,-122 347.5751,-122 347.5751,-86 418.4249,-86 418.4249,-122"/>
<text text-anchor="middle" x="383" y="-99.8" font-family="Times,serif" font-size="14.00" fill="#000000">TabsPage</text>
</g>
<!-- TabsPage&#45;&gt;AppModule -->
<g id="edge8" class="edge">
<title>TabsPage&#45;&gt;AppModule</title>
<path fill="none" stroke="#000000" d="M383,-122.2667C383,-140.5552 383,-166 383,-166 383,-166 563.2551,-166 563.2551,-166"/>
<polygon fill="#000000" stroke="#000000" points="563.2551,-169.5001 573.2551,-166 563.2551,-162.5001 563.2551,-169.5001"/>
</g>
<!-- UtilitiesPage -->
<g id="node9" class="node">
<title>UtilitiesPage</title>
<polygon fill="#ffffb3" stroke="#000000" points="330.3218,-122 241.6782,-122 241.6782,-86 330.3218,-86 330.3218,-122"/>
<text text-anchor="middle" x="286" y="-99.8" font-family="Times,serif" font-size="14.00" fill="#000000">UtilitiesPage</text>
</g>
<!-- UtilitiesPage&#45;&gt;AppModule -->
<g id="edge9" class="edge">
<title>UtilitiesPage&#45;&gt;AppModule</title>
<path fill="none" stroke="#000000" d="M286,-122.1289C286,-142.5724 286,-173 286,-173 286,-173 563.3319,-173 563.3319,-173"/>
<polygon fill="#000000" stroke="#000000" points="563.332,-176.5001 573.3319,-173 563.3319,-169.5001 563.332,-176.5001"/>
</g>
<!-- IonicApp  -->
<g id="node11" class="node">
<title>IonicApp </title>
<polygon fill="#80b1d3" stroke="#000000" points="651.3734,-252 578.6266,-252 578.6266,-216 651.3734,-216 651.3734,-252"/>
<text text-anchor="middle" x="615" y="-229.8" font-family="Times,serif" font-size="14.00" fill="#000000">IonicApp </text>
</g>
<!-- AppModule&#45;&gt;IonicApp  -->
<g id="edge10" class="edge">
<title>AppModule&#45;&gt;IonicApp </title>
<path fill="none" stroke="#000000" stroke-dasharray="1,5" d="M615,-187.1061C615,-187.1061 615,-205.991 615,-205.991"/>
<polygon fill="#000000" stroke="#000000" points="611.5001,-205.9909 615,-215.991 618.5001,-205.991 611.5001,-205.9909"/>
</g>
<!-- ModelLoaderProvider -->
<g id="node12" class="node">
<title>ModelLoaderProvider</title>
<ellipse fill="#fdb462" stroke="#000000" cx="121" cy="-104" rx="96.6926" ry="18"/>
<text text-anchor="middle" x="121" y="-99.8" font-family="Times,serif" font-size="14.00" fill="#000000">ModelLoaderProvider</text>
</g>
<!-- ModelLoaderProvider&#45;&gt;AppModule -->
<g id="edge11" class="edge">
<title>ModelLoaderProvider&#45;&gt;AppModule</title>
<path fill="none" stroke="#000000" d="M121,-122.0109C121,-144.4852 121,-180 121,-180 121,-180 563.3076,-180 563.3076,-180"/>
<polygon fill="#000000" stroke="#000000" points="563.3076,-183.5001 573.3076,-180 563.3076,-176.5001 563.3076,-183.5001"/>
</g>
</g>
</svg>
