<?xml version="1.0" encoding="UTF-8" standalone="no"?>
<!DOCTYPE svg PUBLIC "-//W3C//DTD SVG 1.1//EN"
 "http://www.w3.org/Graphics/SVG/1.1/DTD/svg11.dtd">
<!-- Generated by graphviz version 2.40.1 (20161225.0304)
 -->
<!-- Title: dependencies Pages: 1 -->
<svg width="1661pt" height="284pt"
 viewBox="0.00 0.00 1661.00 284.00" xmlns="http://www.w3.org/2000/svg" xmlns:xlink="http://www.w3.org/1999/xlink">
<g id="graph0" class="graph" transform="scale(1 1) rotate(0) translate(4 280)">
<title>dependencies</title>
<polygon fill="#ffffff" stroke="transparent" points="-4,4 -4,-280 1657,-280 1657,4 -4,4"/>
<text text-anchor="start" x="805.5091" y="-42.4" font-family="sans-serif" font-weight="bold" font-size="14.00" fill="#000000">Legend</text>
<polygon fill="#ffffb3" stroke="transparent" points="592.5,-10 592.5,-30 612.5,-30 612.5,-10 592.5,-10"/>
<text text-anchor="start" x="616.129" y="-15.4" font-family="sans-serif" font-size="14.00" fill="#000000"> &#160;Declarations</text>
<polygon fill="#8dd3c7" stroke="transparent" points="705.5,-10 705.5,-30 725.5,-30 725.5,-10 705.5,-10"/>
<text text-anchor="start" x="729.2251" y="-15.4" font-family="sans-serif" font-size="14.00" fill="#000000"> &#160;Module</text>
<polygon fill="#80b1d3" stroke="transparent" points="791.5,-10 791.5,-30 811.5,-30 811.5,-10 791.5,-10"/>
<text text-anchor="start" x="815.2812" y="-15.4" font-family="sans-serif" font-size="14.00" fill="#000000"> &#160;Bootstrap</text>
<polygon fill="#fdb462" stroke="transparent" points="888.5,-10 888.5,-30 908.5,-30 908.5,-10 888.5,-10"/>
<text text-anchor="start" x="912.1732" y="-15.4" font-family="sans-serif" font-size="14.00" fill="#000000"> &#160;Providers</text>
<polygon fill="#fb8072" stroke="transparent" points="984.5,-10 984.5,-30 1004.5,-30 1004.5,-10 984.5,-10"/>
<text text-anchor="start" x="1008.2258" y="-15.4" font-family="sans-serif" font-size="14.00" fill="#000000"> &#160;Exports</text>
<g id="clust1" class="cluster">
<title>cluster_AppModule</title>
<polygon fill="none" stroke="#000000" stroke-dasharray="1,5" points="8,-70 8,-268 1459,-268 1459,-70 8,-70"/>
</g>
<g id="clust2" class="cluster">
<title>cluster_AppModule_declarations</title>
<polygon fill="none" stroke="#000000" points="418,-78 418,-130 1451,-130 1451,-78 418,-78"/>
</g>
<g id="clust15" class="cluster">
<title>cluster_AppModule_bootstrap</title>
<polygon fill="none" stroke="#000000" points="755,-208 755,-260 843,-260 843,-208 755,-208"/>
</g>
<g id="clust16" class="cluster">
<title>cluster_AppModule_providers</title>
<polygon fill="none" stroke="#000000" points="16,-78 16,-130 410,-130 410,-78 16,-78"/>
</g>
<g id="clust17" class="cluster">
<title>cluster_QuoteBuilderPageModule</title>
<polygon fill="none" stroke="#000000" stroke-dasharray="1,5" points="1467,-143 1467,-195 1645,-195 1645,-143 1467,-143"/>
</g>
<!-- AboutPage -->
<g id="node1" class="node">
<title>AboutPage</title>
<polygon fill="#ffffb3" stroke="#000000" points="1305.2093,-122 1226.7907,-122 1226.7907,-86 1305.2093,-86 1305.2093,-122"/>
<text text-anchor="middle" x="1266" y="-99.8" font-family="Times,serif" font-size="14.00" fill="#000000">AboutPage</text>
</g>
<!-- AppModule -->
<g id="node11" class="node">
<title>AppModule</title>
<polygon fill="#8dd3c7" stroke="#000000" points="840.6571,-187 837.6571,-191 816.6571,-191 813.6571,-187 757.3429,-187 757.3429,-151 840.6571,-151 840.6571,-187"/>
<text text-anchor="middle" x="799" y="-164.8" font-family="Times,serif" font-size="14.00" fill="#000000">AppModule</text>
</g>
<!-- AboutPage&#45;&gt;AppModule -->
<g id="edge1" class="edge">
<title>AboutPage&#45;&gt;AppModule</title>
<path fill="none" stroke="#000000" d="M1266,-122.0449C1266,-143.6623 1266,-177 1266,-177 1266,-177 850.8541,-177 850.8541,-177"/>
<polygon fill="#000000" stroke="#000000" points="850.8542,-173.5001 840.8541,-177 850.8541,-180.5001 850.8542,-173.5001"/>
</g>
<!-- ContactPage -->
<g id="node2" class="node">
<title>ContactPage</title>
<polygon fill="#ffffb3" stroke="#000000" points="1209.2591,-122 1122.7409,-122 1122.7409,-86 1209.2591,-86 1209.2591,-122"/>
<text text-anchor="middle" x="1166" y="-99.8" font-family="Times,serif" font-size="14.00" fill="#000000">ContactPage</text>
</g>
<!-- ContactPage&#45;&gt;AppModule -->
<g id="edge2" class="edge">
<title>ContactPage&#45;&gt;AppModule</title>
<path fill="none" stroke="#000000" d="M1166,-122.2228C1166,-142.3652 1166,-172 1166,-172 1166,-172 850.7423,-172 850.7423,-172"/>
<polygon fill="#000000" stroke="#000000" points="850.7423,-168.5001 840.7423,-172 850.7422,-175.5001 850.7423,-168.5001"/>
</g>
<!-- FeedbackPage -->
<g id="node3" class="node">
<title>FeedbackPage</title>
<polygon fill="#ffffb3" stroke="#000000" points="1104.3529,-122 1007.6471,-122 1007.6471,-86 1104.3529,-86 1104.3529,-122"/>
<text text-anchor="middle" x="1056" y="-99.8" font-family="Times,serif" font-size="14.00" fill="#000000">FeedbackPage</text>
</g>
<!-- FeedbackPage&#45;&gt;AppModule -->
<g id="edge3" class="edge">
<title>FeedbackPage&#45;&gt;AppModule</title>
<path fill="none" stroke="#000000" d="M1056,-122.2222C1056,-140.8285 1056,-167 1056,-167 1056,-167 850.8635,-167 850.8635,-167"/>
<polygon fill="#000000" stroke="#000000" points="850.8635,-163.5001 840.8635,-167 850.8634,-170.5001 850.8635,-163.5001"/>
</g>
<!-- HomePage -->
<g id="node4" class="node">
<title>HomePage</title>
<polygon fill="#ffffb3" stroke="#000000" points="989.9248,-122 912.0752,-122 912.0752,-86 989.9248,-86 989.9248,-122"/>
<text text-anchor="middle" x="951" y="-99.8" font-family="Times,serif" font-size="14.00" fill="#000000">HomePage</text>
</g>
<!-- HomePage&#45;&gt;AppModule -->
<g id="edge4" class="edge">
<title>HomePage&#45;&gt;AppModule</title>
<path fill="none" stroke="#000000" d="M951,-122.0336C951,-139.0597 951,-162 951,-162 951,-162 850.937,-162 850.937,-162"/>
<polygon fill="#000000" stroke="#000000" points="850.9371,-158.5001 840.937,-162 850.937,-165.5001 850.9371,-158.5001"/>
</g>
<!-- ImagerecPage -->
<g id="node5" class="node">
<title>ImagerecPage</title>
<polygon fill="#ffffb3" stroke="#000000" points="894.7824,-122 799.2176,-122 799.2176,-86 894.7824,-86 894.7824,-122"/>
<text text-anchor="middle" x="847" y="-99.8" font-family="Times,serif" font-size="14.00" fill="#000000">ImagerecPage</text>
</g>
<!-- ImagerecPage&#45;&gt;AppModule -->
<g id="edge5" class="edge">
<title>ImagerecPage&#45;&gt;AppModule</title>
<path fill="none" stroke="#000000" d="M820.0936,-122.1061C820.0936,-122.1061 820.0936,-140.991 820.0936,-140.991"/>
<polygon fill="#000000" stroke="#000000" points="816.5937,-140.9909 820.0936,-150.991 823.5937,-140.991 816.5937,-140.9909"/>
</g>
<!-- MyApp -->
<g id="node6" class="node">
<title>MyApp</title>
<polygon fill="#ffffb3" stroke="#000000" points="781.5529,-122 722.4471,-122 722.4471,-86 781.5529,-86 781.5529,-122"/>
<text text-anchor="middle" x="752" y="-99.8" font-family="Times,serif" font-size="14.00" fill="#000000">MyApp</text>
</g>
<!-- MyApp&#45;&gt;AppModule -->
<g id="edge6" class="edge">
<title>MyApp&#45;&gt;AppModule</title>
<path fill="none" stroke="#000000" d="M769.4737,-122.1061C769.4737,-122.1061 769.4737,-140.991 769.4737,-140.991"/>
<polygon fill="#000000" stroke="#000000" points="765.9738,-140.9909 769.4737,-150.991 772.9738,-140.991 765.9738,-140.9909"/>
</g>
<!-- QuoteBuilderPage -->
<g id="node7" class="node">
<title>QuoteBuilderPage</title>
<polygon fill="#ffffb3" stroke="#000000" points="1442.9173,-122 1323.0827,-122 1323.0827,-86 1442.9173,-86 1442.9173,-122"/>
<text text-anchor="middle" x="1383" y="-99.8" font-family="Times,serif" font-size="14.00" fill="#000000">QuoteBuilderPage</text>
</g>
<!-- QuoteBuilderPage&#45;&gt;AppModule -->
<g id="edge7" class="edge">
<title>QuoteBuilderPage&#45;&gt;AppModule</title>
<path fill="none" stroke="#000000" d="M1363.0972,-122.0908C1363.0972,-145.1328 1363.0972,-182 1363.0972,-182 1363.0972,-182 850.9381,-182 850.9381,-182"/>
<polygon fill="#000000" stroke="#000000" points="850.9382,-178.5001 840.9381,-182 850.9381,-185.5001 850.9382,-178.5001"/>
</g>
<!-- QuoteBuilderPageModule -->
<g id="node15" class="node">
<title>QuoteBuilderPageModule</title>
<polygon fill="#8dd3c7" stroke="#000000" points="1637.4664,-187 1634.4664,-191 1613.4664,-191 1610.4664,-187 1474.5336,-187 1474.5336,-151 1637.4664,-151 1637.4664,-187"/>
<text text-anchor="middle" x="1556" y="-164.8" font-family="Times,serif" font-size="14.00" fill="#000000">QuoteBuilderPageModule</text>
</g>
<!-- QuoteBuilderPage&#45;&gt;QuoteBuilderPageModule -->
<g id="edge14" class="edge">
<title>QuoteBuilderPage&#45;&gt;QuoteBuilderPageModule</title>
<path fill="none" stroke="#000000" d="M1402.9028,-122.2396C1402.9028,-137.5706 1402.9028,-157 1402.9028,-157 1402.9028,-157 1464.5206,-157 1464.5206,-157"/>
<polygon fill="#000000" stroke="#000000" points="1464.5207,-160.5001 1474.5206,-157 1464.5206,-153.5001 1464.5207,-160.5001"/>
</g>
<!-- ResultsPage -->
<g id="node8" class="node">
<title>ResultsPage</title>
<polygon fill="#ffffb3" stroke="#000000" points="598.4345,-122 513.5655,-122 513.5655,-86 598.4345,-86 598.4345,-122"/>
<text text-anchor="middle" x="556" y="-99.8" font-family="Times,serif" font-size="14.00" fill="#000000">ResultsPage</text>
</g>
<!-- ResultsPage&#45;&gt;AppModule -->
<g id="edge8" class="edge">
<title>ResultsPage&#45;&gt;AppModule</title>
<path fill="none" stroke="#000000" d="M556,-122.0225C556,-139.3734 556,-163 556,-163 556,-163 747.2268,-163 747.2268,-163"/>
<polygon fill="#000000" stroke="#000000" points="747.2268,-166.5001 757.2268,-163 747.2268,-159.5001 747.2268,-166.5001"/>
</g>
<!-- TabsPage -->
<g id="node9" class="node">
<title>TabsPage</title>
<polygon fill="#ffffb3" stroke="#000000" points="496.4249,-122 425.5751,-122 425.5751,-86 496.4249,-86 496.4249,-122"/>
<text text-anchor="middle" x="461" y="-99.8" font-family="Times,serif" font-size="14.00" fill="#000000">TabsPage</text>
</g>
<!-- TabsPage&#45;&gt;AppModule -->
<g id="edge9" class="edge">
<title>TabsPage&#45;&gt;AppModule</title>
<path fill="none" stroke="#000000" d="M461,-122.1061C461,-141.3391 461,-169 461,-169 461,-169 747.2156,-169 747.2156,-169"/>
<polygon fill="#000000" stroke="#000000" points="747.2156,-172.5001 757.2156,-169 747.2155,-165.5001 747.2156,-172.5001"/>
</g>
<!-- UtilitiesPage -->
<g id="node10" class="node">
<title>UtilitiesPage</title>
<polygon fill="#ffffb3" stroke="#000000" points="704.3218,-122 615.6782,-122 615.6782,-86 704.3218,-86 704.3218,-122"/>
<text text-anchor="middle" x="660" y="-99.8" font-family="Times,serif" font-size="14.00" fill="#000000">UtilitiesPage</text>
</g>
<!-- UtilitiesPage&#45;&gt;AppModule -->
<g id="edge10" class="edge">
<title>UtilitiesPage&#45;&gt;AppModule</title>
<path fill="none" stroke="#000000" d="M660,-122.2396C660,-137.5706 660,-157 660,-157 660,-157 747.2954,-157 747.2954,-157"/>
<polygon fill="#000000" stroke="#000000" points="747.2955,-160.5001 757.2954,-157 747.2954,-153.5001 747.2955,-160.5001"/>
</g>
<!-- IonicApp  -->
<g id="node12" class="node">
<title>IonicApp </title>
<polygon fill="#80b1d3" stroke="#000000" points="835.3734,-252 762.6266,-252 762.6266,-216 835.3734,-216 835.3734,-252"/>
<text text-anchor="middle" x="799" y="-229.8" font-family="Times,serif" font-size="14.00" fill="#000000">IonicApp </text>
</g>
<!-- AppModule&#45;&gt;IonicApp  -->
<g id="edge11" class="edge">
<title>AppModule&#45;&gt;IonicApp </title>
<path fill="none" stroke="#000000" stroke-dasharray="1,5" d="M799,-187.1061C799,-187.1061 799,-205.991 799,-205.991"/>
<polygon fill="#000000" stroke="#000000" points="795.5001,-205.9909 799,-215.991 802.5001,-205.991 795.5001,-205.9909"/>
</g>
<!-- ModelLoaderProvider -->
<g id="node13" class="node">
<title>ModelLoaderProvider</title>
<ellipse fill="#fdb462" stroke="#000000" cx="305" cy="-104" rx="96.6926" ry="18"/>
<text text-anchor="middle" x="305" y="-99.8" font-family="Times,serif" font-size="14.00" fill="#000000">ModelLoaderProvider</text>
</g>
<!-- ModelLoaderProvider&#45;&gt;AppModule -->
<g id="edge12" class="edge">
<title>ModelLoaderProvider&#45;&gt;AppModule</title>
<path fill="none" stroke="#000000" d="M305,-122.2843C305,-143.3211 305,-175 305,-175 305,-175 747.3076,-175 747.3076,-175"/>
<polygon fill="#000000" stroke="#000000" points="747.3076,-178.5001 757.3076,-175 747.3076,-171.5001 747.3076,-178.5001"/>
</g>
<!-- QuotationProvider -->
<g id="node14" class="node">
<title>QuotationProvider</title>
<ellipse fill="#fdb462" stroke="#000000" cx="107" cy="-104" rx="82.8264" ry="18"/>
<text text-anchor="middle" x="107" y="-99.8" font-family="Times,serif" font-size="14.00" fill="#000000">QuotationProvider</text>
</g>
<!-- QuotationProvider&#45;&gt;AppModule -->
<g id="edge13" class="edge">
<title>QuotationProvider&#45;&gt;AppModule</title>
<path fill="none" stroke="#000000" d="M107,-122.2479C107,-145.0179 107,-181 107,-181 107,-181 747.2707,-181 747.2707,-181"/>
<polygon fill="#000000" stroke="#000000" points="747.2707,-184.5001 757.2707,-181 747.2706,-177.5001 747.2707,-184.5001"/>
</g>
</g>
</svg>
