<?xml version="1.0" encoding="UTF-8" standalone="no"?>
<!DOCTYPE svg PUBLIC "-//W3C//DTD SVG 1.1//EN"
 "http://www.w3.org/Graphics/SVG/1.1/DTD/svg11.dtd">
<!-- Generated by graphviz version 2.40.1 (20161225.0304)
 -->
<!-- Title: dependencies Pages: 1 -->
<svg width="634pt" height="211pt"
 viewBox="0.00 0.00 634.00 211.00" xmlns="http://www.w3.org/2000/svg" xmlns:xlink="http://www.w3.org/1999/xlink">
<g id="graph0" class="graph" transform="scale(1 1) rotate(0) translate(4 207)">
<title>dependencies</title>
<polygon fill="#ffffff" stroke="transparent" points="-4,4 -4,-207 630,-207 630,4 -4,4"/>
<text text-anchor="start" x="292.0091" y="-42.4" font-family="sans-serif" font-weight="bold" font-size="14.00" fill="#000000">Legend</text>
<polygon fill="#ffffb3" stroke="transparent" points="79,-10 79,-30 99,-30 99,-10 79,-10"/>
<text text-anchor="start" x="102.629" y="-15.4" font-family="sans-serif" font-size="14.00" fill="#000000"> &#160;Declarations</text>
<polygon fill="#8dd3c7" stroke="transparent" points="192,-10 192,-30 212,-30 212,-10 192,-10"/>
<text text-anchor="start" x="215.7251" y="-15.4" font-family="sans-serif" font-size="14.00" fill="#000000"> &#160;Module</text>
<polygon fill="#80b1d3" stroke="transparent" points="278,-10 278,-30 298,-30 298,-10 278,-10"/>
<text text-anchor="start" x="301.7812" y="-15.4" font-family="sans-serif" font-size="14.00" fill="#000000"> &#160;Bootstrap</text>
<polygon fill="#fdb462" stroke="transparent" points="375,-10 375,-30 395,-30 395,-10 375,-10"/>
<text text-anchor="start" x="398.6732" y="-15.4" font-family="sans-serif" font-size="14.00" fill="#000000"> &#160;Providers</text>
<polygon fill="#fb8072" stroke="transparent" points="471,-10 471,-30 491,-30 491,-10 471,-10"/>
<text text-anchor="start" x="494.7258" y="-15.4" font-family="sans-serif" font-size="14.00" fill="#000000"> &#160;Exports</text>
<g id="clust1" class="cluster">
<title>cluster_CoreModule</title>
<polygon fill="none" stroke="#000000" stroke-dasharray="1,5" points="8,-70 8,-195 618,-195 618,-70 8,-70"/>
</g>
<g id="clust6" class="cluster">
<title>cluster_CoreModule_providers</title>
<polygon fill="none" stroke="#000000" points="16,-78 16,-130 610,-130 610,-78 16,-78"/>
</g>
<!-- AlertService -->
<g id="node1" class="node">
<title>AlertService</title>
<ellipse fill="#fdb462" stroke="#000000" cx="542" cy="-104" rx="59.6646" ry="18"/>
<text text-anchor="middle" x="542" y="-99.8" font-family="Times,serif" font-size="14.00" fill="#000000">AlertService</text>
</g>
<!-- CoreModule -->
<g id="node5" class="node">
<title>CoreModule</title>
<polygon fill="#8dd3c7" stroke="#000000" points="372.2619,-187 369.2619,-191 348.2619,-191 345.2619,-187 285.7381,-187 285.7381,-151 372.2619,-151 372.2619,-187"/>
<text text-anchor="middle" x="329" y="-164.8" font-family="Times,serif" font-size="14.00" fill="#000000">CoreModule</text>
</g>
<!-- AlertService&#45;&gt;CoreModule -->
<g id="edge1" class="edge">
<title>AlertService&#45;&gt;CoreModule</title>
<path fill="none" stroke="#000000" d="M542,-122.1061C542,-141.3391 542,-169 542,-169 542,-169 382.3605,-169 382.3605,-169"/>
<polygon fill="#000000" stroke="#000000" points="382.3605,-165.5001 372.3605,-169 382.3604,-172.5001 382.3605,-165.5001"/>
</g>
<!-- AuthService -->
<g id="node2" class="node">
<title>AuthService</title>
<ellipse fill="#fdb462" stroke="#000000" cx="405" cy="-104" rx="59.1083" ry="18"/>
<text text-anchor="middle" x="405" y="-99.8" font-family="Times,serif" font-size="14.00" fill="#000000">AuthService</text>
</g>
<!-- AuthService&#45;&gt;CoreModule -->
<g id="edge2" class="edge">
<title>AuthService&#45;&gt;CoreModule</title>
<path fill="none" stroke="#000000" d="M359.0385,-115.6207C359.0385,-115.6207 359.0385,-140.8534 359.0385,-140.8534"/>
<polygon fill="#000000" stroke="#000000" points="355.5386,-140.8533 359.0385,-150.8534 362.5386,-140.8534 355.5386,-140.8533"/>
</g>
<!-- BackendService -->
<g id="node3" class="node">
<title>BackendService</title>
<ellipse fill="#fdb462" stroke="#000000" cx="254" cy="-104" rx="73.556" ry="18"/>
<text text-anchor="middle" x="254" y="-99.8" font-family="Times,serif" font-size="14.00" fill="#000000">BackendService</text>
</g>
<!-- BackendService&#45;&gt;CoreModule -->
<g id="edge3" class="edge">
<title>BackendService&#45;&gt;CoreModule</title>
<path fill="none" stroke="#000000" d="M306.6984,-116.8419C306.6984,-116.8419 306.6984,-140.5231 306.6984,-140.5231"/>
<polygon fill="#000000" stroke="#000000" points="303.1985,-140.523 306.6984,-150.5231 310.1985,-140.5231 303.1985,-140.523"/>
</g>
<!-- ModelsService -->
<g id="node4" class="node">
<title>ModelsService</title>
<ellipse fill="#fdb462" stroke="#000000" cx="93" cy="-104" rx="68.9177" ry="18"/>
<text text-anchor="middle" x="93" y="-99.8" font-family="Times,serif" font-size="14.00" fill="#000000">ModelsService</text>
</g>
<!-- ModelsService&#45;&gt;CoreModule -->
<g id="edge4" class="edge">
<title>ModelsService&#45;&gt;CoreModule</title>
<path fill="none" stroke="#000000" d="M93,-122.1061C93,-141.3391 93,-169 93,-169 93,-169 275.714,-169 275.714,-169"/>
<polygon fill="#000000" stroke="#000000" points="275.714,-172.5001 285.714,-169 275.7139,-165.5001 275.714,-172.5001"/>
</g>
</g>
</svg>
