<?xml version="1.0" standalone="no"?><!-- Generator: Gravit.io --><svg xmlns="http://www.w3.org/2000/svg" xmlns:xlink="http://www.w3.org/1999/xlink" style="isolation:isolate" viewBox="0 0 50 50" width="50" height="50"><defs><clipPath id="_clipPath_a2HowxII2qcf570vaZsISGHo6Uc1fvdP"><rect width="50" height="50"/></clipPath></defs><g clip-path="url(#_clipPath_a2HowxII2qcf570vaZsISGHo6Uc1fvdP)"><path d=" M 12.826 4.167 C 12.541 4.126 12.248 4.159 11.979 4.232 L 31.25 23.503 L 36.068 18.75 L 13.607 4.492 C 13.338 4.321 13.11 4.207 12.826 4.167 Z  M 10.482 5.729 C 10.433 5.9 10.417 6.063 10.417 6.25 L 10.417 43.75 C 10.417 43.937 10.433 44.1 10.482 44.271 L 29.753 25 L 10.482 5.729 Z  M 37.826 19.857 L 32.747 25 L 37.826 30.143 L 43.099 26.758 C 44.368 25.936 44.368 24.064 43.099 23.242 L 37.826 19.857 Z  M 31.25 26.497 L 11.979 45.768 C 12.516 45.915 13.07 45.85 13.607 45.508 L 36.068 31.25 L 31.25 26.497 Z " fill="rgb(211,211,211)"/></g></svg>