<?xml version="1.0" encoding="UTF-8"?>
<svg xmlns="http://www.w3.org/2000/svg" xmlns:xlink="http://www.w3.org/1999/xlink" viewBox="0 0 24 24" version="1.1" width="50px" height="50px">
<g id="surface1">
<path style=" " d="M 6.15625 2 C 6.019531 1.980469 5.878906 1.996094 5.75 2.03125 L 15 11.28125 L 17.3125 9 L 6.53125 2.15625 C 6.402344 2.074219 6.292969 2.019531 6.15625 2 Z M 5.03125 2.75 C 5.007813 2.832031 5 2.910156 5 3 L 5 21 C 5 21.089844 5.007813 21.167969 5.03125 21.25 L 14.28125 12 Z M 18.15625 9.53125 L 15.71875 12 L 18.15625 14.46875 L 20.6875 12.84375 C 21.296875 12.449219 21.296875 11.550781 20.6875 11.15625 Z M 15 12.71875 L 5.75 21.96875 C 6.007813 22.039063 6.273438 22.007813 6.53125 21.84375 L 17.3125 15 Z "/>
</g>
</svg>
