<?xml version="1.0" encoding="UTF-8" standalone="no"?>
<!DOCTYPE svg PUBLIC "-//W3C//DTD SVG 1.1//EN"
 "http://www.w3.org/Graphics/SVG/1.1/DTD/svg11.dtd">
<!-- Generated by graphviz version 2.40.1 (20161225.0304)
 -->
<!-- Title: dependencies Pages: 1 -->
<svg width="1805pt" height="284pt"
 viewBox="0.00 0.00 1805.00 284.00" xmlns="http://www.w3.org/2000/svg" xmlns:xlink="http://www.w3.org/1999/xlink">
<g id="graph0" class="graph" transform="scale(1 1) rotate(0) translate(4 280)">
<title>dependencies</title>
<polygon fill="#ffffff" stroke="transparent" points="-4,4 -4,-280 1801,-280 1801,4 -4,4"/>
<text text-anchor="start" x="877.5091" y="-42.4" font-family="sans-serif" font-weight="bold" font-size="14.00" fill="#000000">Legend</text>
<polygon fill="#ffffb3" stroke="transparent" points="664.5,-10 664.5,-30 684.5,-30 684.5,-10 664.5,-10"/>
<text text-anchor="start" x="688.129" y="-15.4" font-family="sans-serif" font-size="14.00" fill="#000000"> &#160;Declarations</text>
<polygon fill="#8dd3c7" stroke="transparent" points="777.5,-10 777.5,-30 797.5,-30 797.5,-10 777.5,-10"/>
<text text-anchor="start" x="801.2251" y="-15.4" font-family="sans-serif" font-size="14.00" fill="#000000"> &#160;Module</text>
<polygon fill="#80b1d3" stroke="transparent" points="863.5,-10 863.5,-30 883.5,-30 883.5,-10 863.5,-10"/>
<text text-anchor="start" x="887.2812" y="-15.4" font-family="sans-serif" font-size="14.00" fill="#000000"> &#160;Bootstrap</text>
<polygon fill="#fdb462" stroke="transparent" points="960.5,-10 960.5,-30 980.5,-30 980.5,-10 960.5,-10"/>
<text text-anchor="start" x="984.1732" y="-15.4" font-family="sans-serif" font-size="14.00" fill="#000000"> &#160;Providers</text>
<polygon fill="#fb8072" stroke="transparent" points="1056.5,-10 1056.5,-30 1076.5,-30 1076.5,-10 1056.5,-10"/>
<text text-anchor="start" x="1080.2258" y="-15.4" font-family="sans-serif" font-size="14.00" fill="#000000"> &#160;Exports</text>
<g id="clust1" class="cluster">
<title>cluster_MaterialModule</title>
<polygon fill="none" stroke="#000000" stroke-dasharray="1,5" points="8,-70 8,-268 1789,-268 1789,-70 8,-70"/>
</g>
<g id="clust3" class="cluster">
<title>cluster_MaterialModule_imports</title>
<polygon fill="none" stroke="#000000" points="768,-78 768,-130 1034,-130 1034,-78 768,-78"/>
</g>
<g id="clust4" class="cluster">
<title>cluster_MaterialModule_exports</title>
<polygon fill="none" stroke="#000000" points="16,-208 16,-260 1781,-260 1781,-208 16,-208"/>
</g>
<!-- CommonModule -->
<g id="node1" class="node">
<title>CommonModule</title>
<polygon fill="#8dd3c7" stroke="#000000" points="1025.6681,-122 1022.6681,-126 1001.6681,-126 998.6681,-122 914.3319,-122 914.3319,-86 1025.6681,-86 1025.6681,-122"/>
<text text-anchor="middle" x="970" y="-99.8" font-family="Times,serif" font-size="14.00" fill="#000000">CommonModule</text>
</g>
<!-- MaterialModule -->
<g id="node3" class="node">
<title>MaterialModule</title>
<polygon fill="#8dd3c7" stroke="#000000" points="956.4706,-187 953.4706,-191 932.4706,-191 929.4706,-187 849.5294,-187 849.5294,-151 956.4706,-151 956.4706,-187"/>
<text text-anchor="middle" x="903" y="-164.8" font-family="Times,serif" font-size="14.00" fill="#000000">MaterialModule</text>
</g>
<!-- CommonModule&#45;&gt;MaterialModule -->
<g id="edge1" class="edge">
<title>CommonModule&#45;&gt;MaterialModule</title>
<path fill="none" stroke="#000000" d="M935.3258,-122.1061C935.3258,-122.1061 935.3258,-140.991 935.3258,-140.991"/>
<polygon fill="#000000" stroke="#000000" points="931.8258,-140.9909 935.3258,-150.991 938.8258,-140.991 931.8258,-140.9909"/>
</g>
<!-- MatButtonModule -->
<g id="node2" class="node">
<title>MatButtonModule</title>
<polygon fill="#8dd3c7" stroke="#000000" points="896.2176,-122 893.2176,-126 872.2176,-126 869.2176,-122 775.7824,-122 775.7824,-86 896.2176,-86 896.2176,-122"/>
<text text-anchor="middle" x="836" y="-99.8" font-family="Times,serif" font-size="14.00" fill="#000000">MatButtonModule</text>
</g>
<!-- MatButtonModule&#45;&gt;MaterialModule -->
<g id="edge2" class="edge">
<title>MatButtonModule&#45;&gt;MaterialModule</title>
<path fill="none" stroke="#000000" d="M872.8117,-122.1061C872.8117,-122.1061 872.8117,-140.991 872.8117,-140.991"/>
<polygon fill="#000000" stroke="#000000" points="869.3118,-140.9909 872.8117,-150.991 876.3118,-140.991 869.3118,-140.9909"/>
</g>
<!-- MatButtonModule  -->
<g id="node4" class="node">
<title>MatButtonModule </title>
<polygon fill="#fb8072" stroke="#000000" points="1772.7177,-252 1649.2823,-252 1649.2823,-216 1772.7177,-216 1772.7177,-252"/>
<text text-anchor="middle" x="1711" y="-229.8" font-family="Times,serif" font-size="14.00" fill="#000000">MatButtonModule </text>
</g>
<!-- MaterialModule&#45;&gt;MatButtonModule  -->
<g id="edge3" class="edge">
<title>MaterialModule&#45;&gt;MatButtonModule </title>
<path fill="none" stroke="#000000" stroke-dasharray="5,2" d="M956.6409,-157C1137.1042,-157 1711,-157 1711,-157 1711,-157 1711,-205.7521 1711,-205.7521"/>
<polygon fill="#000000" stroke="#000000" points="1707.5001,-205.752 1711,-215.7521 1714.5001,-205.7521 1707.5001,-205.752"/>
</g>
<!-- MatToolbarModule  -->
<g id="node5" class="node">
<title>MatToolbarModule </title>
<polygon fill="#fb8072" stroke="#000000" points="1630.918,-252 1501.082,-252 1501.082,-216 1630.918,-216 1630.918,-252"/>
<text text-anchor="middle" x="1566" y="-229.8" font-family="Times,serif" font-size="14.00" fill="#000000">MatToolbarModule </text>
</g>
<!-- MaterialModule&#45;&gt;MatToolbarModule  -->
<g id="edge4" class="edge">
<title>MaterialModule&#45;&gt;MatToolbarModule </title>
<path fill="none" stroke="#000000" stroke-dasharray="5,2" d="M956.6945,-163C1114.5319,-163 1566,-163 1566,-163 1566,-163 1566,-205.7157 1566,-205.7157"/>
<polygon fill="#000000" stroke="#000000" points="1562.5001,-205.7157 1566,-215.7157 1569.5001,-205.7158 1562.5001,-205.7157"/>
</g>
<!-- MatCardModule  -->
<g id="node6" class="node">
<title>MatCardModule </title>
<polygon fill="#fb8072" stroke="#000000" points="1483.3116,-252 1370.6884,-252 1370.6884,-216 1483.3116,-216 1483.3116,-252"/>
<text text-anchor="middle" x="1427" y="-229.8" font-family="Times,serif" font-size="14.00" fill="#000000">MatCardModule </text>
</g>
<!-- MaterialModule&#45;&gt;MatCardModule  -->
<g id="edge5" class="edge">
<title>MaterialModule&#45;&gt;MatCardModule </title>
<path fill="none" stroke="#000000" stroke-dasharray="5,2" d="M956.6147,-169C1090.1646,-169 1427,-169 1427,-169 1427,-169 1427,-205.8939 1427,-205.8939"/>
<polygon fill="#000000" stroke="#000000" points="1423.5001,-205.8938 1427,-215.8939 1430.5001,-205.8939 1423.5001,-205.8938"/>
</g>
<!-- MatProgressSpinnerModule  -->
<g id="node7" class="node">
<title>MatProgressSpinnerModule </title>
<polygon fill="#fb8072" stroke="#000000" points="1352.856,-252 1175.144,-252 1175.144,-216 1352.856,-216 1352.856,-252"/>
<text text-anchor="middle" x="1264" y="-229.8" font-family="Times,serif" font-size="14.00" fill="#000000">MatProgressSpinnerModule </text>
</g>
<!-- MaterialModule&#45;&gt;MatProgressSpinnerModule  -->
<g id="edge6" class="edge">
<title>MaterialModule&#45;&gt;MatProgressSpinnerModule </title>
<path fill="none" stroke="#000000" stroke-dasharray="5,2" d="M956.6555,-175C1057.219,-175 1264,-175 1264,-175 1264,-175 1264,-205.9775 1264,-205.9775"/>
<polygon fill="#000000" stroke="#000000" points="1260.5001,-205.9774 1264,-215.9775 1267.5001,-205.9775 1260.5001,-205.9774"/>
</g>
<!-- MatInputModule  -->
<g id="node8" class="node">
<title>MatInputModule </title>
<polygon fill="#fb8072" stroke="#000000" points="1157.6509,-252 1042.3491,-252 1042.3491,-216 1157.6509,-216 1157.6509,-252"/>
<text text-anchor="middle" x="1100" y="-229.8" font-family="Times,serif" font-size="14.00" fill="#000000">MatInputModule </text>
</g>
<!-- MaterialModule&#45;&gt;MatInputModule  -->
<g id="edge7" class="edge">
<title>MaterialModule&#45;&gt;MatInputModule </title>
<path fill="none" stroke="#000000" stroke-dasharray="5,2" d="M956.5709,-181C1014.9065,-181 1100,-181 1100,-181 1100,-181 1100,-205.7604 1100,-205.7604"/>
<polygon fill="#000000" stroke="#000000" points="1096.5001,-205.7604 1100,-215.7604 1103.5001,-205.7604 1096.5001,-205.7604"/>
</g>
<!-- MatListModule  -->
<g id="node9" class="node">
<title>MatListModule </title>
<polygon fill="#fb8072" stroke="#000000" points="1024.8787,-252 917.1213,-252 917.1213,-216 1024.8787,-216 1024.8787,-252"/>
<text text-anchor="middle" x="971" y="-229.8" font-family="Times,serif" font-size="14.00" fill="#000000">MatListModule </text>
</g>
<!-- MaterialModule&#45;&gt;MatListModule  -->
<g id="edge8" class="edge">
<title>MaterialModule&#45;&gt;MatListModule </title>
<path fill="none" stroke="#000000" stroke-dasharray="5,2" d="M936.8982,-187.1061C936.8982,-187.1061 936.8982,-205.991 936.8982,-205.991"/>
<polygon fill="#000000" stroke="#000000" points="933.3982,-205.9909 936.8982,-215.991 940.3982,-205.991 933.3982,-205.9909"/>
</g>
<!-- MatDividerModule  -->
<g id="node10" class="node">
<title>MatDividerModule </title>
<polygon fill="#fb8072" stroke="#000000" points="899.3631,-252 770.6369,-252 770.6369,-216 899.3631,-216 899.3631,-252"/>
<text text-anchor="middle" x="835" y="-229.8" font-family="Times,serif" font-size="14.00" fill="#000000">MatDividerModule </text>
</g>
<!-- MaterialModule&#45;&gt;MatDividerModule  -->
<g id="edge9" class="edge">
<title>MaterialModule&#45;&gt;MatDividerModule </title>
<path fill="none" stroke="#000000" stroke-dasharray="5,2" d="M874.348,-187.1061C874.348,-187.1061 874.348,-205.991 874.348,-205.991"/>
<polygon fill="#000000" stroke="#000000" points="870.8481,-205.9909 874.348,-215.991 877.8481,-205.991 870.8481,-205.9909"/>
</g>
<!-- MatGridListModule  -->
<g id="node11" class="node">
<title>MatGridListModule </title>
<polygon fill="#fb8072" stroke="#000000" points="752.5358,-252 619.4642,-252 619.4642,-216 752.5358,-216 752.5358,-252"/>
<text text-anchor="middle" x="686" y="-229.8" font-family="Times,serif" font-size="14.00" fill="#000000">MatGridListModule </text>
</g>
<!-- MaterialModule&#45;&gt;MatGridListModule  -->
<g id="edge10" class="edge">
<title>MaterialModule&#45;&gt;MatGridListModule </title>
<path fill="none" stroke="#000000" stroke-dasharray="5,2" d="M849.3595,-181C785.0996,-181 686,-181 686,-181 686,-181 686,-205.7604 686,-205.7604"/>
<polygon fill="#000000" stroke="#000000" points="682.5001,-205.7604 686,-215.7604 689.5001,-205.7604 682.5001,-205.7604"/>
</g>
<!-- MatTableModule  -->
<g id="node12" class="node">
<title>MatTableModule </title>
<polygon fill="#fb8072" stroke="#000000" points="601.973,-252 484.027,-252 484.027,-216 601.973,-216 601.973,-252"/>
<text text-anchor="middle" x="543" y="-229.8" font-family="Times,serif" font-size="14.00" fill="#000000">MatTableModule </text>
</g>
<!-- MaterialModule&#45;&gt;MatTableModule  -->
<g id="edge11" class="edge">
<title>MaterialModule&#45;&gt;MatTableModule </title>
<path fill="none" stroke="#000000" stroke-dasharray="5,2" d="M849.4931,-175C749.2082,-175 543,-175 543,-175 543,-175 543,-205.9775 543,-205.9775"/>
<polygon fill="#000000" stroke="#000000" points="539.5001,-205.9774 543,-215.9775 546.5001,-205.9775 539.5001,-205.9774"/>
</g>
<!-- BrowserAnimationsModule  -->
<g id="node13" class="node">
<title>BrowserAnimationsModule </title>
<polygon fill="#fb8072" stroke="#000000" points="465.8017,-252 290.1983,-252 290.1983,-216 465.8017,-216 465.8017,-252"/>
<text text-anchor="middle" x="378" y="-229.8" font-family="Times,serif" font-size="14.00" fill="#000000">BrowserAnimationsModule </text>
</g>
<!-- MaterialModule&#45;&gt;BrowserAnimationsModule  -->
<g id="edge12" class="edge">
<title>MaterialModule&#45;&gt;BrowserAnimationsModule </title>
<path fill="none" stroke="#000000" stroke-dasharray="5,2" d="M849.283,-169C715.4782,-169 378,-169 378,-169 378,-169 378,-205.8939 378,-205.8939"/>
<polygon fill="#000000" stroke="#000000" points="374.5001,-205.8938 378,-215.8939 381.5001,-205.8939 374.5001,-205.8938"/>
</g>
<!-- MatSelectModule  -->
<g id="node14" class="node">
<title>MatSelectModule </title>
<polygon fill="#fb8072" stroke="#000000" points="271.8074,-252 152.1926,-252 152.1926,-216 271.8074,-216 271.8074,-252"/>
<text text-anchor="middle" x="212" y="-229.8" font-family="Times,serif" font-size="14.00" fill="#000000">MatSelectModule </text>
</g>
<!-- MaterialModule&#45;&gt;MatSelectModule  -->
<g id="edge13" class="edge">
<title>MaterialModule&#45;&gt;MatSelectModule </title>
<path fill="none" stroke="#000000" stroke-dasharray="5,2" d="M849.3534,-163C686.9999,-163 212,-163 212,-163 212,-163 212,-205.7157 212,-205.7157"/>
<polygon fill="#000000" stroke="#000000" points="208.5001,-205.7157 212,-215.7157 215.5001,-205.7158 208.5001,-205.7157"/>
</g>
<!-- MatIconModule  -->
<g id="node15" class="node">
<title>MatIconModule </title>
<polygon fill="#fb8072" stroke="#000000" points="134.4758,-252 23.5242,-252 23.5242,-216 134.4758,-216 134.4758,-252"/>
<text text-anchor="middle" x="79" y="-229.8" font-family="Times,serif" font-size="14.00" fill="#000000">MatIconModule </text>
</g>
<!-- MaterialModule&#45;&gt;MatIconModule  -->
<g id="edge14" class="edge">
<title>MaterialModule&#45;&gt;MatIconModule </title>
<path fill="none" stroke="#000000" stroke-dasharray="5,2" d="M849.2529,-157C666.2963,-157 79,-157 79,-157 79,-157 79,-205.7521 79,-205.7521"/>
<polygon fill="#000000" stroke="#000000" points="75.5001,-205.752 79,-215.7521 82.5001,-205.7521 75.5001,-205.752"/>
</g>
</g>
</svg>
