<?xml version="1.0" encoding="UTF-8" standalone="no"?>
<!DOCTYPE svg PUBLIC "-//W3C//DTD SVG 1.1//EN"
 "http://www.w3.org/Graphics/SVG/1.1/DTD/svg11.dtd">
<!-- Generated by graphviz version 2.40.1 (20161225.0304)
 -->
<!-- Title: dependencies Pages: 1 -->
<svg width="2105pt" height="284pt"
 viewBox="0.00 0.00 2105.00 284.00" xmlns="http://www.w3.org/2000/svg" xmlns:xlink="http://www.w3.org/1999/xlink">
<g id="graph0" class="graph" transform="scale(1 1) rotate(0) translate(4 280)">
<title>dependencies</title>
<polygon fill="#ffffff" stroke="transparent" points="-4,4 -4,-280 2101,-280 2101,4 -4,4"/>
<text text-anchor="start" x="1027.5091" y="-42.4" font-family="sans-serif" font-weight="bold" font-size="14.00" fill="#000000">Legend</text>
<polygon fill="#ffffb3" stroke="transparent" points="814.5,-10 814.5,-30 834.5,-30 834.5,-10 814.5,-10"/>
<text text-anchor="start" x="838.129" y="-15.4" font-family="sans-serif" font-size="14.00" fill="#000000"> &#160;Declarations</text>
<polygon fill="#8dd3c7" stroke="transparent" points="927.5,-10 927.5,-30 947.5,-30 947.5,-10 927.5,-10"/>
<text text-anchor="start" x="951.2251" y="-15.4" font-family="sans-serif" font-size="14.00" fill="#000000"> &#160;Module</text>
<polygon fill="#80b1d3" stroke="transparent" points="1013.5,-10 1013.5,-30 1033.5,-30 1033.5,-10 1013.5,-10"/>
<text text-anchor="start" x="1037.2812" y="-15.4" font-family="sans-serif" font-size="14.00" fill="#000000"> &#160;Bootstrap</text>
<polygon fill="#fdb462" stroke="transparent" points="1110.5,-10 1110.5,-30 1130.5,-30 1130.5,-10 1110.5,-10"/>
<text text-anchor="start" x="1134.1732" y="-15.4" font-family="sans-serif" font-size="14.00" fill="#000000"> &#160;Providers</text>
<polygon fill="#fb8072" stroke="transparent" points="1206.5,-10 1206.5,-30 1226.5,-30 1226.5,-10 1206.5,-10"/>
<text text-anchor="start" x="1230.2258" y="-15.4" font-family="sans-serif" font-size="14.00" fill="#000000"> &#160;Exports</text>
<g id="clust1" class="cluster">
<title>cluster_MaterialModule</title>
<polygon fill="none" stroke="#000000" stroke-dasharray="1,5" points="8,-70 8,-268 2089,-268 2089,-70 8,-70"/>
</g>
<g id="clust3" class="cluster">
<title>cluster_MaterialModule_imports</title>
<polygon fill="none" stroke="#000000" points="854,-78 854,-130 1258,-130 1258,-78 854,-78"/>
</g>
<g id="clust4" class="cluster">
<title>cluster_MaterialModule_exports</title>
<polygon fill="none" stroke="#000000" points="16,-208 16,-260 2081,-260 2081,-208 16,-208"/>
</g>
<!-- CommonModule -->
<g id="node1" class="node">
<title>CommonModule</title>
<polygon fill="#8dd3c7" stroke="#000000" points="1249.6681,-122 1246.6681,-126 1225.6681,-126 1222.6681,-122 1138.3319,-122 1138.3319,-86 1249.6681,-86 1249.6681,-122"/>
<text text-anchor="middle" x="1194" y="-99.8" font-family="Times,serif" font-size="14.00" fill="#000000">CommonModule</text>
</g>
<!-- MaterialModule -->
<g id="node4" class="node">
<title>MaterialModule</title>
<polygon fill="#8dd3c7" stroke="#000000" points="1113.4706,-187 1110.4706,-191 1089.4706,-191 1086.4706,-187 1006.5294,-187 1006.5294,-151 1113.4706,-151 1113.4706,-187"/>
<text text-anchor="middle" x="1060" y="-164.8" font-family="Times,serif" font-size="14.00" fill="#000000">MaterialModule</text>
</g>
<!-- CommonModule&#45;&gt;MaterialModule -->
<g id="edge1" class="edge">
<title>CommonModule&#45;&gt;MaterialModule</title>
<path fill="none" stroke="#000000" d="M1168.6738,-122.1871C1168.6738,-137.1824 1168.6738,-156 1168.6738,-156 1168.6738,-156 1123.7001,-156 1123.7001,-156"/>
<polygon fill="#000000" stroke="#000000" points="1123.7002,-152.5001 1113.7001,-156 1123.7001,-159.5001 1123.7002,-152.5001"/>
</g>
<!-- MatButtonModule -->
<g id="node2" class="node">
<title>MatButtonModule</title>
<polygon fill="#8dd3c7" stroke="#000000" points="1120.2176,-122 1117.2176,-126 1096.2176,-126 1093.2176,-122 999.7824,-122 999.7824,-86 1120.2176,-86 1120.2176,-122"/>
<text text-anchor="middle" x="1060" y="-99.8" font-family="Times,serif" font-size="14.00" fill="#000000">MatButtonModule</text>
</g>
<!-- MatButtonModule&#45;&gt;MaterialModule -->
<g id="edge2" class="edge">
<title>MatButtonModule&#45;&gt;MaterialModule</title>
<path fill="none" stroke="#000000" d="M1060,-122.1061C1060,-122.1061 1060,-140.991 1060,-140.991"/>
<polygon fill="#000000" stroke="#000000" points="1056.5001,-140.9909 1060,-150.991 1063.5001,-140.991 1056.5001,-140.9909"/>
</g>
<!-- MatDialogModule -->
<g id="node3" class="node">
<title>MatDialogModule</title>
<polygon fill="#8dd3c7" stroke="#000000" points="982.2022,-122 979.2022,-126 958.2022,-126 955.2022,-122 861.7978,-122 861.7978,-86 982.2022,-86 982.2022,-122"/>
<text text-anchor="middle" x="922" y="-99.8" font-family="Times,serif" font-size="14.00" fill="#000000">MatDialogModule</text>
</g>
<!-- MatDialogModule&#45;&gt;MaterialModule -->
<g id="edge3" class="edge">
<title>MatDialogModule&#45;&gt;MaterialModule</title>
<path fill="none" stroke="#000000" d="M950.7916,-122.1871C950.7916,-137.1824 950.7916,-156 950.7916,-156 950.7916,-156 996.3556,-156 996.3556,-156"/>
<polygon fill="#000000" stroke="#000000" points="996.3556,-159.5001 1006.3556,-156 996.3555,-152.5001 996.3556,-159.5001"/>
</g>
<!-- MatButtonModule  -->
<g id="node5" class="node">
<title>MatButtonModule </title>
<polygon fill="#fb8072" stroke="#000000" points="2072.7177,-252 1949.2823,-252 1949.2823,-216 2072.7177,-216 2072.7177,-252"/>
<text text-anchor="middle" x="2011" y="-229.8" font-family="Times,serif" font-size="14.00" fill="#000000">MatButtonModule </text>
</g>
<!-- MaterialModule&#45;&gt;MatButtonModule  -->
<g id="edge4" class="edge">
<title>MaterialModule&#45;&gt;MatButtonModule </title>
<path fill="none" stroke="#000000" stroke-dasharray="5,2" d="M1113.5107,-160C1314.238,-160 2011,-160 2011,-160 2011,-160 2011,-205.7079 2011,-205.7079"/>
<polygon fill="#000000" stroke="#000000" points="2007.5001,-205.7078 2011,-215.7079 2014.5001,-205.7079 2007.5001,-205.7078"/>
</g>
<!-- MatToolbarModule  -->
<g id="node6" class="node">
<title>MatToolbarModule </title>
<polygon fill="#fb8072" stroke="#000000" points="1930.918,-252 1801.082,-252 1801.082,-216 1930.918,-216 1930.918,-252"/>
<text text-anchor="middle" x="1866" y="-229.8" font-family="Times,serif" font-size="14.00" fill="#000000">MatToolbarModule </text>
</g>
<!-- MaterialModule&#45;&gt;MatToolbarModule  -->
<g id="edge5" class="edge">
<title>MaterialModule&#45;&gt;MatToolbarModule </title>
<path fill="none" stroke="#000000" stroke-dasharray="5,2" d="M1113.5081,-165C1293.5247,-165 1866,-165 1866,-165 1866,-165 1866,-205.8711 1866,-205.8711"/>
<polygon fill="#000000" stroke="#000000" points="1862.5001,-205.871 1866,-215.8711 1869.5001,-205.8711 1862.5001,-205.871"/>
</g>
<!-- MatCardModule  -->
<g id="node7" class="node">
<title>MatCardModule </title>
<polygon fill="#fb8072" stroke="#000000" points="1783.3116,-252 1670.6884,-252 1670.6884,-216 1783.3116,-216 1783.3116,-252"/>
<text text-anchor="middle" x="1727" y="-229.8" font-family="Times,serif" font-size="14.00" fill="#000000">MatCardModule </text>
</g>
<!-- MaterialModule&#45;&gt;MatCardModule  -->
<g id="edge6" class="edge">
<title>MaterialModule&#45;&gt;MatCardModule </title>
<path fill="none" stroke="#000000" stroke-dasharray="5,2" d="M1113.7369,-169C1272.2705,-169 1727,-169 1727,-169 1727,-169 1727,-205.8939 1727,-205.8939"/>
<polygon fill="#000000" stroke="#000000" points="1723.5001,-205.8938 1727,-215.8939 1730.5001,-205.8939 1723.5001,-205.8938"/>
</g>
<!-- MatProgressSpinnerModule  -->
<g id="node8" class="node">
<title>MatProgressSpinnerModule </title>
<polygon fill="#fb8072" stroke="#000000" points="1652.856,-252 1475.144,-252 1475.144,-216 1652.856,-216 1652.856,-252"/>
<text text-anchor="middle" x="1564" y="-229.8" font-family="Times,serif" font-size="14.00" fill="#000000">MatProgressSpinnerModule </text>
</g>
<!-- MaterialModule&#45;&gt;MatProgressSpinnerModule  -->
<g id="edge7" class="edge">
<title>MaterialModule&#45;&gt;MatProgressSpinnerModule </title>
<path fill="none" stroke="#000000" stroke-dasharray="5,2" d="M1113.9368,-174C1243.9551,-174 1564,-174 1564,-174 1564,-174 1564,-205.998 1564,-205.998"/>
<polygon fill="#000000" stroke="#000000" points="1560.5001,-205.998 1564,-215.998 1567.5001,-205.9981 1560.5001,-205.998"/>
</g>
<!-- MatInputModule  -->
<g id="node9" class="node">
<title>MatInputModule </title>
<polygon fill="#fb8072" stroke="#000000" points="1457.6509,-252 1342.3491,-252 1342.3491,-216 1457.6509,-216 1457.6509,-252"/>
<text text-anchor="middle" x="1400" y="-229.8" font-family="Times,serif" font-size="14.00" fill="#000000">MatInputModule </text>
</g>
<!-- MaterialModule&#45;&gt;MatInputModule  -->
<g id="edge8" class="edge">
<title>MaterialModule&#45;&gt;MatInputModule </title>
<path fill="none" stroke="#000000" stroke-dasharray="5,2" d="M1113.499,-178C1209.2477,-178 1400,-178 1400,-178 1400,-178 1400,-205.973 1400,-205.973"/>
<polygon fill="#000000" stroke="#000000" points="1396.5001,-205.973 1400,-215.973 1403.5001,-205.973 1396.5001,-205.973"/>
</g>
<!-- MatListModule  -->
<g id="node10" class="node">
<title>MatListModule </title>
<polygon fill="#fb8072" stroke="#000000" points="1324.8787,-252 1217.1213,-252 1217.1213,-216 1324.8787,-216 1324.8787,-252"/>
<text text-anchor="middle" x="1271" y="-229.8" font-family="Times,serif" font-size="14.00" fill="#000000">MatListModule </text>
</g>
<!-- MaterialModule&#45;&gt;MatListModule  -->
<g id="edge9" class="edge">
<title>MaterialModule&#45;&gt;MatListModule </title>
<path fill="none" stroke="#000000" stroke-dasharray="5,2" d="M1113.4937,-183C1164.4934,-183 1233.5724,-183 1233.5724,-183 1233.5724,-183 1233.5724,-205.8757 1233.5724,-205.8757"/>
<polygon fill="#000000" stroke="#000000" points="1230.0725,-205.8757 1233.5724,-215.8757 1237.0725,-205.8757 1230.0725,-205.8757"/>
</g>
<!-- MatDividerModule  -->
<g id="node11" class="node">
<title>MatDividerModule </title>
<polygon fill="#fb8072" stroke="#000000" points="1199.3631,-252 1070.6369,-252 1070.6369,-216 1199.3631,-216 1199.3631,-252"/>
<text text-anchor="middle" x="1135" y="-229.8" font-family="Times,serif" font-size="14.00" fill="#000000">MatDividerModule </text>
</g>
<!-- MaterialModule&#45;&gt;MatDividerModule  -->
<g id="edge10" class="edge">
<title>MaterialModule&#45;&gt;MatDividerModule </title>
<path fill="none" stroke="#000000" stroke-dasharray="5,2" d="M1092.152,-187.1061C1092.152,-187.1061 1092.152,-205.991 1092.152,-205.991"/>
<polygon fill="#000000" stroke="#000000" points="1088.6521,-205.9909 1092.152,-215.991 1095.6521,-205.991 1088.6521,-205.9909"/>
</g>
<!-- MatGridListModule  -->
<g id="node12" class="node">
<title>MatGridListModule </title>
<polygon fill="#fb8072" stroke="#000000" points="1052.5358,-252 919.4642,-252 919.4642,-216 1052.5358,-216 1052.5358,-252"/>
<text text-anchor="middle" x="986" y="-229.8" font-family="Times,serif" font-size="14.00" fill="#000000">MatGridListModule </text>
</g>
<!-- MaterialModule&#45;&gt;MatGridListModule  -->
<g id="edge11" class="edge">
<title>MaterialModule&#45;&gt;MatGridListModule </title>
<path fill="none" stroke="#000000" stroke-dasharray="5,2" d="M1029.5163,-187.1061C1029.5163,-187.1061 1029.5163,-205.991 1029.5163,-205.991"/>
<polygon fill="#000000" stroke="#000000" points="1026.0164,-205.9909 1029.5163,-215.991 1033.0164,-205.991 1026.0164,-205.9909"/>
</g>
<!-- MatTableModule  -->
<g id="node13" class="node">
<title>MatTableModule </title>
<polygon fill="#fb8072" stroke="#000000" points="901.973,-252 784.027,-252 784.027,-216 901.973,-216 901.973,-252"/>
<text text-anchor="middle" x="843" y="-229.8" font-family="Times,serif" font-size="14.00" fill="#000000">MatTableModule </text>
</g>
<!-- MaterialModule&#45;&gt;MatTableModule  -->
<g id="edge12" class="edge">
<title>MaterialModule&#45;&gt;MatTableModule </title>
<path fill="none" stroke="#000000" stroke-dasharray="5,2" d="M1006.0558,-183C953.6121,-183 881.8175,-183 881.8175,-183 881.8175,-183 881.8175,-205.8757 881.8175,-205.8757"/>
<polygon fill="#000000" stroke="#000000" points="878.3176,-205.8757 881.8175,-215.8757 885.3176,-205.8757 878.3176,-205.8757"/>
</g>
<!-- BrowserAnimationsModule  -->
<g id="node14" class="node">
<title>BrowserAnimationsModule </title>
<polygon fill="#fb8072" stroke="#000000" points="765.8017,-252 590.1983,-252 590.1983,-216 765.8017,-216 765.8017,-252"/>
<text text-anchor="middle" x="678" y="-229.8" font-family="Times,serif" font-size="14.00" fill="#000000">BrowserAnimationsModule </text>
</g>
<!-- MaterialModule&#45;&gt;BrowserAnimationsModule  -->
<g id="edge13" class="edge">
<title>MaterialModule&#45;&gt;BrowserAnimationsModule </title>
<path fill="none" stroke="#000000" stroke-dasharray="5,2" d="M1006.4823,-178C901.3505,-178 678,-178 678,-178 678,-178 678,-205.973 678,-205.973"/>
<polygon fill="#000000" stroke="#000000" points="674.5001,-205.973 678,-215.973 681.5001,-205.973 674.5001,-205.973"/>
</g>
<!-- MatSelectModule  -->
<g id="node15" class="node">
<title>MatSelectModule </title>
<polygon fill="#fb8072" stroke="#000000" points="571.8074,-252 452.1926,-252 452.1926,-216 571.8074,-216 571.8074,-252"/>
<text text-anchor="middle" x="512" y="-229.8" font-family="Times,serif" font-size="14.00" fill="#000000">MatSelectModule </text>
</g>
<!-- MaterialModule&#45;&gt;MatSelectModule  -->
<g id="edge14" class="edge">
<title>MaterialModule&#45;&gt;MatSelectModule </title>
<path fill="none" stroke="#000000" stroke-dasharray="5,2" d="M1006.4577,-174C868.5667,-174 512,-174 512,-174 512,-174 512,-205.998 512,-205.998"/>
<polygon fill="#000000" stroke="#000000" points="508.5001,-205.998 512,-215.998 515.5001,-205.9981 508.5001,-205.998"/>
</g>
<!-- MatIconModule  -->
<g id="node16" class="node">
<title>MatIconModule </title>
<polygon fill="#fb8072" stroke="#000000" points="434.4758,-252 323.5242,-252 323.5242,-216 434.4758,-216 434.4758,-252"/>
<text text-anchor="middle" x="379" y="-229.8" font-family="Times,serif" font-size="14.00" fill="#000000">MatIconModule </text>
</g>
<!-- MaterialModule&#45;&gt;MatIconModule  -->
<g id="edge15" class="edge">
<title>MaterialModule&#45;&gt;MatIconModule </title>
<path fill="none" stroke="#000000" stroke-dasharray="5,2" d="M1006.2788,-169C845.4731,-169 379,-169 379,-169 379,-169 379,-205.8939 379,-205.8939"/>
<polygon fill="#000000" stroke="#000000" points="375.5001,-205.8938 379,-215.8939 382.5001,-205.8939 375.5001,-205.8938"/>
</g>
<!-- MatDialogModule  -->
<g id="node17" class="node">
<title>MatDialogModule </title>
<polygon fill="#fb8072" stroke="#000000" points="305.7024,-252 182.2976,-252 182.2976,-216 305.7024,-216 305.7024,-252"/>
<text text-anchor="middle" x="244" y="-229.8" font-family="Times,serif" font-size="14.00" fill="#000000">MatDialogModule </text>
</g>
<!-- MaterialModule&#45;&gt;MatDialogModule  -->
<g id="edge16" class="edge">
<title>MaterialModule&#45;&gt;MatDialogModule </title>
<path fill="none" stroke="#000000" stroke-dasharray="5,2" d="M1006.46,-165C824.9219,-165 244,-165 244,-165 244,-165 244,-205.8711 244,-205.8711"/>
<polygon fill="#000000" stroke="#000000" points="240.5001,-205.871 244,-215.8711 247.5001,-205.8711 240.5001,-205.871"/>
</g>
<!-- MatSnackBarModule  -->
<g id="node18" class="node">
<title>MatSnackBarModule </title>
<polygon fill="#fb8072" stroke="#000000" points="164.0232,-252 23.9768,-252 23.9768,-216 164.0232,-216 164.0232,-252"/>
<text text-anchor="middle" x="94" y="-229.8" font-family="Times,serif" font-size="14.00" fill="#000000">MatSnackBarModule </text>
</g>
<!-- MaterialModule&#45;&gt;MatSnackBarModule  -->
<g id="edge17" class="edge">
<title>MaterialModule&#45;&gt;MatSnackBarModule </title>
<path fill="none" stroke="#000000" stroke-dasharray="5,2" d="M1006.3412,-160C803.3678,-160 94,-160 94,-160 94,-160 94,-205.7079 94,-205.7079"/>
<polygon fill="#000000" stroke="#000000" points="90.5001,-205.7078 94,-215.7079 97.5001,-205.7079 90.5001,-205.7078"/>
</g>
</g>
</svg>
