<?xml version="1.0" encoding="UTF-8" standalone="no"?>
<!DOCTYPE svg PUBLIC "-//W3C//DTD SVG 1.1//EN"
 "http://www.w3.org/Graphics/SVG/1.1/DTD/svg11.dtd">
<!-- Generated by graphviz version 2.40.1 (20161225.0304)
 -->
<!-- Title: dependencies Pages: 1 -->
<svg width="1474pt" height="284pt"
 viewBox="0.00 0.00 1474.00 284.00" xmlns="http://www.w3.org/2000/svg" xmlns:xlink="http://www.w3.org/1999/xlink">
<g id="graph0" class="graph" transform="scale(1 1) rotate(0) translate(4 280)">
<title>dependencies</title>
<polygon fill="#ffffff" stroke="transparent" points="-4,4 -4,-280 1470,-280 1470,4 -4,4"/>
<text text-anchor="start" x="712.0091" y="-42.4" font-family="sans-serif" font-weight="bold" font-size="14.00" fill="#000000">Legend</text>
<polygon fill="#ffffb3" stroke="transparent" points="499,-10 499,-30 519,-30 519,-10 499,-10"/>
<text text-anchor="start" x="522.629" y="-15.4" font-family="sans-serif" font-size="14.00" fill="#000000"> &#160;Declarations</text>
<polygon fill="#8dd3c7" stroke="transparent" points="612,-10 612,-30 632,-30 632,-10 612,-10"/>
<text text-anchor="start" x="635.7251" y="-15.4" font-family="sans-serif" font-size="14.00" fill="#000000"> &#160;Module</text>
<polygon fill="#80b1d3" stroke="transparent" points="698,-10 698,-30 718,-30 718,-10 698,-10"/>
<text text-anchor="start" x="721.7812" y="-15.4" font-family="sans-serif" font-size="14.00" fill="#000000"> &#160;Bootstrap</text>
<polygon fill="#fdb462" stroke="transparent" points="795,-10 795,-30 815,-30 815,-10 795,-10"/>
<text text-anchor="start" x="818.6732" y="-15.4" font-family="sans-serif" font-size="14.00" fill="#000000"> &#160;Providers</text>
<polygon fill="#fb8072" stroke="transparent" points="891,-10 891,-30 911,-30 911,-10 891,-10"/>
<text text-anchor="start" x="914.7258" y="-15.4" font-family="sans-serif" font-size="14.00" fill="#000000"> &#160;Exports</text>
<g id="clust1" class="cluster">
<title>cluster_AppModule</title>
<polygon fill="none" stroke="#000000" stroke-dasharray="1,5" points="8,-70 8,-268 1458,-268 1458,-70 8,-70"/>
</g>
<g id="clust2" class="cluster">
<title>cluster_AppModule_declarations</title>
<polygon fill="none" stroke="#000000" points="418,-78 418,-130 1450,-130 1450,-78 418,-78"/>
</g>
<g id="clust15" class="cluster">
<title>cluster_AppModule_bootstrap</title>
<polygon fill="none" stroke="#000000" points="791,-208 791,-260 879,-260 879,-208 791,-208"/>
</g>
<g id="clust16" class="cluster">
<title>cluster_AppModule_providers</title>
<polygon fill="none" stroke="#000000" points="16,-78 16,-130 410,-130 410,-78 16,-78"/>
</g>
<!-- AboutPage -->
<g id="node1" class="node">
<title>AboutPage</title>
<polygon fill="#ffffb3" stroke="#000000" points="1442.2093,-122 1363.7907,-122 1363.7907,-86 1442.2093,-86 1442.2093,-122"/>
<text text-anchor="middle" x="1403" y="-99.8" font-family="Times,serif" font-size="14.00" fill="#000000">AboutPage</text>
</g>
<!-- AppModule -->
<g id="node11" class="node">
<title>AppModule</title>
<polygon fill="#8dd3c7" stroke="#000000" points="876.6571,-187 873.6571,-191 852.6571,-191 849.6571,-187 793.3429,-187 793.3429,-151 876.6571,-151 876.6571,-187"/>
<text text-anchor="middle" x="835" y="-164.8" font-family="Times,serif" font-size="14.00" fill="#000000">AppModule</text>
</g>
<!-- AboutPage&#45;&gt;AppModule -->
<g id="edge1" class="edge">
<title>AboutPage&#45;&gt;AppModule</title>
<path fill="none" stroke="#000000" d="M1403,-122.2479C1403,-145.0179 1403,-181 1403,-181 1403,-181 886.7664,-181 886.7664,-181"/>
<polygon fill="#000000" stroke="#000000" points="886.7664,-177.5001 876.7664,-181 886.7664,-184.5001 886.7664,-177.5001"/>
</g>
<!-- ContactPage -->
<g id="node2" class="node">
<title>ContactPage</title>
<polygon fill="#ffffb3" stroke="#000000" points="1346.2591,-122 1259.7409,-122 1259.7409,-86 1346.2591,-86 1346.2591,-122"/>
<text text-anchor="middle" x="1303" y="-99.8" font-family="Times,serif" font-size="14.00" fill="#000000">ContactPage</text>
</g>
<!-- ContactPage&#45;&gt;AppModule -->
<g id="edge2" class="edge">
<title>ContactPage&#45;&gt;AppModule</title>
<path fill="none" stroke="#000000" d="M1303,-122.2843C1303,-143.3211 1303,-175 1303,-175 1303,-175 886.9437,-175 886.9437,-175"/>
<polygon fill="#000000" stroke="#000000" points="886.9438,-171.5001 876.9437,-175 886.9437,-178.5001 886.9438,-171.5001"/>
</g>
<!-- FeedbackPage -->
<g id="node3" class="node">
<title>FeedbackPage</title>
<polygon fill="#ffffb3" stroke="#000000" points="1241.3529,-122 1144.6471,-122 1144.6471,-86 1241.3529,-86 1241.3529,-122"/>
<text text-anchor="middle" x="1193" y="-99.8" font-family="Times,serif" font-size="14.00" fill="#000000">FeedbackPage</text>
</g>
<!-- FeedbackPage&#45;&gt;AppModule -->
<g id="edge3" class="edge">
<title>FeedbackPage&#45;&gt;AppModule</title>
<path fill="none" stroke="#000000" d="M1193,-122.1061C1193,-141.3391 1193,-169 1193,-169 1193,-169 886.7678,-169 886.7678,-169"/>
<polygon fill="#000000" stroke="#000000" points="886.7678,-165.5001 876.7678,-169 886.7678,-172.5001 886.7678,-165.5001"/>
</g>
<!-- HomePage -->
<g id="node4" class="node">
<title>HomePage</title>
<polygon fill="#ffffb3" stroke="#000000" points="1126.9248,-122 1049.0752,-122 1049.0752,-86 1126.9248,-86 1126.9248,-122"/>
<text text-anchor="middle" x="1088" y="-99.8" font-family="Times,serif" font-size="14.00" fill="#000000">HomePage</text>
</g>
<!-- HomePage&#45;&gt;AppModule -->
<g id="edge4" class="edge">
<title>HomePage&#45;&gt;AppModule</title>
<path fill="none" stroke="#000000" d="M1088,-122.0225C1088,-139.3734 1088,-163 1088,-163 1088,-163 886.7778,-163 886.7778,-163"/>
<polygon fill="#000000" stroke="#000000" points="886.7778,-159.5001 876.7778,-163 886.7778,-166.5001 886.7778,-159.5001"/>
</g>
<!-- ImagerecPage -->
<g id="node5" class="node">
<title>ImagerecPage</title>
<polygon fill="#ffffb3" stroke="#000000" points="1031.7824,-122 936.2176,-122 936.2176,-86 1031.7824,-86 1031.7824,-122"/>
<text text-anchor="middle" x="984" y="-99.8" font-family="Times,serif" font-size="14.00" fill="#000000">ImagerecPage</text>
</g>
<!-- ImagerecPage&#45;&gt;AppModule -->
<g id="edge5" class="edge">
<title>ImagerecPage&#45;&gt;AppModule</title>
<path fill="none" stroke="#000000" d="M984,-122.2396C984,-137.5706 984,-157 984,-157 984,-157 886.9013,-157 886.9013,-157"/>
<polygon fill="#000000" stroke="#000000" points="886.9014,-153.5001 876.9013,-157 886.9013,-160.5001 886.9014,-153.5001"/>
</g>
<!-- MyApp -->
<g id="node6" class="node">
<title>MyApp</title>
<polygon fill="#ffffb3" stroke="#000000" points="918.5529,-122 859.4471,-122 859.4471,-86 918.5529,-86 918.5529,-122"/>
<text text-anchor="middle" x="889" y="-99.8" font-family="Times,serif" font-size="14.00" fill="#000000">MyApp</text>
</g>
<!-- MyApp&#45;&gt;AppModule -->
<g id="edge6" class="edge">
<title>MyApp&#45;&gt;AppModule</title>
<path fill="none" stroke="#000000" d="M868.0263,-122.1061C868.0263,-122.1061 868.0263,-140.991 868.0263,-140.991"/>
<polygon fill="#000000" stroke="#000000" points="864.5264,-140.9909 868.0263,-150.991 871.5264,-140.991 864.5264,-140.9909"/>
</g>
<!-- QuoteBuilderPage -->
<g id="node7" class="node">
<title>QuoteBuilderPage</title>
<polygon fill="#ffffb3" stroke="#000000" points="841.9173,-122 722.0827,-122 722.0827,-86 841.9173,-86 841.9173,-122"/>
<text text-anchor="middle" x="782" y="-99.8" font-family="Times,serif" font-size="14.00" fill="#000000">QuoteBuilderPage</text>
</g>
<!-- QuoteBuilderPage&#45;&gt;AppModule -->
<g id="edge7" class="edge">
<title>QuoteBuilderPage&#45;&gt;AppModule</title>
<path fill="none" stroke="#000000" d="M817.44,-122.1061C817.44,-122.1061 817.44,-140.991 817.44,-140.991"/>
<polygon fill="#000000" stroke="#000000" points="813.9401,-140.9909 817.44,-150.991 820.9401,-140.991 813.9401,-140.9909"/>
</g>
<!-- ResultsPage -->
<g id="node8" class="node">
<title>ResultsPage</title>
<polygon fill="#ffffb3" stroke="#000000" points="704.4345,-122 619.5655,-122 619.5655,-86 704.4345,-86 704.4345,-122"/>
<text text-anchor="middle" x="662" y="-99.8" font-family="Times,serif" font-size="14.00" fill="#000000">ResultsPage</text>
</g>
<!-- ResultsPage&#45;&gt;AppModule -->
<g id="edge8" class="edge">
<title>ResultsPage&#45;&gt;AppModule</title>
<path fill="none" stroke="#000000" d="M662,-122.2396C662,-137.5706 662,-157 662,-157 662,-157 783.1215,-157 783.1215,-157"/>
<polygon fill="#000000" stroke="#000000" points="783.1216,-160.5001 793.1215,-157 783.1215,-153.5001 783.1216,-160.5001"/>
</g>
<!-- TabsPage -->
<g id="node9" class="node">
<title>TabsPage</title>
<polygon fill="#ffffb3" stroke="#000000" points="602.4249,-122 531.5751,-122 531.5751,-86 602.4249,-86 602.4249,-122"/>
<text text-anchor="middle" x="567" y="-99.8" font-family="Times,serif" font-size="14.00" fill="#000000">TabsPage</text>
</g>
<!-- TabsPage&#45;&gt;AppModule -->
<g id="edge9" class="edge">
<title>TabsPage&#45;&gt;AppModule</title>
<path fill="none" stroke="#000000" d="M567,-122.0225C567,-139.3734 567,-163 567,-163 567,-163 783.125,-163 783.125,-163"/>
<polygon fill="#000000" stroke="#000000" points="783.125,-166.5001 793.125,-163 783.125,-159.5001 783.125,-166.5001"/>
</g>
<!-- UtilitiesPage -->
<g id="node10" class="node">
<title>UtilitiesPage</title>
<polygon fill="#ffffb3" stroke="#000000" points="514.3218,-122 425.6782,-122 425.6782,-86 514.3218,-86 514.3218,-122"/>
<text text-anchor="middle" x="470" y="-99.8" font-family="Times,serif" font-size="14.00" fill="#000000">UtilitiesPage</text>
</g>
<!-- UtilitiesPage&#45;&gt;AppModule -->
<g id="edge10" class="edge">
<title>UtilitiesPage&#45;&gt;AppModule</title>
<path fill="none" stroke="#000000" d="M470,-122.1061C470,-141.3391 470,-169 470,-169 470,-169 783.1299,-169 783.1299,-169"/>
<polygon fill="#000000" stroke="#000000" points="783.1299,-172.5001 793.1299,-169 783.1298,-165.5001 783.1299,-172.5001"/>
</g>
<!-- IonicApp  -->
<g id="node12" class="node">
<title>IonicApp </title>
<polygon fill="#80b1d3" stroke="#000000" points="871.3734,-252 798.6266,-252 798.6266,-216 871.3734,-216 871.3734,-252"/>
<text text-anchor="middle" x="835" y="-229.8" font-family="Times,serif" font-size="14.00" fill="#000000">IonicApp </text>
</g>
<!-- AppModule&#45;&gt;IonicApp  -->
<g id="edge11" class="edge">
<title>AppModule&#45;&gt;IonicApp </title>
<path fill="none" stroke="#000000" stroke-dasharray="1,5" d="M835,-187.1061C835,-187.1061 835,-205.991 835,-205.991"/>
<polygon fill="#000000" stroke="#000000" points="831.5001,-205.9909 835,-215.991 838.5001,-205.991 831.5001,-205.9909"/>
</g>
<!-- ModelLoaderProvider -->
<g id="node13" class="node">
<title>ModelLoaderProvider</title>
<ellipse fill="#fdb462" stroke="#000000" cx="305" cy="-104" rx="96.6926" ry="18"/>
<text text-anchor="middle" x="305" y="-99.8" font-family="Times,serif" font-size="14.00" fill="#000000">ModelLoaderProvider</text>
</g>
<!-- ModelLoaderProvider&#45;&gt;AppModule -->
<g id="edge12" class="edge">
<title>ModelLoaderProvider&#45;&gt;AppModule</title>
<path fill="none" stroke="#000000" d="M305,-122.2843C305,-143.3211 305,-175 305,-175 305,-175 782.9688,-175 782.9688,-175"/>
<polygon fill="#000000" stroke="#000000" points="782.9688,-178.5001 792.9688,-175 782.9687,-171.5001 782.9688,-178.5001"/>
</g>
<!-- QuotationProvider -->
<g id="node14" class="node">
<title>QuotationProvider</title>
<ellipse fill="#fdb462" stroke="#000000" cx="107" cy="-104" rx="82.8264" ry="18"/>
<text text-anchor="middle" x="107" y="-99.8" font-family="Times,serif" font-size="14.00" fill="#000000">QuotationProvider</text>
</g>
<!-- QuotationProvider&#45;&gt;AppModule -->
<g id="edge13" class="edge">
<title>QuotationProvider&#45;&gt;AppModule</title>
<path fill="none" stroke="#000000" d="M107,-122.2479C107,-145.0179 107,-181 107,-181 107,-181 783.2448,-181 783.2448,-181"/>
<polygon fill="#000000" stroke="#000000" points="783.2448,-184.5001 793.2448,-181 783.2448,-177.5001 783.2448,-184.5001"/>
</g>
</g>
</svg>
