<?xml version="1.0" encoding="iso-8859-1"?>
<!-- Generator: Adobe Illustrator 19.0.0, SVG Export Plug-In . SVG Version: 6.00 Build 0)  -->
<svg version="1.1" id="Capa_1" xmlns="http://www.w3.org/2000/svg" xmlns:xlink="http://www.w3.org/1999/xlink" x="0px" y="0px"
	 viewBox="0 0 480.001 480.001" style="enable-background:new 0 0 480.001 480.001;" xml:space="preserve">
<g>
	<g>
		<path d="M120,216.001c-17.673,0-32,14.327-32,32s14.327,32,32,32s32-14.327,32-32S137.674,216.001,120,216.001z M120,264.001
			c-8.837,0-16-7.163-16-16c0-8.837,7.163-16,16-16s16,7.163,16,16C136.001,256.837,128.837,264.001,120,264.001z"/>
	</g>
</g>
<g>
	<g>
		<path d="M314.401,208.001H448c17.673,0,32-14.327,32-32v-112c0-17.673-14.327-32-32-32H296v-24c0-4.418-3.582-8-8-8H8
			C3.631-0.048,0.049,3.454,0,7.824C0,7.883,0,7.941,0,8.001v408c0.003,3.442,2.206,6.496,5.472,7.584l168,56
			c0.814,0.276,1.668,0.416,2.528,0.416c4.418,0,8-3.582,8-8v-48h28.448c5.672,9.867,16.171,15.964,27.552,16h208
			c17.673,0,32-14.327,32-32v-80c0-17.673-14.327-32-32-32h-133.6L296,283.72v-63.44L314.401,208.001z M448,48.001
			c8.837,0,16,7.163,16,16v32h-240v-32c0-8.837,7.163-16,16-16H448z M168.001,460.897L16,410.233V19.105l152,50.664V460.897z
			 M208.001,328.001v80h-24v-344c-0.003-3.442-2.206-6.496-5.472-7.584L57.289,16.001H280v16h-40c-17.673,0-32,14.327-32,32v112
			c0,17.673,14.327,32,32,32h16v24c-0.001,4.418,3.581,8.001,7.999,8.001c1.581,0,3.126-0.468,4.441-1.345l11.56-7.712v42.112
			l-11.56-7.712c-3.675-2.452-8.643-1.461-11.095,2.215c-0.877,1.315-1.345,2.86-1.345,4.441v24h-16
			C222.327,296.001,208.001,310.327,208.001,328.001z M307.56,310.657c1.316,0.874,2.86,1.341,4.44,1.344h136
			c8.837,0,16,7.163,16,16v80c0,8.837-7.163,16-16,16h-208c-8.837,0-16-7.163-16-16v-80c0-8.837,7.163-16,16-16h24
			c4.418,0,8-3.582,8-8v-17.056L307.56,310.657z M272,217.056v-17.056c0-4.418-3.582-8-8-8h-24c-8.837,0-16-7.163-16-16v-64h240v64
			c0,8.837-7.163,16-16,16H312c-1.58,0.003-3.124,0.47-4.44,1.344L272,217.056z"/>
	</g>
</g>
<g>
	<g>
		<rect x="248.001" y="160.001" width="192" height="16"/>
	</g>
</g>
<g>
	<g>
		<rect x="264" y="128.001" width="16" height="16"/>
	</g>
</g>
<g>
	<g>
		<rect x="296" y="128.001" width="144" height="16"/>
	</g>
</g>
<g>
	<g>
		<rect x="240.001" y="64.001" width="16" height="16"/>
	</g>
</g>
<g>
	<g>
		<rect x="272" y="64.001" width="16" height="16"/>
	</g>
</g>
<g>
	<g>
		<rect x="304" y="64.001" width="16" height="16"/>
	</g>
</g>
<g>
	<g>
		<path d="M277.656,341.657l-11.312-11.312l-16,16c-3.123,3.124-3.123,8.188,0,11.312l16,16l11.312-11.312l-10.344-10.344
			L277.656,341.657z"/>
	</g>
</g>
<g>
	<g>
		<path d="M341.656,346.345l-16-16l-11.312,11.312l10.344,10.344l-10.344,10.344l11.312,11.312l16-16
			C344.78,354.533,344.78,349.468,341.656,346.345z"/>
	</g>
</g>
<g>
	<g>
		<rect x="270.7" y="343.972" transform="matrix(0.3164 -0.9486 0.9486 0.3164 -131.5407 521.41)" width="50.6" height="16"/>
	</g>
</g>
<g>
	<g>
		<rect x="360" y="344.001" width="16" height="16"/>
	</g>
</g>
<g>
	<g>
		<rect x="248.001" y="392.001" width="16" height="16"/>
	</g>
</g>
<g>
	<g>
		<rect x="280" y="392.001" width="160" height="16"/>
	</g>
</g>
<g>
	<g>
		<rect x="392" y="344.001" width="16" height="16"/>
	</g>
</g>
<g>
	<g>
		<rect x="424" y="344.001" width="16" height="16"/>
	</g>
</g>
<g>
</g>
<g>
</g>
<g>
</g>
<g>
</g>
<g>
</g>
<g>
</g>
<g>
</g>
<g>
</g>
<g>
</g>
<g>
</g>
<g>
</g>
<g>
</g>
<g>
</g>
<g>
</g>
<g>
</g>
</svg>
