<?xml version="1.0" encoding="iso-8859-1"?>
<!-- Generator: Adobe Illustrator 19.0.0, SVG Export Plug-In . SVG Version: 6.00 Build 0)  -->
<svg version="1.1" id="Capa_1" xmlns="http://www.w3.org/2000/svg" xmlns:xlink="http://www.w3.org/1999/xlink" x="0px" y="0px"
	 viewBox="0 0 511.999 511.999" style="enable-background:new 0 0 511.999 511.999;" xml:space="preserve">
<g>
	<g>
		<g>
			<path d="M487.934,74.551h-91.9V15.782c0-4.143-3.358-7.5-7.5-7.5H123.468c-4.142,0-7.5,3.357-7.5,7.5v58.769H24.067
				C10.796,74.551,0,85.347,0,98.617v298.199c0,13.271,10.796,24.066,24.067,24.066h174.735l0.001,34.701h-58.768
				c-4.142,0-7.5,3.357-7.5,7.5v25.634h-9.066c-4.142,0-7.5,3.357-7.5,7.5s3.358,7.5,7.5,7.5h265.065c4.142,0,7.5-3.357,7.5-7.5
				s-3.358-7.5-7.5-7.5h-9.066v-25.634c0-4.143-3.358-7.5-7.5-7.5H313.2v-34.701h174.733c13.27,0,24.066-10.796,24.066-24.066
				V98.617C512,85.347,501.204,74.551,487.934,74.551z M396.034,114.4h76.117v26.416h-76.117V114.4z M130.968,23.282h250.066V49.7
				H130.968V23.282z M130.968,64.7h250.065v208.65H130.968V64.7z M123.468,288.35h265.065c4.142,0,7.5-3.357,7.5-7.5V155.816h76.117
				v158.949H39.85V155.816h76.118V280.85C115.968,284.993,119.326,288.35,123.468,288.35z M39.85,140.816V114.4h76.118v26.416H39.85
				z M364.467,470.584v18.133H147.535v-18.133h58.749c0.007,0,0.013,0.001,0.019,0.001H305.7c0.007,0,0.013-0.001,0.019-0.001
				H364.467z M213.802,420.884h84.399l-0.001,34.7h-84.397L213.802,420.884z M497,396.817c0,4.998-4.067,9.066-9.066,9.066H24.067
				c-5,0-9.067-4.067-9.067-9.066v-42.201h482V396.817z M497,339.614H15V98.617c0-4.999,4.067-9.066,9.067-9.066h91.901v9.85H32.35
				c-4.142,0-7.5,3.357-7.5,7.5v215.365c0,4.143,3.358,7.5,7.5,7.5h447.301c4.142,0,7.5-3.357,7.5-7.5V106.9
				c0-4.143-3.358-7.5-7.5-7.5h-83.617v-9.85h91.9c4.999,0,9.066,4.067,9.066,9.066V339.614z"/>
			<path d="M256.001,400.174c10.987,0,19.926-8.938,19.926-19.926c0-10.987-8.938-19.927-19.926-19.927
				c-10.987,0-19.926,8.939-19.926,19.927C236.075,391.235,245.014,400.174,256.001,400.174z M256.001,375.321
				c2.716,0,4.926,2.21,4.926,4.927c0,2.716-2.209,4.926-4.926,4.926c-2.716,0-4.926-2.21-4.926-4.926
				C251.075,377.531,253.285,375.321,256.001,375.321z"/>
			<path d="M73.767,120.108H57.201c-4.142,0-7.5,3.357-7.5,7.5c0,4.143,3.358,7.5,7.5,7.5h16.566c4.142,0,7.5-3.357,7.5-7.5
				C81.267,123.465,77.909,120.108,73.767,120.108z"/>
			<path d="M164.887,28.991H148.32c-4.142,0-7.5,3.357-7.5,7.5c0,4.143,3.358,7.5,7.5,7.5h16.567c4.142,0,7.5-3.357,7.5-7.5
				C172.387,32.348,169.029,28.991,164.887,28.991z"/>
			<path d="M284.974,88.29l15.49,10.328l-15.489,10.326c-3.447,2.298-4.378,6.954-2.08,10.4c1.445,2.168,3.823,3.341,6.247,3.341
				c1.43,0,2.875-0.408,4.153-1.261l24.85-16.566c2.086-1.391,3.34-3.732,3.34-6.24s-1.253-4.849-3.339-6.24l-24.85-16.568
				c-3.446-2.298-8.103-1.367-10.401,2.08C280.597,81.336,281.528,85.992,284.974,88.29z"/>
			<path d="M193.857,104.855l24.85,16.569c1.279,0.853,2.724,1.261,4.154,1.261c2.423,0,4.802-1.173,6.247-3.34
				c2.298-3.446,1.367-8.104-2.08-10.401l-15.49-10.328l15.49-10.326c3.446-2.297,4.378-6.954,2.081-10.4
				c-2.298-3.446-6.954-4.378-10.401-2.08l-24.85,16.565c-2.086,1.391-3.34,3.732-3.34,6.24
				C190.518,101.122,191.77,103.464,193.857,104.855z"/>
			<path d="M244.363,121.893c1.077,0.539,2.221,0.794,3.348,0.794c2.751,0,5.4-1.52,6.714-4.147l16.566-33.134
				c1.853-3.705,0.351-8.21-3.354-10.063c-3.704-1.853-8.209-0.351-10.062,3.354l-16.566,33.134
				C239.156,115.535,240.658,120.04,244.363,121.893z"/>
			<path d="M173.168,140.816H156.6c-4.142,0-7.5,3.357-7.5,7.5s3.358,7.5,7.5,7.5h16.568c4.142,0,7.5-3.357,7.5-7.5
				C180.668,144.174,177.31,140.816,173.168,140.816z"/>
			<path d="M206.3,140.817c-4.142,0-7.5,3.357-7.5,7.5s3.358,7.5,7.5,7.5h82.835c4.142,0,7.5-3.357,7.5-7.5s-3.358-7.5-7.5-7.5
				H206.3z"/>
			<path d="M314.767,148.316c0,4.143,3.358,7.5,7.5,7.5H355.4c4.142,0,7.5-3.357,7.5-7.5s-3.358-7.5-7.5-7.5h-33.133
				C318.125,140.816,314.767,144.174,314.767,148.316z"/>
			<path d="M173.168,215.367H156.6c-4.142,0-7.5,3.357-7.5,7.5s3.358,7.5,7.5,7.5h16.568c4.142,0,7.5-3.357,7.5-7.5
				C180.668,218.725,177.31,215.367,173.168,215.367z"/>
			<path d="M198.8,222.869c0,4.143,3.358,7.5,7.5,7.5h82.835c4.142,0,7.5-3.357,7.5-7.5s-3.358-7.5-7.5-7.5H206.3
				C202.158,215.369,198.8,218.727,198.8,222.869z"/>
			<path d="M355.4,230.367c4.142,0,7.5-3.357,7.5-7.5s-3.358-7.5-7.5-7.5h-33.133c-4.142,0-7.5,3.357-7.5,7.5s3.358,7.5,7.5,7.5
				H355.4z"/>
			<path d="M189.733,180.667h33.135c4.142,0,7.5-3.357,7.5-7.5s-3.358-7.5-7.5-7.5h-33.135c-4.142,0-7.5,3.357-7.5,7.5
				S185.591,180.667,189.733,180.667z"/>
			<path d="M355.402,165.667H256c-4.142,0-7.5,3.357-7.5,7.5s3.358,7.5,7.5,7.5h99.402c4.142,0,7.5-3.357,7.5-7.5
				S359.544,165.667,355.402,165.667z"/>
			<path d="M189.733,205.518h33.135c4.142,0,7.5-3.357,7.5-7.5s-3.358-7.5-7.5-7.5h-33.135c-4.142,0-7.5,3.357-7.5,7.5
				C182.233,202.16,185.591,205.518,189.733,205.518z"/>
			<path d="M355.402,190.518H256c-4.142,0-7.5,3.357-7.5,7.5s3.358,7.5,7.5,7.5h99.402c4.142,0,7.5-3.357,7.5-7.5
				S359.544,190.518,355.402,190.518z"/>
			<path d="M222.868,240.217h-33.135c-4.142,0-7.5,3.357-7.5,7.5s3.358,7.5,7.5,7.5h33.135c4.142,0,7.5-3.357,7.5-7.5
				S227.01,240.217,222.868,240.217z"/>
			<path d="M355.402,240.217H256c-4.142,0-7.5,3.357-7.5,7.5s3.358,7.5,7.5,7.5h99.402c4.142,0,7.5-3.357,7.5-7.5
				S359.544,240.217,355.402,240.217z"/>
		</g>
	</g>
</g>
<g>
</g>
<g>
</g>
<g>
</g>
<g>
</g>
<g>
</g>
<g>
</g>
<g>
</g>
<g>
</g>
<g>
</g>
<g>
</g>
<g>
</g>
<g>
</g>
<g>
</g>
<g>
</g>
<g>
</g>
</svg>
