<?xml version="1.0" encoding="iso-8859-1"?>
<!-- Generator: Adobe Illustrator 19.0.0, SVG Export Plug-In . SVG Version: 6.00 Build 0)  -->
<svg version="1.1" id="Capa_1" xmlns="http://www.w3.org/2000/svg" xmlns:xlink="http://www.w3.org/1999/xlink" x="0px" y="0px"
	 viewBox="0 0 511.999 511.999" style="enable-background:new 0 0 511.999 511.999;" xml:space="preserve">
<g>
	<g>
		<g>
			<path d="M487.934,74.549H378.73l-7.546-7.546V32.349c0-13.271-10.796-24.066-24.066-24.066H164.884
				c-13.27,0-24.066,10.796-24.066,24.066v42.2H24.067C10.796,74.549,0,85.346,0,98.615v298.199
				c0,13.271,10.796,24.066,24.067,24.066h174.735l0.001,34.701h-58.768c-4.142,0-7.5,3.357-7.5,7.5v25.634h-9.066
				c-4.142,0-7.5,3.357-7.5,7.5s3.358,7.5,7.5,7.5h16.566h231.933h16.566c4.142,0,7.5-3.357,7.5-7.5s-3.358-7.5-7.5-7.5h-9.066
				v-25.634c0-4.143-3.358-7.5-7.5-7.5H313.2V420.88h174.733c13.27,0,24.066-10.796,24.066-24.066V98.615
				C512,85.346,501.204,74.549,487.934,74.549z M386.974,104.007L374.15,116.83l-24.537-24.537l12.824-12.823L386.974,104.007z
				 M397.794,114.398h74.357v26.416H371.378L397.794,114.398z M268.721,187.115l-6.965-6.965l77.251-77.251l6.965,6.965
				L268.721,187.115z M271.622,211.231l-21.881,5.471l5.471-21.88L271.622,211.231z M356.579,120.471l6.965,6.965l-77.252,77.25
				l-6.964-6.964L356.579,120.471z M155.818,32.349c0-4.999,4.067-9.066,9.066-9.066h182.233c4.999,0,9.066,4.067,9.066,9.066v32.16
				l-76.308,76.308H231.15c-4.142,0-7.5,3.357-7.5,7.5s3.358,7.5,7.5,7.5h33.727l-19.03,19.03c-0.222,0.222-0.421,0.457-0.609,0.698
				c-0.048,0.061-0.092,0.124-0.137,0.187c-0.148,0.202-0.284,0.408-0.409,0.62c-0.033,0.056-0.067,0.11-0.098,0.166
				c-0.304,0.548-0.532,1.124-0.688,1.717c-0.009,0.032-0.023,0.063-0.031,0.095l-10.296,41.178h-2.428c-4.142,0-7.5,3.357-7.5,7.5
				s3.358,7.5,7.5,7.5h99.4c4.142,0,7.5-3.357,7.5-7.5s-3.358-7.5-7.5-7.5h-37.867l63.501-63.501v108.274
				c0,5-4.067,9.067-9.066,9.067H164.884c-4.999,0-9.066-4.067-9.066-9.067V32.349z M164.884,288.349h182.233
				c13.27,0,24.066-10.797,24.066-24.067V155.815H472.15v158.949H39.85V155.815h100.968v108.468
				C140.818,277.554,151.614,288.349,164.884,288.349z M39.85,140.815v-26.416h100.968v26.416H39.85z M15,98.615
				c0-4.999,4.067-9.066,9.067-9.066h116.751v9.85H32.35c-4.142,0-7.5,3.357-7.5,7.5v215.365c0,4.143,3.358,7.5,7.5,7.5h447.301
				c4.142,0,7.5-3.357,7.5-7.5V106.898c0-4.143-3.358-7.5-7.5-7.5h-76.16c-0.188-0.241-0.387-0.475-0.608-0.696l-9.153-9.153h94.203
				c4.999,0,9.066,4.067,9.066,9.066v240.999H15V98.615z M364.467,470.583v18.134H147.535v-18.134h58.749
				c0.007,0,0.013,0.001,0.019,0.001H305.7c0.007,0,0.013-0.001,0.019-0.001H364.467z M213.802,420.883h84.399l-0.001,34.7h-84.397
				L213.802,420.883z M497,396.815c0,4.999-4.067,9.066-9.066,9.066H24.067c-5,0-9.067-4.067-9.067-9.066v-42.2h482V396.815z"/>
			<path d="M256.001,400.172c10.987,0,19.926-8.939,19.926-19.926s-8.938-19.927-19.926-19.927
				c-10.987,0-19.926,8.939-19.926,19.927C236.075,391.234,245.014,400.172,256.001,400.172z M256.001,375.32
				c2.716,0,4.926,2.21,4.926,4.927c0,2.716-2.209,4.926-4.926,4.926c-2.716,0-4.926-2.21-4.926-4.926
				C251.075,377.529,253.285,375.32,256.001,375.32z"/>
			<path d="M73.768,120.107H57.201c-4.142,0-7.5,3.357-7.5,7.5s3.358,7.5,7.5,7.5h16.567c4.142,0,7.5-3.357,7.5-7.5
				S77.91,120.107,73.768,120.107z"/>
			<path d="M189.731,89.552c0,0,0.001,0,0.002,0c0.001,0,0.002,0,0.003,0c0.001,0,0.002,0,0.002,0
				c10.986-0.002,19.922-8.941,19.922-19.927c0-10.985-8.936-19.924-19.921-19.926c-0.001,0-0.001,0-0.004,0
				c-0.002,0-0.003,0-0.003,0c-10.986,0.002-19.922,8.94-19.922,19.926S178.745,89.549,189.731,89.552z M189.734,64.698
				c2.716,0.001,4.925,2.21,4.925,4.926s-2.209,4.926-4.925,4.927c-2.716-0.001-4.925-2.211-4.925-4.927
				S187.019,64.7,189.734,64.698z"/>
			<path d="M189.731,168.24c0,0,0.001,0,0.002,0c0.001-0.001,0.002-0.001,0.003,0c0.001,0,0.002,0,0.002,0
				c10.986-0.002,19.922-8.94,19.922-19.926c0-10.986-8.936-19.925-19.921-19.927c-0.001-0.001-0.001-0.001-0.004,0
				c-0.002-0.001-0.003-0.001-0.003-0.001c-10.986,0.003-19.922,8.941-19.922,19.928C169.81,159.3,178.745,168.239,189.731,168.24z
				 M189.734,143.388c2.716,0.001,4.925,2.211,4.925,4.927s-2.209,4.925-4.925,4.926c-2.716-0.001-4.925-2.21-4.925-4.926
				C184.81,145.599,187.019,143.39,189.734,143.388z"/>
			<path d="M189.731,246.935c0,0,0.001,0,0.002,0c0.001-0.001,0.002-0.001,0.003,0c0.001,0,0.002,0,0.002,0
				c10.986-0.002,19.922-8.94,19.922-19.926c0-10.986-8.936-19.925-19.921-19.927c-0.001-0.001-0.001-0.001-0.004,0
				c-0.002-0.001-0.003-0.001-0.003-0.001c-10.986,0.003-19.922,8.941-19.922,19.928
				C169.81,237.995,178.745,246.934,189.731,246.935z M189.734,222.083c2.716,0.001,4.925,2.211,4.925,4.927
				s-2.209,4.925-4.925,4.926c-2.716-0.001-4.925-2.21-4.925-4.926C184.81,224.294,187.019,222.083,189.734,222.083z"/>
			<path d="M231.15,77.125h99.4c4.142,0,7.5-3.357,7.5-7.5s-3.358-7.5-7.5-7.5h-99.4c-4.142,0-7.5,3.357-7.5,7.5
				S227.008,77.125,231.15,77.125z"/>
		</g>
	</g>
</g>
<g>
</g>
<g>
</g>
<g>
</g>
<g>
</g>
<g>
</g>
<g>
</g>
<g>
</g>
<g>
</g>
<g>
</g>
<g>
</g>
<g>
</g>
<g>
</g>
<g>
</g>
<g>
</g>
<g>
</g>
</svg>
