<?xml version="1.0" encoding="iso-8859-1"?>
<!-- Generator: Adobe Illustrator 19.0.0, SVG Export Plug-In . SVG Version: 6.00 Build 0)  -->
<svg version="1.1" id="Capa_1" xmlns="http://www.w3.org/2000/svg" xmlns:xlink="http://www.w3.org/1999/xlink" x="0px" y="0px"
	 viewBox="0 0 512 512" style="enable-background:new 0 0 512 512;" xml:space="preserve">
<g>
	<g>
		<path d="M475,0H77C49.43,0,27,22.43,27,50v49.667c0,5.522,4.477,10,10,10s10-4.478,10-10V50c0-16.542,13.458-30,30-30h14v327.333
			c0,5.522,4.477,10,10,10s10-4.478,10-10V20h354v392H77c-11.248,0-21.637,3.735-30,10.027V191c0-5.522-4.477-10-10-10
			s-10,4.478-10,10v271c0,27.57,22.43,50,50,50h398c5.523,0,10-4.478,10-10V10C485,4.478,480.523,0,475,0z M465,452h-86.88
			c-5.523,0-10,4.478-10,10c0,5.522,4.477,10,10,10H465v20H77c-16.542,0-30-13.458-30-30s13.458-30,30-30h388V452z"/>
	</g>
</g>
<g>
	<g>
		<path d="M44.07,141.93C42.21,140.07,39.63,139,37,139s-5.21,1.069-7.07,2.93C28.07,143.79,27,146.37,27,149s1.07,5.21,2.93,7.069
			C31.79,157.93,34.37,159,37,159s5.21-1.07,7.07-2.931C45.93,154.21,47,151.63,47,149S45.93,143.79,44.07,141.93z"/>
	</g>
</g>
<g>
	<g>
		<path d="M108.07,377.031c-1.86-1.87-4.44-2.931-7.07-2.931s-5.21,1.061-7.07,2.931C92.07,378.89,91,381.46,91,384.1
			c0,2.63,1.07,5.2,2.93,7.07c1.86,1.86,4.44,2.93,7.07,2.93s5.21-1.07,7.07-2.93s2.93-4.44,2.93-7.07
			C111,381.46,109.93,378.88,108.07,377.031z"/>
	</g>
</g>
<g>
	<g>
		<path d="M435.909,179.546h-5.074c-8.965,0-17.008-5.467-20.478-13.895l-0.19-0.46c-3.532-8.497-1.722-18.081,4.612-24.415
			l3.585-3.585c3.905-3.905,3.905-10.237,0-14.143L380.95,85.634c-1.875-1.875-4.419-2.929-7.071-2.929
			c-2.652,0-5.196,1.054-7.071,2.929l-3.584,3.585c-6.334,6.335-15.919,8.144-24.412,4.615l-0.432-0.179
			c-8.46-3.482-13.927-11.525-13.927-20.491v-5.073c0-5.522-4.477-10-10-10h-52.911c-5.523,0-10,4.478-10,10v5.173
			c0,8.936-5.443,16.954-13.845,20.42l-0.478,0.197c-8.483,3.537-18.052,1.733-24.376-4.591l-3.656-3.656
			c-1.875-1.875-4.419-2.929-7.071-2.929s-5.196,1.054-7.071,2.929l-37.414,37.414c-1.875,1.876-2.929,4.419-2.929,7.071
			c0,2.652,1.054,5.196,2.929,7.071l3.732,3.732c6.308,6.308,8.113,15.852,4.608,24.293l-0.181,0.447
			c-3.468,8.434-11.482,13.883-20.417,13.883h-5.283c-5.523,0-10,4.478-10,10v52.91c0,5.522,4.477,10,10,10h5.372
			c8.91,0,16.905,5.43,20.37,13.835l0.179,0.432c3.52,8.454,1.722,17.989-4.58,24.292l-3.796,3.796
			c-1.875,1.875-2.929,4.419-2.929,7.071c0,2.652,1.054,5.195,2.929,7.071l37.414,37.414c1.875,1.875,4.419,2.929,7.072,2.929
			s5.196-1.054,7.071-2.93l3.795-3.796c6.304-6.303,15.838-8.099,24.282-4.585l0.443,0.184c8.403,3.464,13.833,11.46,13.833,20.369
			v5.372c0,5.522,4.477,10,10,10h52.911c5.523,0,10-4.478,10-10v-5.282c0-8.935,5.449-16.949,13.923-20.434l0.384-0.159
			c8.461-3.513,18.006-1.71,24.314,4.6l3.733,3.732c3.905,3.904,10.237,3.904,14.142,0l37.414-37.414
			c1.875-1.876,2.929-4.42,2.929-7.072s-1.054-5.195-2.93-7.071l-3.655-3.654c-6.325-6.325-8.127-15.894-4.59-24.378l0.188-0.454
			c3.475-8.424,11.493-13.867,20.428-13.867h5.173c5.523,0,10-4.478,10-10v-52.91C445.909,184.024,441.432,179.546,435.909,179.546z
			 M219.73,316.985c-0.052,0.052-0.096,0.109-0.147,0.162c-6.243,1.343-12.168,4.096-17.283,8.187L178.667,301.7
			c3.819-4.775,6.458-10.26,7.885-16.048c0.196-0.168,0.392-0.336,0.578-0.522l39.262-39.263c2.658-2.658,3.601-6.582,2.441-10.157
			c-7.241-22.322-1.44-46.489,15.139-63.068c13.765-13.766,32.827-20.054,51.531-17.717l-29.28,29.279
			c-2.483,2.484-3.482,6.089-2.63,9.497l7.983,31.935c0.896,3.582,3.693,6.38,7.276,7.275l31.935,7.984
			c3.41,0.854,7.013-0.146,9.497-2.63l29.165-29.165c2.244,18.624-4.054,37.585-17.744,51.274
			c-16.543,16.542-40.666,22.357-62.954,15.177c-3.917-1.26-8.129,0.033-10.705,3.118L219.73,316.985z M425.909,232.733
			c-15.074,1.739-28.143,11.543-34.088,25.959l-0.163,0.393c-6.031,14.47-3.744,30.695,5.691,42.602l-23.656,23.656
			c-11.888-9.47-28.124-11.788-42.621-5.769l-0.34,0.141c-14.476,5.952-24.307,19.069-26.012,34.196h-33.43
			c-1.675-15.127-11.484-28.257-25.964-34.234l23.377-23.377c27.701,6.666,56.769-1.406,77.145-21.78
			c23.252-23.253,30.377-58.008,18.15-88.543c-1.249-3.119-3.982-5.403-7.274-6.078c-3.293-0.679-6.703,0.35-9.08,2.725
			l-37.498,37.498l-20.622-5.155l-5.155-20.621l37.56-37.56c2.373-2.373,3.397-5.777,2.728-9.065
			c-0.669-3.288-2.943-6.021-6.054-7.278c-30.598-12.358-65.442-5.271-88.774,18.06c-20.44,20.441-28.491,49.602-21.725,77.372
			l-23.502,23.502c-0.049-0.12-0.086-0.241-0.136-0.361l-0.143-0.346c-5.962-14.466-19.098-24.282-34.232-25.957v-33.43
			c15.127-1.707,28.243-11.539,34.199-26.021l0.147-0.354c6.012-14.477,3.693-30.711-5.777-42.601l23.656-23.656
			c11.905,9.435,28.132,11.724,42.612,5.687l0.376-0.156c14.421-5.947,24.226-19.016,25.964-34.09h33.476
			c1.771,15.068,11.595,28.119,26.047,34.067l0.341,0.142c14.446,6.005,30.642,3.73,42.544-5.657l23.681,23.682
			c-9.388,11.901-11.663,28.096-5.66,42.537c0.001,0.001,0.039,0.093,0.04,0.095l0.113,0.274
			c5.941,14.433,18.992,24.255,34.059,26.026V232.733z"/>
	</g>
</g>
<g>
	<g>
		<path d="M347.69,454.93c-1.87-1.861-4.44-2.93-7.08-2.93c-2.63,0-5.2,1.069-7.07,2.93c-1.86,1.86-2.93,4.44-2.93,7.07
			s1.07,5.21,2.93,7.069c1.87,1.86,4.44,2.931,7.07,2.931c2.64,0,5.22-1.07,7.08-2.931c1.86-1.859,2.93-4.439,2.93-7.069
			S349.55,456.79,347.69,454.93z"/>
	</g>
</g>
<g>
</g>
<g>
</g>
<g>
</g>
<g>
</g>
<g>
</g>
<g>
</g>
<g>
</g>
<g>
</g>
<g>
</g>
<g>
</g>
<g>
</g>
<g>
</g>
<g>
</g>
<g>
</g>
<g>
</g>
</svg>
