<?xml version="1.0" encoding="iso-8859-1"?>
<!-- Generator: Adobe Illustrator 19.0.0, SVG Export Plug-In . SVG Version: 6.00 Build 0)  -->
<svg xmlns="http://www.w3.org/2000/svg" xmlns:xlink="http://www.w3.org/1999/xlink" version="1.1" id="Capa_1" x="0px" y="0px" viewBox="0 0 496 496" style="enable-background:new 0 0 496 496;" xml:space="preserve" width="512px" height="512px">
<g>
	<g>
		<g>
			<path d="M456,0H248c-22.056,0-40,17.944-40,40v24h8h8h256v336h16V40C496,17.944,478.056,0,456,0z M480,48H224v-8     c0-13.232,10.768-24,24-24h208c13.232,0,24,10.768,24,24V48z" fill="#FFFFFF"/>
			<path d="M208,456c0,22.056,17.944,40,40,40h208c22.056,0,40-17.944,40-40v-40H208V456z M224,432h256v24c0,13.232-10.768,24-24,24     H248c-13.232,0-24-10.768-24-24V432z" fill="#FFFFFF"/>
			<rect x="312" y="448" width="80" height="16" fill="#FFFFFF"/>
			<path d="M263.832,384H464V96h-16v272H254.96l-2.312,3.976C248.264,379.504,240.544,384,232,384s-16.264-4.496-20.648-12.024     L209.04,368H16V96H0v288h200.168c7.512,9.968,19.328,16,31.832,16C244.504,400,256.32,393.968,263.832,384z" fill="#FFFFFF"/>
			<path d="M432,80H32v272h400V80z M224,336H48V96h176V336z M416,336H240V96h176V336z" fill="#FFFFFF"/>
			<path d="M208,112H64v112h144V112z M192,208H80v-80h112V208z" fill="#FFFFFF"/>
			<rect x="64" y="240" width="144" height="16" fill="#FFFFFF"/>
			<rect x="96" y="272" width="112" height="16" fill="#FFFFFF"/>
			<rect x="64" y="272" width="16" height="16" fill="#FFFFFF"/>
			<rect x="192" y="304" width="16" height="16" fill="#FFFFFF"/>
			<rect x="64" y="304" width="112" height="16" fill="#FFFFFF"/>
			<rect x="256" y="112" width="144" height="16" fill="#FFFFFF"/>
			<rect x="288" y="144" width="112" height="16" fill="#FFFFFF"/>
			<rect x="256" y="144" width="16" height="16" fill="#FFFFFF"/>
			<rect x="384" y="176" width="16" height="16" fill="#FFFFFF"/>
			<rect x="256" y="176" width="112" height="16" fill="#FFFFFF"/>
			<path d="M328,208c-30.872,0-56,25.128-56,56s25.128,56,56,56s56-25.128,56-56S358.872,208,328,208z M328,304     c-22.056,0-40-17.944-40-40c0-22.056,17.944-40,40-40c22.056,0,40,17.944,40,40C368,286.056,350.056,304,328,304z" fill="#FFFFFF"/>
		</g>
	</g>
</g>
<g>
</g>
<g>
</g>
<g>
</g>
<g>
</g>
<g>
</g>
<g>
</g>
<g>
</g>
<g>
</g>
<g>
</g>
<g>
</g>
<g>
</g>
<g>
</g>
<g>
</g>
<g>
</g>
<g>
</g>
</svg>
