<?xml version="1.0" encoding="iso-8859-1"?>
<!-- Generator: Adobe Illustrator 17.1.0, SVG Export Plug-In . SVG Version: 6.00 Build 0)  -->
<!DOCTYPE svg PUBLIC "-//W3C//DTD SVG 1.1//EN" "http://www.w3.org/Graphics/SVG/1.1/DTD/svg11.dtd">
<svg version="1.1" id="Capa_1" xmlns="http://www.w3.org/2000/svg" xmlns:xlink="http://www.w3.org/1999/xlink" x="0px" y="0px"
	 viewBox="0 0 199.213 199.213" style="enable-background:new 0 0 199.213 199.213;" xml:space="preserve">
<path d="M186.1,12.689H13.112C5.882,12.689,0,18.571,0,25.802v116.171c0,7.23,5.882,13.112,13.112,13.112h60.424l-1.677,21.438
	H50.815c-2.762,0-5,2.238-5,5s2.238,5,5,5h25.668h46.246c0.007,0,0.015,0,0.02,0h25.647c2.762,0,5-2.238,5-5s-2.238-5-5-5h-21.043
	l-1.677-21.438H186.1c7.23,0,13.113-5.882,13.113-13.112V25.802C199.213,18.571,193.33,12.689,186.1,12.689z M15.856,88.606h60.601
	l9.438,24.635c0.745,1.946,2.61,3.212,4.667,3.212c0.132,0,0.265-0.005,0.398-0.016c2.211-0.176,4.041-1.787,4.497-3.957
	l10.431-49.672l8.318,22.529c0.725,1.964,2.597,3.269,4.69,3.269h64.46v36.141h-167.5V88.606z M122.38,78.606l-13.126-35.552
	c-0.772-2.09-2.835-3.424-5.057-3.255c-2.223,0.163-4.069,1.777-4.527,3.959L89.159,93.811l-4.594-11.993
	c-0.741-1.934-2.598-3.211-4.669-3.211h-64.04V29.773h167.5v48.833H122.38z"/>
<g>
</g>
<g>
</g>
<g>
</g>
<g>
</g>
<g>
</g>
<g>
</g>
<g>
</g>
<g>
</g>
<g>
</g>
<g>
</g>
<g>
</g>
<g>
</g>
<g>
</g>
<g>
</g>
<g>
</g>
</svg>
