<?xml version="1.0" encoding="iso-8859-1"?>
<!-- Generator: Adobe Illustrator 19.0.0, SVG Export Plug-In . SVG Version: 6.00 Build 0)  -->
<svg version="1.1" id="Capa_1" xmlns="http://www.w3.org/2000/svg" xmlns:xlink="http://www.w3.org/1999/xlink" x="0px" y="0px"
	 viewBox="0 0 480 480" style="enable-background:new 0 0 480 480;" xml:space="preserve">
<g>
	<g>
		<path d="M440,0H40C22.327,0,8,14.327,8,32v328c0,17.673,14.327,32,32,32h112.456l-28.568,40H80c-13.255,0-24,10.745-24,24
			s10.745,24,24,24h320c13.255,0,24-10.745,24-24s-10.745-24-24-24h-43.888l-28.568-40H440c17.673,0,32-14.327,32-32V32
			C472,14.327,457.673,0,440,0z M400,448c4.418,0,8,3.582,8,8s-3.582,8-8,8H80c-4.418,0-8-3.582-8-8s3.582-8,8-8H400z M336.456,432
			H143.544l28.568-40h135.776L336.456,432z M456,360c0,8.837-7.163,16-16,16H40c-8.837,0-16-7.163-16-16v-32h432V360z
			 M346.568,249.232c-9.457-14.177-21.623-26.343-35.8-35.8l20-34.6c20.186,13.033,37.367,30.214,50.4,50.4L346.568,249.232z
			 M389.192,243.128c11.034,21.359,17.312,44.855,18.4,68.872h-40c-1.04-17.004-5.491-33.624-13.088-48.872L389.192,243.128z
			 M296.872,205.496c-15.248-7.597-31.868-12.048-48.872-13.088v-40c24.025,1.085,47.529,7.362,68.896,18.4L296.872,205.496z
			 M351.608,312H287.28c-3.435-20.1-19.18-35.845-39.28-39.28V232h-16v40.72c-20.1,3.435-35.845,19.18-39.28,39.28h-64.312
			c4.306-61.635,57.761-108.109,119.396-103.804C303.444,212.083,347.721,256.36,351.608,312z M248,296v-6.864
			c11.202,2.913,19.951,11.662,22.864,22.864h-61.728c2.913-11.202,11.662-19.951,22.864-22.864V296H248z M232,192.408
			c-17.004,1.04-33.624,5.491-48.872,13.088l-20-34.688c21.359-11.034,44.855-17.312,68.872-18.4V192.408z M169.256,213.408
			c-14.177,9.457-26.343,21.623-35.8,35.8l-34.6-20c13.036-20.178,30.216-37.35,50.4-50.376v-0.024L169.256,213.408z
			 M125.496,263.08c-7.603,15.262-12.054,31.9-13.088,48.92h-40c1.085-24.025,7.362-47.529,18.4-68.896v-0.024L125.496,263.08z
			 M456,312h-32.2c-4.737-101.51-90.867-179.96-192.377-175.223C136.544,141.204,60.627,217.121,56.2,312H24V80h432V312z M456,64H24
			V32c0-8.837,7.163-16,16-16h400c8.837,0,16,7.163,16,16V64z"/>
	</g>
</g>
<g>
	<g>
		<rect x="232" y="344" width="16" height="16"/>
	</g>
</g>
<g>
	<g>
		<rect x="40" y="32" width="16" height="16"/>
	</g>
</g>
<g>
	<g>
		<rect x="72" y="32" width="16" height="16"/>
	</g>
</g>
<g>
	<g>
		<rect x="104" y="32" width="16" height="16"/>
	</g>
</g>
<g>
	<g>
		<rect x="40" y="128" width="72" height="16"/>
	</g>
</g>
<g>
	<g>
		<rect x="72" y="96" width="64" height="16"/>
	</g>
</g>
<g>
	<g>
		<rect x="40" y="96" width="16" height="16"/>
	</g>
</g>
<g>
	<g>
		<rect x="344" y="128" width="72" height="16"/>
	</g>
</g>
<g>
	<g>
		<rect x="376" y="96" width="64" height="16"/>
	</g>
</g>
<g>
	<g>
		<rect x="344" y="96" width="16" height="16"/>
	</g>
</g>
<g>
</g>
<g>
</g>
<g>
</g>
<g>
</g>
<g>
</g>
<g>
</g>
<g>
</g>
<g>
</g>
<g>
</g>
<g>
</g>
<g>
</g>
<g>
</g>
<g>
</g>
<g>
</g>
<g>
</g>
</svg>
